{"glyphs":{"0":{"ha":17,"x_min":0,"x_max":0,"o":"m 521 1040 b 69 610 247 1040 69 872 l 69 261 b 521 -169 69 -1 247 -169 b 972 261 794 -169 972 -1 l 972 610 b 521 1040 972 872 794 1040 z m 108 436 b 521 988 342 436 513 690 b 933 438 529 690 699 438 b 521 -112 699 438 529 183 b 108 436 513 183 342 436 z "},"1":{"ha":-242,"x_min":0,"x_max":0,"o":"m 575 -151 l 575 1024 l 367 1024 l 69 839 l 69 617 l 297 746 l 297 -151 z "},"2":{"ha":-71,"x_min":0,"x_max":0,"o":"m 894 -151 l 894 126 b 379 36 751 54 550 36 l 693 313 b 906 661 840 443 906 539 b 469 1040 906 872 758 1040 b 56 640 183 1040 42 836 l 306 640 b 467 818 292 751 360 818 b 628 668 565 818 628 757 b 424 374 628 554 550 486 l 42 33 l 42 -151 z "},"3":{"ha":-57,"x_min":0,"x_max":0,"o":"m 329 354 l 413 354 b 649 196 549 354 649 297 b 456 58 649 113 565 58 b 278 183 364 58 278 107 l 28 183 b 485 -169 28 -53 228 -169 b 926 185 718 -169 926 -21 b 711 465 926 336 833 428 b 885 728 803 501 885 621 b 481 1042 885 900 726 1042 b 81 718 221 1042 74 889 l 324 718 b 465 822 324 779 392 822 b 607 701 549 822 607 772 b 413 549 607 613 557 549 l 329 549 z "},"4":{"ha":4,"x_min":0,"x_max":0,"o":"m 1001 246 l 861 246 l 861 1024 l 611 1024 l 35 232 l 35 24 l 597 24 l 597 -151 l 861 -151 l 861 24 l 1001 24 z m 546 801 b 839 450 550 606 654 457 b 546 79 650 442 546 269 b 251 449 546 269 442 440 b 546 801 436 456 540 606 z "},"5":{"ha":-14,"x_min":0,"x_max":0,"o":"m 506 -175 b 969 254 732 -175 969 -11 b 563 638 969 503 761 638 b 406 614 519 638 443 628 l 406 803 l 861 803 l 861 1025 l 131 1025 l 131 451 l 288 376 b 493 435 349 411 418 435 b 688 247 604 435 688 363 b 494 53 688 139 619 53 b 292 215 390 53 299 115 l 42 215 b 506 -175 42 -54 274 -175 z "},"6":{"ha":-8,"x_min":0,"x_max":0,"o":"m 515 -174 b 961 207 783 -174 961 -10 l 961 272 b 515 613 961 475 769 613 b 342 582 463 613 376 599 l 342 697 b 508 819 342 774 417 819 b 661 710 597 819 661 775 l 661 703 l 933 703 l 933 710 b 508 1042 933 899 774 1042 b 69 690 254 1042 69 904 l 69 207 b 515 -174 69 -10 247 -174 z m 515 -106 b 140 221 508 138 381 217 b 515 551 381 225 508 318 b 890 222 521 318 649 226 b 515 -106 649 218 521 138 z "},"7":{"ha":-135,"x_min":0,"x_max":0,"o":"m 254 -151 l 532 -151 l 532 176 b 876 867 532 482 683 708 l 876 1024 l 14 1024 l 14 801 l 669 801 b 254 149 418 699 254 429 z "},"8":{"ha":17,"x_min":0,"x_max":0,"o":"m 521 1042 b 97 710 254 1042 97 924 l 97 700 b 219 476 97 611 140 528 b 56 207 117 422 56 332 l 56 192 b 521 -169 56 -57 247 -169 b 986 192 794 -169 986 -57 l 986 207 b 822 476 986 331 925 421 b 946 700 901 528 946 610 l 946 710 b 521 1042 946 924 789 1042 z m 517 986 b 867 743 525 840 692 747 b 517 501 692 739 525 657 b 167 743 508 657 342 739 b 517 986 342 747 508 840 z m 111 182 b 517 486 296 182 517 290 b 908 181 517 294 726 186 b 517 -122 726 175 517 82 b 111 182 517 88 296 168 z "},"9":{"ha":-8,"x_min":0,"x_max":0,"o":"m 501 1042 b 56 663 233 1042 56 879 l 56 597 b 501 260 56 394 247 260 b 675 290 554 260 640 274 l 675 175 b 508 53 675 99 600 53 b 356 163 419 53 356 97 l 356 169 l 83 169 l 83 163 b 508 -169 83 -26 243 -169 b 947 182 763 -169 947 -32 l 947 663 b 501 1042 947 879 769 1042 z m 501 974 b 876 649 507 731 635 653 b 501 301 629 643 501 549 b 126 647 501 549 374 643 b 501 974 367 651 494 731 z "},"\u0000":{"ha":-707,"x_min":0,"x_max":0,"o":""},"\u0001":{"ha":-707,"x_min":0,"x_max":0,"o":""},"\u0002":{"ha":-707,"x_min":0,"x_max":0,"o":""},"\u0003":{"ha":-707,"x_min":0,"x_max":0,"o":""},"\u0004":{"ha":-707,"x_min":0,"x_max":0,"o":""},"\u0005":{"ha":-707,"x_min":0,"x_max":0,"o":""},"\u0006":{"ha":-707,"x_min":0,"x_max":0,"o":""},"\u0007":{"ha":-707,"x_min":0,"x_max":0,"o":""},"\b":{"ha":-707,"x_min":0,"x_max":0,"o":""},"\t":{"ha":-707,"x_min":0,"x_max":0,"o":""},"\n":{"ha":-707,"x_min":0,"x_max":0,"o":""},"\u000b":{"ha":-707,"x_min":0,"x_max":0,"o":""},"\f":{"ha":-707,"x_min":0,"x_max":0,"o":""},"\r":{"ha":-707,"x_min":0,"x_max":0,"o":""},"\u000e":{"ha":-707,"x_min":0,"x_max":0,"o":""},"\u000f":{"ha":-707,"x_min":0,"x_max":0,"o":""},"\u0010":{"ha":-707,"x_min":0,"x_max":0,"o":""},"\u0011":{"ha":-707,"x_min":0,"x_max":0,"o":""},"\u0012":{"ha":-707,"x_min":0,"x_max":0,"o":""},"\u0013":{"ha":-707,"x_min":0,"x_max":0,"o":""},"\u0014":{"ha":-707,"x_min":0,"x_max":0,"o":""},"\u0015":{"ha":-707,"x_min":0,"x_max":0,"o":""},"\u0016":{"ha":-707,"x_min":0,"x_max":0,"o":""},"\u0017":{"ha":-707,"x_min":0,"x_max":0,"o":""},"\u0018":{"ha":-707,"x_min":0,"x_max":0,"o":""},"\u0019":{"ha":-707,"x_min":0,"x_max":0,"o":""},"\u001a":{"ha":-707,"x_min":0,"x_max":0,"o":""},"\u001b":{"ha":-707,"x_min":0,"x_max":0,"o":""},"\u001c":{"ha":-707,"x_min":0,"x_max":0,"o":""},"\u001d":{"ha":-707,"x_min":0,"x_max":0,"o":""},"\u001e":{"ha":-707,"x_min":0,"x_max":0,"o":""},"\u001f":{"ha":-707,"x_min":0,"x_max":0,"o":""}," ":{"ha":-707,"x_min":0,"x_max":0,"o":""}," ":{"ha":-707,"x_min":0,"x_max":0,"o":""},"!":{"ha":-489,"x_min":0,"x_max":0,"o":"m 178 267 l 358 267 l 410 1056 l 126 1056 z m 268 -169 b 425 -15 360 -169 425 -103 b 268 142 425 75 360 142 b 111 -15 175 142 111 75 b 268 -169 111 -103 175 -169 z "},"\"":{"ha":-235,"x_min":0,"x_max":0,"o":"m 163 700 l 336 700 l 374 1111 l 111 1111 z m 454 700 l 628 700 l 679 1111 l 417 1111 z "},"#":{"ha":-83,"x_min":0,"x_max":0,"o":"m 900 665 l 900 846 l 769 846 l 792 1025 l 618 1025 l 596 846 l 428 846 l 450 1025 l 276 1025 l 254 846 l 93 846 l 93 665 l 232 665 l 178 225 l 42 225 l 42 44 l 156 44 l 132 -153 l 310 -153 l 333 44 l 497 44 l 474 -153 l 651 -153 l 675 44 l 851 44 l 851 225 l 696 225 l 749 665 z m 407 665 l 574 665 l 519 225 l 354 225 z "},"$":{"ha":-6,"x_min":0,"x_max":0,"o":"m 950 211 b 754 474 950 360 864 414 l 535 593 b 401 707 449 640 401 650 b 521 807 401 767 444 807 b 650 694 603 807 650 765 l 911 694 b 629 1013 911 867 783 978 l 629 1181 l 417 1181 l 417 1017 b 104 694 222 988 104 871 b 304 415 104 538 186 476 l 528 300 b 654 183 582 271 654 231 b 521 67 654 122 617 67 b 351 224 408 67 351 140 l 69 224 b 417 -147 69 15 213 -115 l 417 -294 l 629 -294 l 629 -144 b 950 211 840 -104 950 51 z "},"%":{"ha":307,"x_min":0,"x_max":0,"o":"m 311 436 b 610 740 483 436 610 533 b 311 1042 610 949 483 1042 b 14 740 139 1042 14 949 b 311 436 14 533 139 436 z m 1163 1042 l 974 1042 l 171 -169 l 360 -169 z m 311 1006 b 571 740 315 872 417 746 b 311 474 417 733 315 608 b 54 740 306 608 208 733 b 311 1006 208 746 306 872 z m 1021 435 b 722 131 849 435 722 338 b 1021 -171 722 -78 849 -171 b 1318 131 1193 -171 1318 -78 b 1021 435 1318 338 1193 435 z m 1021 -135 b 761 131 1015 -1 915 124 b 1021 396 915 136 1015 263 b 1278 131 1025 263 1124 136 b 1021 -135 1124 124 1025 -1 z "},"&":{"ha":121,"x_min":0,"x_max":0,"o":"m 1094 476 l 851 476 b 782 240 851 371 833 306 l 582 456 l 665 513 b 801 761 747 567 801 651 b 474 1042 801 926 665 1042 b 139 726 283 1042 139 906 b 235 510 139 640 193 557 l 260 482 l 206 446 b 42 164 111 383 42 285 b 482 -175 42 -47 218 -175 b 796 -85 611 -175 714 -133 b 1132 -175 881 -143 982 -175 l 1132 47 b 961 89 1064 47 1010 63 b 1094 476 1054 207 1094 375 z m 442 607 b 365 747 407 644 365 704 b 478 857 365 814 413 857 b 586 761 531 857 586 815 b 521 650 586 711 563 676 l 446 601 z m 475 40 b 308 181 374 40 308 97 b 382 318 308 224 324 276 l 397 329 l 622 79 b 475 40 582 57 536 40 z "},"'":{"ha":-519,"x_min":0,"x_max":0,"o":"m 163 700 l 343 700 l 394 1111 l 111 1111 z "},"(":{"ha":-468,"x_min":0,"x_max":0,"o":"m 118 397 b 367 -389 118 103 214 -161 l 543 -389 b 347 397 411 -174 347 185 b 543 1183 347 610 411 968 l 367 1183 b 118 397 214 956 118 692 z "},")":{"ha":-468,"x_min":0,"x_max":0,"o":"m 439 397 b 190 1183 439 692 343 956 l 14 1183 b 210 397 146 968 210 610 b 14 -389 210 185 146 -174 l 190 -389 b 439 397 343 -161 439 103 z "},"*":{"ha":-353,"x_min":0,"x_max":0,"o":"m 443 1153 l 228 1153 l 251 956 l 74 1039 l 7 835 l 201 797 l 67 653 l 240 526 l 336 700 l 432 528 l 606 654 l 469 797 l 665 836 l 599 1040 l 418 956 z "},"+":{"ha":-92,"x_min":0,"x_max":0,"o":"m 349 846 l 349 551 l 69 551 l 69 346 l 349 346 l 349 51 l 585 51 l 585 346 l 864 346 l 864 551 l 585 551 l 585 846 z "},",":{"ha":-558,"x_min":0,"x_max":0,"o":"m 390 -22 b 233 142 383 68 325 142 b 76 -15 140 142 76 75 b 188 -157 76 -87 119 -140 b 69 -265 175 -212 142 -244 l 69 -369 b 390 -22 260 -356 404 -196 z "},"-":{"ha":-425,"x_min":0,"x_max":0,"o":"m 69 344 l 531 344 l 531 553 l 69 553 z "},".":{"ha":-558,"x_min":0,"x_max":0,"o":"m 233 -169 b 390 -15 325 -169 390 -103 b 233 142 390 75 325 142 b 76 -15 140 142 76 75 b 233 -169 76 -103 140 -169 z "},"/":{"ha":-507,"x_min":0,"x_max":0,"o":"m 7 -332 l 190 -332 l 511 1156 l 328 1156 z "},":":{"ha":-433,"x_min":0,"x_max":0,"o":"m 296 600 b 453 754 388 600 453 667 b 296 911 453 844 388 911 b 139 754 203 911 139 844 b 296 600 139 667 203 600 z m 296 -25 b 453 129 388 -25 453 42 b 296 286 453 219 388 286 b 139 129 203 286 139 219 b 296 -25 139 42 203 -25 z "},";":{"ha":-426,"x_min":0,"x_max":0,"o":"m 303 600 b 460 754 394 600 460 667 b 303 911 460 844 394 911 b 146 754 210 911 146 844 b 303 600 146 667 210 600 z m 460 143 b 303 300 460 233 394 300 b 146 143 210 300 146 233 b 253 1 146 72 188 19 b 139 -93 239 -46 204 -74 l 139 -197 b 460 136 328 -183 457 -36 z "},"<":{"ha":-421,"x_min":0,"x_max":0,"o":"m 285 415 l 590 828 l 590 1114 l 69 521 l 69 301 l 590 -292 l 590 -6 l 285 407 z "},"=":{"ha":-199,"x_min":0,"x_max":0,"o":"m 56 553 l 771 553 l 771 754 l 56 754 z m 56 139 l 771 139 l 771 340 l 56 340 z "},">":{"ha":-421,"x_min":0,"x_max":0,"o":"m 319 407 l 14 -6 l 14 -292 l 535 301 l 535 521 l 14 1114 l 14 828 l 319 415 z "},"?":{"ha":-179,"x_min":0,"x_max":0,"o":"m 274 267 l 524 267 b 557 407 524 307 529 374 l 697 576 b 776 768 742 631 776 689 b 410 1081 776 988 606 1081 b 18 740 185 1081 18 939 l 268 740 b 389 854 268 815 324 854 b 503 749 454 854 503 818 b 465 658 503 718 490 688 l 357 531 b 274 313 308 472 274 401 z m 403 -169 b 560 -15 494 -169 560 -103 b 403 142 560 75 494 142 b 246 -15 310 142 246 75 b 403 -169 246 -103 310 -169 z "},"@":{"ha":593,"x_min":0,"x_max":0,"o":"m 818 765 b 443 365 589 765 443 585 b 804 -17 443 146 576 -17 b 1024 107 890 -17 989 38 b 1213 -17 1049 26 1113 -17 b 1563 483 1336 -17 1563 149 b 900 1132 1563 864 1306 1132 b 56 304 439 1132 56 783 b 782 -399 56 -164 419 -399 b 1160 -317 911 -399 1050 -376 l 1160 -165 b 804 -229 1088 -203 896 -229 b 247 310 526 -229 247 -46 b 876 964 247 717 557 964 b 1383 475 1235 964 1383 743 b 1238 165 1383 282 1306 165 b 1189 339 1201 165 1189 226 l 1189 761 l 981 761 l 981 701 b 818 765 947 746 879 765 z m 807 693 b 1081 372 814 521 947 379 b 807 50 947 365 814 221 b 533 371 800 221 667 364 b 807 693 667 378 800 521 z "},"A":{"ha":122,"x_min":0,"x_max":0,"o":"m 850 -151 l 1147 -151 l 713 1024 l 436 1024 l 0 -151 l 297 -151 l 376 68 l 771 68 z m 828 515 b 574 117 632 515 574 315 b 319 515 574 315 515 515 b 574 897 510 515 571 692 b 828 515 576 692 636 515 z "},"B":{"ha":47,"x_min":0,"x_max":0,"o":"m 69 1024 l 69 -151 l 604 -151 b 1031 213 861 -151 1031 -21 b 831 490 1031 335 942 460 b 971 733 910 536 971 638 b 589 1024 971 931 804 1024 z m 531 986 b 881 743 539 828 706 747 b 531 501 706 739 539 669 b 181 743 522 669 356 739 b 531 986 356 747 522 828 z m 531 486 b 908 182 531 294 726 188 b 531 -121 726 176 531 83 b 153 183 531 83 333 178 b 531 486 333 188 531 294 z "},"C":{"ha":79,"x_min":0,"x_max":0,"o":"m 785 303 l 785 247 b 556 53 785 118 700 53 b 326 275 411 53 326 132 l 326 596 b 556 818 326 739 411 818 b 785 624 700 818 785 753 l 785 582 l 1063 582 l 1063 638 b 556 1040 1063 886 857 1040 b 49 610 254 1040 49 872 l 49 261 b 556 -169 49 -1 254 -169 b 1063 233 857 -169 1063 -15 l 1063 303 z "},"D":{"ha":69,"x_min":0,"x_max":0,"o":"m 69 -151 l 575 -151 b 1060 436 876 -151 1060 82 b 575 1024 1060 790 876 1024 l 69 1024 z m 94 443 b 563 1013 335 443 563 706 b 1031 444 563 706 790 444 b 563 -122 790 444 563 185 b 94 443 563 185 335 443 z "},"E":{"ha":-110,"x_min":0,"x_max":0,"o":"m 874 -151 l 874 126 b 347 43 706 67 553 43 l 347 333 l 860 333 l 860 558 l 347 558 l 347 801 l 874 801 l 874 1024 l 69 1024 l 69 -151 z "},"F":{"ha":-162,"x_min":0,"x_max":0,"o":"m 849 1024 l 69 1024 l 69 -151 l 347 -151 l 347 275 l 814 275 l 814 504 l 347 504 l 347 801 l 849 801 z "},"G":{"ha":107,"x_min":0,"x_max":0,"o":"m 1090 481 l 553 481 l 553 272 l 824 272 l 824 247 b 569 53 824 118 725 53 b 326 275 425 53 326 132 l 326 596 b 569 818 326 739 425 818 b 792 638 714 818 792 753 l 792 596 l 1069 596 l 1069 651 b 569 1040 1069 889 871 1040 b 49 610 268 1040 49 872 l 49 261 b 569 -169 49 -1 268 -169 b 1090 233 885 -169 1090 -15 z "},"H":{"ha":81,"x_min":0,"x_max":0,"o":"m 1036 -151 l 1036 1024 l 758 1024 l 758 553 l 347 553 l 347 1024 l 69 1024 l 69 -151 l 347 -151 l 347 331 l 758 331 l 758 -151 z "},"I":{"ha":-608,"x_min":0,"x_max":0,"o":"m 347 1024 l 69 1024 l 69 -151 l 347 -151 z "},"J":{"ha":-122,"x_min":0,"x_max":0,"o":"m 14 200 b 417 -169 14 -3 153 -169 b 833 226 681 -169 833 17 l 833 1024 l 556 1024 l 556 218 b 417 74 556 131 507 74 b 278 200 335 74 278 113 z "},"K":{"ha":56,"x_min":0,"x_max":0,"o":"m 69 -151 l 347 -151 l 347 192 l 467 342 l 761 -151 l 1067 -151 l 633 550 l 1011 1024 l 706 1024 l 347 572 l 347 1024 l 69 1024 z "},"L":{"ha":-174,"x_min":0,"x_max":0,"o":"m 69 -151 l 838 -151 l 838 133 b 347 47 704 72 519 50 l 347 1024 l 69 1024 z "},"M":{"ha":257,"x_min":0,"x_max":0,"o":"m 681 400 b 640 211 663 336 651 274 b 601 400 631 274 618 336 l 404 1024 l 69 1024 l 69 -151 l 329 -151 l 329 333 b 310 618 329 406 318 532 l 538 -124 l 744 -124 l 972 618 b 953 333 964 532 953 406 l 953 -151 l 1213 -151 l 1213 1024 l 878 1024 z "},"N":{"ha":88,"x_min":0,"x_max":0,"o":"m 1043 -151 l 1043 1024 l 768 1024 l 768 483 b 776 286 768 418 768 350 b 682 472 750 354 717 415 l 344 1024 l 69 1024 l 69 -151 l 344 -151 l 344 372 b 336 561 344 431 342 496 b 422 428 371 514 393 476 l 768 -151 z "},"O":{"ha":114,"x_min":0,"x_max":0,"o":"m 569 1040 b 49 610 254 1040 49 872 l 49 261 b 569 -169 49 -1 254 -169 b 1090 261 885 -169 1090 -1 l 1090 610 b 569 1040 1090 872 885 1040 z m 88 436 b 569 1011 328 436 569 704 b 1051 438 569 704 811 438 b 569 -136 811 438 569 171 b 88 436 569 171 328 436 z "},"P":{"ha":19,"x_min":0,"x_max":0,"o":"m 347 -151 l 347 200 l 590 200 b 1017 604 833 200 1017 358 b 590 1024 1017 851 847 1024 l 69 1024 l 69 -151 z m 538 979 b 908 614 538 775 728 621 b 538 246 728 606 538 436 b 167 613 538 436 347 604 b 538 979 347 619 538 775 z "},"Q":{"ha":114,"x_min":0,"x_max":0,"o":"m 569 1042 b 49 611 254 1042 49 874 l 49 275 b 439 -144 49 50 199 -104 b 924 -425 451 -361 682 -425 l 1021 -425 l 1021 -203 l 882 -203 b 719 -140 771 -203 729 -171 b 1090 275 947 -94 1090 57 l 1090 611 b 569 1042 1090 874 885 1042 z m 88 443 b 569 1013 328 443 569 706 b 1051 444 569 706 811 444 b 569 -122 811 444 569 185 b 88 443 569 185 328 443 z "},"R":{"ha":39,"x_min":0,"x_max":0,"o":"m 347 -151 l 347 228 l 526 228 l 758 -151 l 1064 -151 l 806 272 b 1015 618 933 333 1015 453 b 590 1024 1015 865 847 1024 l 69 1024 l 69 -151 z m 538 979 b 908 628 538 775 728 635 b 538 274 728 619 538 464 b 167 626 538 464 347 618 b 538 979 347 633 538 775 z "},"S":{"ha":-12,"x_min":0,"x_max":0,"o":"m 511 -169 b 978 204 794 -169 978 18 b 782 483 978 353 896 435 l 500 600 b 367 714 410 639 367 657 b 514 814 367 774 438 814 b 671 688 596 814 671 758 l 932 688 b 514 1042 932 899 744 1042 b 69 701 260 1042 69 908 b 269 408 69 544 147 460 l 556 290 b 682 176 613 267 682 228 b 514 60 682 115 610 60 b 310 217 401 60 310 124 l 28 217 b 511 -169 28 -24 233 -169 z "},"T":{"ha":-33,"x_min":0,"x_max":0,"o":"m 635 801 l 978 801 l 978 1024 l 14 1024 l 14 801 l 357 801 l 357 -151 l 635 -151 z "},"U":{"ha":58,"x_min":0,"x_max":0,"o":"m 750 1024 l 750 317 b 542 53 750 151 674 53 b 333 317 410 53 333 151 l 333 1024 l 56 1024 l 56 317 b 542 -169 56 47 226 -169 b 1028 317 857 -169 1028 47 l 1028 1024 z "},"V":{"ha":108,"x_min":0,"x_max":0,"o":"m 1133 1024 l 853 1024 l 646 443 b 567 167 611 347 593 268 b 488 443 540 268 522 346 l 281 1024 l 0 1024 l 422 -151 l 711 -151 z "},"W":{"ha":460,"x_min":0,"x_max":0,"o":"m 1471 1024 l 1182 1024 l 1072 413 b 1026 135 1056 319 1042 228 b 983 411 1014 226 999 319 l 878 1024 l 607 1024 l 501 411 b 458 135 486 319 471 226 b 413 413 443 228 429 319 l 303 1024 l 14 1024 l 250 -151 l 622 -151 l 731 483 b 742 557 735 508 739 533 l 754 483 l 863 -151 l 1235 -151 z "},"X":{"ha":68,"x_min":0,"x_max":0,"o":"m 17 1024 l 376 440 l 14 -151 l 328 -151 l 546 221 l 765 -151 l 1079 -151 l 717 440 l 1075 1024 l 761 1024 l 546 660 l 331 1024 z "},"Y":{"ha":86,"x_min":0,"x_max":0,"o":"m 694 -151 l 694 306 l 1111 1024 l 797 1024 l 556 572 l 314 1024 l 0 1024 l 417 306 l 417 -151 z "},"Z":{"ha":-72,"x_min":0,"x_max":0,"o":"m 35 -151 l 918 -151 l 918 126 b 360 36 775 54 544 36 l 911 843 l 911 1024 l 49 1024 l 49 801 l 583 801 l 35 29 z "},"[":{"ha":-490,"x_min":0,"x_max":0,"o":"m 139 -333 l 528 -333 l 528 -181 l 347 -181 l 347 1003 l 528 1003 l 528 1156 l 139 1156 z "},"\\":{"ha":-510,"x_min":0,"x_max":0,"o":"m 326 -333 l 508 -333 l 189 1156 l 7 1156 z "},"]":{"ha":-490,"x_min":0,"x_max":0,"o":"m 396 1156 l 7 1156 l 7 1003 l 188 1003 l 188 -181 l 7 -181 l 7 -333 l 396 -333 z "},"^":{"ha":-225,"x_min":0,"x_max":0,"o":"m 528 1210 l 272 1210 l 7 810 l 236 810 l 400 999 l 564 810 l 793 810 z "},"_":{"ha":-151,"x_min":0,"x_max":0,"o":"m 7 -325 l 867 -325 l 867 -168 l 7 -168 z "},"`":{"ha":-140,"x_min":0,"x_max":0,"o":"m 479 703 l 617 839 l 336 1174 l 146 985 z "},"a":{"ha":-57,"x_min":0,"x_max":0,"o":"m 383 -169 b 647 -101 490 -169 596 -139 l 647 -151 l 906 -151 l 906 443 b 481 739 906 615 721 739 b 69 471 229 739 69 621 l 69 443 l 342 443 l 342 457 b 481 539 342 504 392 539 b 633 443 572 539 633 513 l 633 424 l 425 400 b 42 86 142 368 42 261 b 383 -169 42 -81 194 -169 z m 467 363 b 722 121 472 232 593 126 b 467 -126 589 115 467 0 b 210 119 467 0 343 114 b 467 363 340 125 460 232 z "},"b":{"ha":-50,"x_min":0,"x_max":0,"o":"m 56 1024 l 56 -151 l 535 -151 b 947 294 806 -151 947 47 b 535 725 947 540 792 725 l 328 725 l 328 1024 z m 510 679 b 857 285 514 431 617 292 b 510 -108 617 278 514 150 b 163 286 504 150 401 279 b 510 679 401 293 504 431 z "},"c":{"ha":-64,"x_min":0,"x_max":0,"o":"m 647 224 l 647 182 b 481 44 647 113 583 44 b 314 224 378 44 314 124 l 314 351 b 481 531 314 451 378 531 b 647 393 583 531 647 463 l 647 365 l 919 365 l 919 407 b 481 744 919 579 757 744 b 42 365 218 744 42 596 l 42 210 b 481 -169 42 -21 218 -169 b 919 168 771 -169 919 -4 l 919 224 z "},"d":{"ha":-64,"x_min":0,"x_max":0,"o":"m 647 1024 l 647 725 l 440 725 b 28 294 183 725 28 540 b 440 -151 28 47 169 -151 l 919 -151 l 919 1024 z m 465 -129 b 118 285 465 143 364 278 b 465 679 357 292 460 431 b 813 286 469 431 572 293 b 465 -129 567 279 465 143 z "},"e":{"ha":-50,"x_min":0,"x_max":0,"o":"m 314 190 l 933 190 l 933 365 b 488 744 933 596 742 744 b 42 365 233 744 42 596 l 42 199 b 488 -171 42 -18 233 -171 b 919 88 736 -171 919 -60 l 919 128 l 647 128 l 647 101 b 488 33 647 57 588 33 b 314 185 396 33 314 85 z m 501 679 b 785 467 508 525 654 469 b 501 239 650 463 501 393 b 206 465 501 393 342 461 b 501 679 338 468 493 525 z "},"f":{"ha":-428,"x_min":0,"x_max":0,"o":"m 576 1119 l 468 1119 b 133 768 218 1119 133 957 l 133 731 l 14 731 l 14 508 l 133 508 l 133 -151 l 406 -151 l 406 508 l 583 508 l 583 731 l 406 731 l 406 776 b 508 897 406 865 447 897 l 576 897 z "},"g":{"ha":-22,"x_min":0,"x_max":0,"o":"m 501 744 b 42 365 233 744 42 582 l 42 238 b 501 -128 42 35 247 -128 b 689 -97 554 -128 654 -121 l 689 -151 b 508 -275 689 -221 614 -275 b 342 -179 406 -275 342 -237 l 342 -158 l 69 -158 l 69 -193 b 508 -489 69 -354 243 -489 b 961 -165 763 -489 961 -337 l 961 365 b 501 744 961 582 769 744 z m 501 689 b 849 310 506 431 608 315 b 501 -93 603 303 501 168 b 154 308 501 168 400 301 b 501 689 393 314 496 431 z "},"h":{"ha":-107,"x_min":0,"x_max":0,"o":"m 486 715 l 328 688 l 328 1024 l 56 1024 l 56 -151 l 328 -151 l 328 474 l 444 501 b 597 378 544 525 597 489 l 597 -151 l 869 -151 l 869 406 b 486 715 869 661 731 758 z "},"i":{"ha":-642,"x_min":0,"x_max":0,"o":"m 192 817 b 342 969 279 817 342 886 b 192 1125 342 1056 279 1125 b 42 969 103 1125 42 1056 b 192 817 42 886 103 817 z m 56 -151 l 328 -151 l 328 725 l 56 725 z "},"j":{"ha":-514,"x_min":0,"x_max":0,"o":"m 319 817 b 469 969 407 817 469 886 b 319 1125 469 1056 407 1125 b 169 969 231 1125 169 1056 b 319 817 169 886 231 817 z m 14 -489 l 135 -489 b 456 -118 388 -489 456 -318 l 456 714 l 183 714 l 183 -137 b 76 -267 183 -228 143 -267 l 14 -267 z "},"k":{"ha":-76,"x_min":0,"x_max":0,"o":"m 328 1024 l 56 1024 l 56 -151 l 328 -151 l 328 115 l 400 192 l 643 -151 l 949 -151 l 568 367 l 913 725 l 607 725 l 328 438 z "},"l":{"ha":-562,"x_min":0,"x_max":0,"o":"m 69 118 b 390 -169 69 -54 165 -169 l 463 -169 l 463 53 l 407 53 b 342 113 368 53 342 64 l 342 1024 l 69 1024 z "},"m":{"ha":394,"x_min":0,"x_max":0,"o":"m 328 679 l 328 725 l 56 725 l 56 -151 l 328 -151 l 328 469 l 424 497 b 576 372 522 526 576 483 l 576 -151 l 849 -151 l 849 400 b 843 471 849 425 846 449 l 938 496 b 1097 372 1038 521 1097 483 l 1097 -151 l 1369 -151 l 1369 400 b 944 714 1369 656 1201 763 b 763 651 889 703 822 679 b 447 710 693 722 583 743 z "},"n":{"ha":-106,"x_min":0,"x_max":0,"o":"m 486 714 l 328 683 l 328 725 l 56 725 l 56 -151 l 328 -151 l 328 469 l 444 500 b 597 372 544 526 597 483 l 597 -151 l 869 -151 l 869 400 b 486 714 869 656 731 761 z "},"o":{"ha":-36,"x_min":0,"x_max":0,"o":"m 494 744 b 42 365 213 744 42 568 l 42 208 b 494 -171 42 -8 213 -171 b 947 208 776 -171 947 -8 l 947 365 b 494 744 947 568 776 744 z m 494 682 b 842 289 499 424 601 294 b 494 -107 601 282 499 142 b 147 288 489 140 386 281 b 494 682 386 293 489 424 z "},"p":{"ha":-50,"x_min":0,"x_max":0,"o":"m 328 -490 l 328 -151 l 535 -151 b 947 279 792 -151 947 33 b 535 725 947 526 806 725 l 56 725 l 56 -490 z m 510 681 b 857 289 514 422 617 294 b 510 -108 617 282 514 140 b 163 288 504 140 401 281 b 510 681 401 293 504 422 z "},"q":{"ha":-50,"x_min":0,"x_max":0,"o":"m 919 -490 l 919 725 l 440 725 b 28 279 169 725 28 526 b 440 -151 28 33 183 -151 l 647 -151 l 647 -490 z m 465 -108 b 118 289 460 140 357 282 b 465 681 357 294 460 422 b 813 288 469 422 572 293 b 465 -108 572 281 469 140 z "},"r":{"ha":-411,"x_min":0,"x_max":0,"o":"m 328 725 l 56 725 l 56 -151 l 328 -151 l 328 250 b 564 489 351 390 446 489 l 600 489 l 600 725 l 546 725 b 328 572 429 725 358 651 z "},"s":{"ha":-144,"x_min":0,"x_max":0,"o":"m 429 -175 b 857 107 674 -185 846 -60 b 675 343 865 236 783 304 l 399 442 b 329 501 351 461 329 476 b 443 546 329 528 381 546 b 567 469 504 546 571 525 l 803 469 b 444 744 831 624 656 744 b 57 482 235 744 57 657 b 258 247 57 369 133 289 l 503 167 b 583 106 546 151 583 133 b 436 36 583 67 528 33 b 275 146 357 39 261 81 l 25 146 b 429 -175 3 -28 160 -164 z "},"t":{"ha":-433,"x_min":0,"x_max":0,"o":"m 578 71 l 515 71 b 408 200 449 71 408 110 l 408 501 l 578 501 l 578 724 l 408 724 l 408 1025 l 136 1025 l 136 724 l 14 724 l 14 501 l 136 501 l 136 219 b 457 -151 136 19 204 -151 l 578 -151 z "},"u":{"ha":-106,"x_min":0,"x_max":0,"o":"m 592 -111 l 592 -151 l 864 -151 l 864 725 l 592 725 l 592 103 l 475 72 b 322 200 375 46 322 89 l 322 725 l 50 725 l 50 172 b 433 -142 50 -83 189 -189 z "},"v":{"ha":-67,"x_min":0,"x_max":0,"o":"m 958 725 l 675 725 l 543 315 b 479 103 522 247 497 172 b 415 315 460 172 435 247 l 283 725 l 0 725 l 292 -151 l 667 -151 z "},"w":{"ha":315,"x_min":0,"x_max":0,"o":"m 1326 725 l 1053 725 l 974 314 b 929 63 958 229 943 147 l 796 725 l 544 725 l 411 63 b 367 314 397 147 382 229 l 288 725 l 14 725 l 207 -151 l 560 -151 l 653 274 b 669 361 658 299 664 329 b 688 274 675 329 682 299 l 781 -151 l 1133 -151 z "},"x":{"ha":-82,"x_min":0,"x_max":0,"o":"m 15 726 l 313 293 l 7 -151 l 308 -151 l 471 103 l 635 -151 l 936 -151 l 629 293 l 928 726 l 625 726 l 471 493 l 318 726 z "},"y":{"ha":-50,"x_min":0,"x_max":0,"o":"m 201 -490 l 465 -490 l 968 726 l 682 726 l 479 161 l 293 726 l 7 726 l 342 -153 z "},"z":{"ha":-253,"x_min":0,"x_max":0,"o":"m 14 -151 l 758 -151 l 758 126 b 326 39 643 68 482 46 l 738 546 l 738 726 l 49 726 l 49 504 l 403 504 l 14 29 z "},"{":{"ha":-472,"x_min":0,"x_max":0,"o":"m 546 -333 l 546 -181 l 514 -181 b 421 -65 453 -181 421 -143 l 421 193 b 276 410 421 331 369 389 b 421 628 369 433 421 490 l 421 888 b 514 1003 421 965 453 1003 l 546 1003 l 546 1156 l 426 1156 b 193 922 279 1156 192 1079 l 194 626 b 56 493 194 563 172 496 l 56 329 b 194 196 172 326 194 260 l 193 -101 b 426 -333 192 -257 279 -333 z "},"|":{"ha":-428,"x_min":0,"x_max":0,"o":"m 208 -489 l 389 -489 l 389 1222 l 208 1222 z "},"}":{"ha":-472,"x_min":0,"x_max":0,"o":"m 126 -333 b 360 -101 274 -333 361 -257 l 358 196 b 497 329 358 260 381 326 l 497 493 b 358 626 381 496 358 563 l 360 922 b 126 1156 361 1079 274 1156 l 7 1156 l 7 1003 l 39 1003 b 132 888 100 1003 132 965 l 132 628 b 275 410 132 490 183 433 b 132 193 183 389 132 331 l 132 -65 b 39 -181 132 -143 100 -181 l 7 -181 l 7 -333 z "},"~":{"ha":-139,"x_min":0,"x_max":0,"o":"m 604 285 b 844 522 703 292 782 383 l 728 603 b 603 513 692 554 649 513 b 522 543 579 513 549 529 l 414 597 b 288 629 378 615 338 631 b 42 393 199 626 94 532 l 157 311 b 286 407 193 363 236 407 b 379 375 315 407 349 390 l 508 307 b 604 285 538 293 571 282 z "},"₩":{"ha":265,"x_min":0,"x_max":0,"o":"m 1286 972 l 1032 972 l 965 575 l 826 575 l 764 972 l 526 972 l 463 575 l 324 575 l 258 972 l 4 972 l 78 575 l 7 575 l 7 479 l 96 479 l 211 -144 l 539 -144 l 635 460 b 638 479 635 465 636 472 l 653 479 b 656 460 653 472 654 465 l 750 -144 l 1078 -144 l 1194 479 l 1285 479 l 1285 575 l 1213 575 z m 394 128 b 354 392 382 217 369 303 l 339 479 l 447 479 l 433 390 b 394 128 419 303 406 215 z m 894 128 b 857 390 883 215 871 303 l 842 479 l 949 479 l 935 392 z "},"©":{"ha":72,"x_min":0,"x_max":0,"o":"m 549 -92 b 1076 436 840 -92 1076 144 b 549 963 1076 726 840 963 b 21 436 257 963 21 726 b 549 -92 21 144 257 -92 z m 88 436 b 549 896 88 681 296 896 b 1010 436 803 896 1010 681 b 549 -26 1010 190 803 -26 b 88 436 296 -26 88 190 z m 651 397 l 651 372 b 549 286 651 328 613 286 b 446 397 486 286 446 336 l 446 476 b 549 585 446 538 486 585 b 651 500 613 585 651 543 l 651 483 l 818 483 l 818 511 b 549 717 818 615 719 717 b 279 483 388 717 279 624 l 279 389 b 549 154 279 247 388 154 b 818 361 726 154 818 256 l 818 397 z "},"　":{"ha":0,"x_min":0,"x_max":0,"o":""},"ㅤ":{"ha":0,"x_min":0,"x_max":0,"o":""},"、":{"ha":0,"x_min":0,"x_max":0,"o":"m 547 -21 b 194 294 486 57 306 228 l 46 157 b 368 -175 142 72 286 -75 z "},"。":{"ha":0,"x_min":0,"x_max":0,"o":"m 268 306 b 36 74 140 306 36 201 b 268 -158 36 -54 140 -158 b 500 74 397 -158 500 -54 b 268 306 500 201 397 306 z m 268 239 b 464 74 271 135 329 78 b 268 -90 329 71 271 18 b 74 75 265 18 208 72 b 268 239 208 78 265 135 z "},"·":{"ha":-178,"x_min":0,"x_max":0,"o":"m 421 276 b 578 431 513 276 578 343 b 421 588 578 521 513 588 b 264 431 328 588 264 521 b 421 276 264 343 328 276 z "},"・":{"ha":-178,"x_min":0,"x_max":0,"o":"m 421 276 b 578 431 513 276 578 343 b 421 588 578 521 513 588 b 264 431 328 588 264 521 b 421 276 264 343 328 276 z "},"‥":{"ha":-92,"x_min":0,"x_max":0,"o":"m 233 303 b 390 457 325 303 390 369 b 233 614 390 547 325 614 b 76 457 140 614 76 547 b 233 303 76 369 140 303 z m 700 303 b 857 457 792 303 857 369 b 700 614 857 547 792 614 b 543 457 607 614 543 547 b 700 303 543 369 607 303 z "},"…":{"ha":375,"x_min":0,"x_max":0,"o":"m 233 303 b 390 457 325 303 390 369 b 233 614 390 547 325 614 b 76 457 140 614 76 547 b 233 303 76 369 140 303 z m 700 303 b 857 457 792 303 857 369 b 700 614 857 547 792 614 b 543 457 607 614 543 547 b 700 303 543 369 607 303 z m 1167 303 b 1324 457 1258 303 1324 369 b 1167 614 1324 547 1258 614 b 1010 457 1074 614 1010 547 b 1167 303 1010 369 1074 303 z "},"⋯":{"ha":375,"x_min":0,"x_max":0,"o":"m 233 303 b 390 457 325 303 390 369 b 233 614 390 547 325 614 b 76 457 140 614 76 547 b 233 303 76 369 140 303 z m 700 303 b 857 457 792 303 857 369 b 700 614 857 547 792 614 b 543 457 607 614 543 547 b 700 303 543 369 607 303 z m 1167 303 b 1324 457 1258 303 1324 369 b 1167 614 1324 547 1258 614 b 1010 457 1074 614 1010 547 b 1167 303 1010 369 1074 303 z "},"¨":{"ha":-140,"x_min":0,"x_max":0,"o":"m 267 831 b 385 949 336 831 385 883 b 267 1067 385 1015 336 1067 b 149 949 197 1067 149 1015 b 267 831 149 883 197 831 z m 618 831 b 736 949 688 831 736 883 b 618 1067 736 1015 688 1067 b 500 949 549 1067 500 1015 b 618 831 500 883 549 831 z "},"〃":{"ha":0,"x_min":0,"x_max":0,"o":"m 736 256 l 894 256 l 999 667 l 736 667 z m 403 256 l 561 256 l 665 667 l 403 667 z "},"­":{"ha":-179,"x_min":0,"x_max":0,"o":"m 56 331 l 790 331 l 790 553 l 56 553 z "},"–":{"ha":-179,"x_min":0,"x_max":0,"o":"m 56 331 l 790 331 l 790 553 l 56 553 z "},"—":{"ha":0,"x_min":0,"x_max":0,"o":"m 56 521 l 56 396 l 1236 396 l 1236 521 z "},"―":{"ha":0,"x_min":0,"x_max":0,"o":"m 56 521 l 56 396 l 1236 396 l 1236 521 z "},"∥":{"ha":128,"x_min":0,"x_max":0,"o":"m 208 -151 l 431 -151 l 431 1024 l 208 1024 z m 722 -151 l 944 -151 l 944 1024 l 722 1024 z "},"＼":{"ha":0,"x_min":0,"x_max":0,"o":"m 714 -333 l 896 -333 l 576 1156 l 394 1156 z "},"∼":{"ha":0,"x_min":0,"x_max":0,"o":"m 807 285 b 1047 522 906 292 985 383 l 931 603 b 806 513 894 554 851 513 b 725 543 782 513 751 529 l 617 597 b 490 629 581 615 540 631 b 244 393 401 626 297 532 l 360 311 b 489 407 396 363 439 407 b 582 375 518 407 551 390 l 711 307 b 807 285 740 293 774 282 z "},"〜":{"ha":0,"x_min":0,"x_max":0,"o":"m 807 285 b 1047 522 906 292 985 383 l 931 603 b 806 513 894 554 851 513 b 725 543 782 513 751 529 l 617 597 b 490 629 581 615 540 631 b 244 393 401 626 297 532 l 360 311 b 489 407 396 363 439 407 b 582 375 518 407 551 390 l 711 307 b 807 285 740 293 774 282 z "},"～":{"ha":0,"x_min":0,"x_max":0,"o":"m 807 285 b 1047 522 906 292 985 383 l 931 603 b 806 513 894 554 851 513 b 725 543 782 513 751 529 l 617 597 b 490 629 581 615 540 631 b 244 393 401 626 297 532 l 360 311 b 489 407 396 363 439 407 b 582 375 518 407 551 390 l 711 307 b 807 285 740 293 774 282 z "},"‘":{"ha":-537,"x_min":0,"x_max":0,"o":"m 97 778 b 254 614 104 688 163 614 b 411 771 347 614 411 681 b 300 913 411 843 368 896 b 418 1021 313 968 346 1000 l 418 1125 b 97 778 228 1111 83 951 z "},"’":{"ha":-537,"x_min":0,"x_max":0,"o":"m 390 947 b 233 1111 383 1038 325 1111 b 76 954 140 1111 76 1044 b 188 813 76 882 119 829 b 69 704 175 757 142 725 l 69 600 b 390 947 260 614 404 774 z "},"“":{"ha":-149,"x_min":0,"x_max":0,"o":"m 517 778 b 665 614 519 688 579 614 b 815 771 754 614 815 681 b 710 913 815 843 774 896 b 821 1021 721 968 753 1000 l 821 1125 b 517 778 640 1111 513 957 z m 324 614 b 472 771 413 614 472 681 b 367 913 472 843 431 896 b 479 1021 378 968 411 1000 l 479 1125 b 175 778 297 1111 171 954 b 324 614 178 688 236 614 z "},"”":{"ha":-149,"x_min":0,"x_max":0,"o":"m 360 947 b 211 1111 357 1038 297 1111 b 61 954 122 1111 61 1044 b 167 813 61 882 103 829 b 56 704 156 757 124 725 l 56 600 b 360 947 236 614 364 768 z m 553 1111 b 404 954 464 1111 404 1044 b 510 813 404 882 446 829 b 397 704 499 757 465 725 l 397 600 b 701 947 579 614 706 771 b 553 1111 699 1038 640 1111 z "},"〔":{"ha":0,"x_min":0,"x_max":0,"o":"m 833 -139 l 1222 -278 l 1222 -56 l 1042 14 l 1042 864 l 1222 933 l 1222 1156 l 833 1017 z "},"〕":{"ha":0,"x_min":0,"x_max":0,"o":"m 458 -139 l 458 1017 l 69 1156 l 69 933 l 250 864 l 250 14 l 69 -56 l 69 -278 z "},"〈":{"ha":0,"x_min":0,"x_max":0,"o":"m 1049 435 l 1292 1021 l 1111 1021 l 854 435 l 1111 -151 l 1292 -151 z "},"〉":{"ha":0,"x_min":0,"x_max":0,"o":"m 243 435 l 0 -151 l 181 -151 l 438 435 l 181 1021 l 0 1021 z "},"《":{"ha":0,"x_min":0,"x_max":0,"o":"m 1049 435 l 1292 1021 l 1111 1021 l 854 435 l 1111 -151 l 1292 -151 z m 771 435 l 1014 1021 l 833 1021 l 576 435 l 833 -151 l 1014 -151 z "},"》":{"ha":0,"x_min":0,"x_max":0,"o":"m 243 435 l 0 -151 l 181 -151 l 438 435 l 181 1021 l 0 1021 z m 521 435 l 278 -151 l 458 -151 l 715 435 l 458 1021 l 278 1021 z "},"「":{"ha":0,"x_min":0,"x_max":0,"o":"m 819 447 l 1018 447 l 1018 913 l 1292 913 l 1292 1093 l 819 1093 z "},"」":{"ha":0,"x_min":0,"x_max":0,"o":"m 472 425 l 274 425 l 274 -40 l 0 -40 l 0 -221 l 472 -221 z "},"『":{"ha":0,"x_min":0,"x_max":0,"o":"m 1306 844 l 1306 1108 l 785 1108 l 785 433 l 1069 433 l 1069 844 z m 1236 1039 l 1236 914 l 1000 914 l 1000 503 l 854 503 l 854 1039 z "},"』":{"ha":0,"x_min":0,"x_max":0,"o":"m -14 31 l -14 -233 l 507 -233 l 507 440 l 222 440 l 222 31 z m 56 -164 l 56 -39 l 292 -39 l 292 371 l 438 371 l 438 -164 z "},"【":{"ha":0,"x_min":0,"x_max":0,"o":"m 850 1100 l 850 -278 l 1292 -278 l 1292 -271 b 1017 411 1140 -140 1017 124 b 1292 1093 1017 699 1140 963 l 1292 1100 z "},"】":{"ha":0,"x_min":0,"x_max":0,"o":"m 444 -278 l 444 1100 l 3 1100 l 3 1093 b 278 411 154 963 278 699 b 3 -271 278 124 154 -140 l 3 -278 z "},"±":{"ha":-147,"x_min":0,"x_max":0,"o":"m 321 943 l 321 697 l 69 697 l 69 506 l 321 506 l 321 260 l 557 260 l 557 506 l 808 506 l 808 697 l 557 697 l 557 943 z m 69 190 l 69 -1 l 808 -1 l 808 190 z "},"×":{"ha":-78,"x_min":0,"x_max":0,"o":"m 733 860 l 474 603 l 214 860 l 61 715 l 324 456 l 61 196 l 214 51 l 474 308 l 733 51 l 886 196 l 624 456 l 886 715 z "},"÷":{"ha":-92,"x_min":0,"x_max":0,"o":"m 318 733 b 469 582 318 643 379 582 b 621 733 560 582 621 643 b 469 885 621 824 560 885 b 318 733 379 885 318 824 z m 69 551 l 69 346 l 864 346 l 864 551 z m 318 164 b 469 13 318 74 379 13 b 621 164 560 13 621 74 b 469 315 621 254 560 315 b 318 164 379 315 318 254 z "},"≠":{"ha":0,"x_min":0,"x_max":0,"o":"m 1076 529 l 1076 710 l 839 710 l 904 888 l 719 944 l 635 710 l 215 710 l 215 529 l 564 529 l 521 390 l 215 390 l 215 210 l 453 210 l 388 32 l 572 -25 l 657 210 l 1076 210 l 1076 390 l 726 390 l 769 529 z "},"≤":{"ha":0,"x_min":0,"x_max":0,"o":"m 1060 825 l 1060 1008 l 232 661 l 232 532 l 1060 171 l 1060 354 l 467 590 z m 190 50 l 190 -103 l 1101 -103 l 1101 50 z "},"≥":{"ha":0,"x_min":0,"x_max":0,"o":"m 232 825 l 825 590 l 232 354 l 232 171 l 1060 532 l 1060 661 l 232 1008 z m 1101 50 l 190 50 l 190 -103 l 1101 -103 z "},"∞":{"ha":0,"x_min":0,"x_max":0,"o":"m 647 626 b 338 815 565 733 479 815 b 76 488 214 815 76 706 b 338 161 76 271 214 161 b 647 350 479 161 565 243 b 956 161 731 243 815 161 b 1217 488 1079 161 1217 271 b 956 815 1217 706 1079 815 b 647 626 815 815 731 733 z m 251 488 b 363 632 251 574 297 632 b 550 488 464 632 492 567 b 363 343 492 408 464 343 b 251 488 297 343 251 403 z m 744 488 b 932 632 804 567 829 632 b 1042 488 996 632 1042 574 b 932 343 1042 403 996 343 b 744 488 829 343 804 408 z "},"∴":{"ha":0,"x_min":0,"x_max":0,"o":"m 646 642 b 807 800 740 642 807 710 b 646 961 807 893 740 961 b 485 800 550 961 485 893 b 646 642 485 710 550 642 z m 289 0 b 450 158 383 0 450 68 b 289 319 450 251 383 319 b 128 158 194 319 128 251 b 289 0 128 68 194 0 z m 1003 0 b 1164 158 1096 0 1164 68 b 1003 319 1164 251 1096 319 b 842 158 907 319 842 251 b 1003 0 842 68 907 0 z "},"°":{"ha":-437,"x_min":0,"x_max":0,"o":"m 293 624 b 528 857 425 624 528 722 b 293 1090 528 992 425 1090 b 58 857 161 1090 58 992 b 293 624 58 722 161 624 z m 293 1057 b 471 856 296 925 347 858 b 293 653 347 851 296 781 b 115 854 290 779 238 851 b 293 1057 238 857 290 925 z "},"′":{"ha":-537,"x_min":0,"x_max":0,"o":"m 111 700 l 293 700 l 394 1111 l 111 1111 z "},"″":{"ha":-149,"x_min":0,"x_max":0,"o":"m 415 700 l 589 700 l 679 1111 l 417 1111 z m 110 700 l 283 700 l 374 1111 l 111 1111 z "},"℃":{"ha":0,"x_min":0,"x_max":0,"o":"m 232 629 b 443 863 351 629 443 728 b 232 1096 443 997 351 1096 b 21 863 114 1096 21 997 b 232 629 21 728 114 629 z m 232 747 b 138 863 176 747 138 794 b 232 978 138 931 176 978 b 328 863 289 978 328 931 b 232 747 328 794 289 747 z m 1049 272 l 1049 222 b 860 47 1049 106 979 47 b 672 247 742 47 672 118 l 672 536 b 860 736 672 665 742 736 b 1049 561 979 736 1049 678 l 1049 524 l 1276 524 l 1276 574 b 860 936 1276 797 1108 936 b 444 549 613 936 444 785 l 444 235 b 860 -153 444 -1 613 -153 b 1276 210 1108 -153 1276 -14 l 1276 272 z "},"Å":{"ha":150,"x_min":0,"x_max":0,"o":"m 864 -151 l 1161 -151 l 747 967 b 828 1128 796 1004 828 1061 b 593 1338 828 1249 725 1338 b 358 1128 461 1338 358 1249 b 431 974 358 1065 386 1011 l 14 -151 l 311 -151 l 390 68 l 785 68 z m 488 1128 b 593 1232 488 1189 531 1232 b 700 1128 657 1232 700 1189 b 603 1024 700 1069 661 1028 l 583 1024 b 488 1128 526 1028 488 1069 z m 842 515 b 588 131 650 515 590 325 b 333 515 585 325 524 515 b 588 897 524 515 585 692 b 842 515 590 692 650 515 z "},"¢":{"ha":0,"x_min":0,"x_max":0,"o":"m 663 -490 l 686 -168 b 1085 168 950 -154 1085 4 l 1085 224 l 813 224 l 813 182 b 703 51 813 126 772 71 l 736 510 b 813 393 785 485 813 439 l 813 365 l 1085 365 l 1085 407 b 753 736 1085 556 964 700 l 774 1024 l 640 1024 l 619 744 b 207 365 371 735 207 588 l 207 210 b 553 -162 207 7 342 -132 l 529 -490 z m 569 61 b 479 224 513 90 479 151 l 479 351 b 604 526 479 438 526 508 z "},"￠":{"ha":0,"x_min":0,"x_max":0,"o":"m 663 -490 l 686 -168 b 1085 168 950 -154 1085 4 l 1085 224 l 813 224 l 813 182 b 703 51 813 126 772 71 l 736 510 b 813 393 785 485 813 439 l 813 365 l 1085 365 l 1085 407 b 753 736 1085 556 964 700 l 774 1024 l 640 1024 l 619 744 b 207 365 371 735 207 588 l 207 210 b 553 -162 207 7 342 -132 l 529 -490 z m 569 61 b 479 224 513 90 479 151 l 479 351 b 604 526 479 438 526 508 z "},"£":{"ha":0,"x_min":0,"x_max":0,"o":"m 531 68 b 614 289 588 135 614 211 b 611 356 614 306 613 336 l 906 356 l 906 475 l 571 475 b 549 619 558 521 549 576 b 753 785 549 726 631 785 b 943 690 825 785 889 754 l 1085 832 b 725 989 997 939 879 989 b 292 635 476 989 292 856 b 325 468 292 589 308 519 l 194 468 l 194 356 l 378 356 b 382 290 381 336 382 307 b 186 19 382 168 293 67 l 186 -144 l 1085 -144 l 1085 61 l 531 61 z "},"￡":{"ha":0,"x_min":0,"x_max":0,"o":"m 531 68 b 614 289 588 135 614 211 b 611 356 614 306 613 336 l 906 356 l 906 475 l 571 475 b 549 619 558 521 549 576 b 753 785 549 726 631 785 b 943 690 825 785 889 754 l 1085 832 b 725 989 997 939 879 989 b 292 635 476 989 292 856 b 325 468 292 589 308 519 l 194 468 l 194 356 l 378 356 b 382 290 381 336 382 307 b 186 19 382 168 293 67 l 186 -144 l 1085 -144 l 1085 61 l 531 61 z "},"¥":{"ha":0,"x_min":0,"x_max":0,"o":"m 235 406 l 446 406 l 494 322 l 235 322 l 235 203 l 514 203 l 514 -144 l 778 -144 l 778 203 l 1056 203 l 1056 322 l 796 322 l 844 406 l 1056 406 l 1056 525 l 914 525 l 1174 972 l 875 972 l 646 543 l 417 972 l 118 972 l 376 525 l 235 525 z "},"￥":{"ha":0,"x_min":0,"x_max":0,"o":"m 235 406 l 446 406 l 494 322 l 235 322 l 235 203 l 514 203 l 514 -144 l 778 -144 l 778 203 l 1056 203 l 1056 322 l 796 322 l 844 406 l 1056 406 l 1056 525 l 914 525 l 1174 972 l 875 972 l 646 543 l 417 972 l 118 972 l 376 525 l 235 525 z "},"♂":{"ha":0,"x_min":0,"x_max":0,"o":"m 813 242 b 751 422 813 308 783 369 l 989 671 l 989 456 l 1150 456 l 1150 940 l 651 940 l 651 779 l 869 779 l 639 536 b 451 589 588 568 514 589 b 89 242 243 589 89 435 b 451 -107 89 47 243 -107 b 813 242 658 -107 813 47 z m 263 242 b 451 415 263 338 342 415 b 639 242 561 415 639 338 b 451 67 639 146 561 67 b 263 242 342 67 263 146 z "},"♀":{"ha":0,"x_min":0,"x_max":0,"o":"m 644 1047 b 288 714 431 1047 288 899 b 567 394 288 558 389 417 l 567 269 l 240 269 l 240 103 l 567 103 l 567 -175 l 725 -175 l 725 103 l 1051 103 l 1051 269 l 725 269 l 725 394 b 1003 714 903 417 1003 558 b 644 1047 1003 899 861 1047 z m 461 714 b 646 894 461 806 519 894 b 831 714 774 894 831 806 b 644 533 831 622 772 533 b 461 714 518 533 461 622 z "},"∠":{"ha":0,"x_min":0,"x_max":0,"o":"m 475 143 l 1132 882 l 986 1028 l 81 -22 l 81 -56 l 1189 -56 l 1189 139 l 475 139 z "},"⊥":{"ha":0,"x_min":0,"x_max":0,"o":"m 771 176 l 771 896 l 521 896 l 521 176 l 61 176 l 61 -32 l 1231 -32 l 1231 176 z "},"⌒":{"ha":0,"x_min":0,"x_max":0,"o":"m 124 983 l 124 781 b 646 928 264 881 397 928 b 1168 781 894 928 1028 881 l 1168 983 b 646 1117 1074 1054 929 1117 b 124 983 363 1117 218 1054 z "},"∂":{"ha":0,"x_min":0,"x_max":0,"o":"m 919 590 b 921 499 922 565 925 535 l 918 497 b 590 608 821 586 721 619 b 193 192 379 590 171 428 b 650 -129 213 -10 379 -151 b 1169 597 1083 -94 1193 347 b 693 1006 1143 889 924 1008 b 350 921 543 1004 447 978 l 350 715 b 676 797 400 756 578 800 b 919 590 822 792 907 744 z m 433 225 b 629 408 421 358 525 400 b 868 289 718 417 806 407 b 635 90 840 172 786 104 b 433 225 532 82 444 111 z "},"∇":{"ha":0,"x_min":0,"x_max":0,"o":"m 490 -85 l 801 -85 l 1211 799 l 1211 949 l 81 949 l 81 799 z m 643 103 l 636 103 l 356 740 l 929 740 z "},"≡":{"ha":0,"x_min":0,"x_max":0,"o":"m 215 842 l 215 647 l 1076 647 l 1076 842 z m 215 564 l 215 369 l 1076 369 l 1076 564 z m 215 286 l 215 92 l 1076 92 l 1076 286 z "},"≒":{"ha":0,"x_min":0,"x_max":0,"o":"m 457 708 b 614 863 549 708 614 775 b 457 1019 614 953 549 1019 b 300 863 364 1019 300 953 b 457 708 300 775 364 708 z m 215 661 l 215 508 l 1076 508 l 1076 661 z m 215 411 l 215 258 l 1076 258 l 1076 411 z m 831 -100 b 988 54 922 -100 988 -33 b 831 211 988 144 922 211 b 674 54 738 211 674 144 b 831 -100 674 -33 738 -100 z "},"§":{"ha":0,"x_min":0,"x_max":0,"o":"m 967 993 b 690 1039 892 1026 781 1039 b 339 796 492 1039 339 958 b 403 642 339 735 371 669 b 274 446 317 599 274 517 b 589 142 274 286 422 194 b 747 44 704 106 747 92 b 617 -14 747 -6 699 -14 b 296 74 518 -14 372 19 l 296 -108 b 622 -176 382 -161 528 -176 b 976 68 772 -176 976 -126 b 907 228 976 140 936 206 b 1017 438 972 274 1017 353 b 714 719 1017 603 886 667 b 560 818 603 754 560 774 b 690 876 560 861 599 876 b 967 806 785 876 900 843 z m 547 572 b 811 414 638 539 811 492 b 756 294 811 382 782 310 b 599 347 721 304 671 321 b 465 478 507 379 465 431 b 547 572 465 514 517 557 z "},"※":{"ha":0,"x_min":0,"x_max":0,"o":"m 644 692 b 811 857 742 692 811 763 b 644 1024 811 953 742 1024 b 478 857 546 1024 478 953 b 644 692 478 763 546 692 z m 154 965 l 111 924 l 600 435 l 110 -56 l 153 -99 l 643 392 l 1131 -97 l 1174 -54 l 686 435 l 1174 924 l 1131 965 l 643 478 z m 224 268 b 392 432 322 268 392 339 b 224 599 392 528 322 599 b 57 432 125 599 57 528 b 224 268 57 339 125 268 z m 1068 268 b 1235 432 1165 268 1235 339 b 1068 599 1235 528 1165 599 b 900 432 968 599 900 528 b 1068 268 900 339 968 268 z m 644 -151 b 811 13 742 -151 811 -81 b 644 181 811 110 742 181 b 478 13 546 181 478 110 b 644 -151 478 -81 546 -151 z "},"☆":{"ha":0,"x_min":0,"x_max":0,"o":"m 489 597 l 6 597 l 1 583 l 394 299 l 238 -175 l 249 -183 l 646 114 l 1043 -183 l 1054 -175 l 897 299 l 1290 583 l 1286 597 l 803 597 l 653 1072 l 639 1072 z m 536 531 l 644 899 l 647 899 l 756 531 l 1126 542 l 1126 539 l 818 325 l 950 -37 l 947 -40 l 646 197 l 344 -40 l 342 -37 l 474 325 l 165 539 l 165 542 z "},"★":{"ha":0,"x_min":0,"x_max":0,"o":"m 803 607 l 650 1086 l 642 1086 l 489 607 l 4 607 l 4 597 l 394 304 l 240 -178 l 247 -182 l 646 117 l 1044 -182 l 1051 -178 l 897 304 l 1288 597 l 1288 607 z "},"○":{"ha":0,"x_min":0,"x_max":0,"o":"m 646 -189 b 1271 436 992 -189 1271 90 b 646 1061 1271 782 992 1061 b 21 436 300 1061 21 782 b 646 -189 21 90 300 -189 z m 88 436 b 646 994 88 744 338 994 b 1204 436 954 994 1204 744 b 646 -122 1204 128 954 -122 b 88 436 338 -122 88 128 z "},"●":{"ha":0,"x_min":0,"x_max":0,"o":"m 646 -189 b 1271 436 992 -189 1271 90 b 646 1061 1271 782 992 1061 b 21 436 300 1061 21 782 b 646 -189 21 90 300 -189 z "},"◎":{"ha":0,"x_min":0,"x_max":0,"o":"m 21 436 b 646 -189 21 90 300 -189 b 1271 436 992 -189 1271 90 b 646 1061 1271 782 992 1061 b 21 436 300 1061 21 782 z m 1204 436 b 646 -122 1204 128 954 -122 b 88 436 338 -122 88 128 b 646 994 88 744 338 994 b 1204 436 954 994 1204 744 z m 208 436 b 646 -1 208 194 404 -1 b 1083 436 888 -1 1083 194 b 646 875 1083 679 888 875 b 208 436 404 875 208 679 z m 1022 436 b 646 60 1022 229 854 60 b 269 436 438 60 269 229 b 646 814 269 644 438 814 b 1022 436 854 814 1022 644 z "},"◇":{"ha":0,"x_min":0,"x_max":0,"o":"m 646 1114 l -32 436 l 646 -242 l 1324 436 z m 646 1019 l 1229 436 l 646 -147 l 63 436 z "},"◆":{"ha":0,"x_min":0,"x_max":0,"o":"m 646 1114 l -32 436 l 646 -242 l 1324 436 z "},"□":{"ha":0,"x_min":0,"x_max":0,"o":"m 58 1024 l 58 -151 l 1233 -151 l 1233 1024 z m 129 953 l 1163 953 l 1163 -81 l 129 -81 z "},"■":{"ha":0,"x_min":0,"x_max":0,"o":"m 57 1024 l 57 -151 l 1235 -151 l 1235 1024 z "},"△":{"ha":0,"x_min":0,"x_max":0,"o":"m 646 1024 l -32 -151 l 1324 -151 z m 646 885 l 1204 -82 l 88 -82 z "},"▲":{"ha":0,"x_min":0,"x_max":0,"o":"m 646 1024 l -32 -151 l 1324 -151 z "},"▽":{"ha":0,"x_min":0,"x_max":0,"o":"m 646 -151 l 1324 1024 l -32 1024 z m 646 -12 l 88 954 l 1204 954 z "},"▼":{"ha":0,"x_min":0,"x_max":0,"o":"m 646 -151 l 1324 1024 l -32 1024 z "},"→":{"ha":0,"x_min":0,"x_max":0,"o":"m 63 375 l 910 375 l 764 260 l 871 124 l 1236 458 l 871 793 l 764 657 l 910 542 l 63 542 z "},"←":{"ha":0,"x_min":0,"x_max":0,"o":"m 1229 375 l 1229 542 l 382 542 l 528 657 l 421 793 l 56 458 l 421 124 l 528 260 l 382 375 z "},"↑":{"ha":0,"x_min":0,"x_max":0,"o":"m 563 -129 l 729 -129 l 729 718 l 844 572 l 981 679 l 646 1044 l 311 679 l 447 572 l 563 718 z "},"↓":{"ha":0,"x_min":0,"x_max":0,"o":"m 729 1017 l 563 1017 l 563 169 l 447 315 l 311 208 l 646 -157 l 981 208 l 844 315 l 729 169 z "},"↔":{"ha":0,"x_min":0,"x_max":0,"o":"m 14 458 l 379 124 l 486 260 l 340 375 l 951 375 l 806 260 l 913 124 l 1278 458 l 913 793 l 806 657 l 951 542 l 340 542 l 486 657 l 379 793 z "},"〓":{"ha":0,"x_min":0,"x_max":0,"o":"m 1146 931 l 146 931 l 146 569 l 1146 569 z m 1146 347 l 146 347 l 146 -14 l 1146 -14 z "},"«":{"ha":0,"x_min":0,"x_max":0,"o":"m 713 825 l 713 1008 l 163 481 l 163 421 l 713 -107 l 713 76 l 328 451 z m 1129 825 l 1129 1008 l 579 481 l 579 421 l 1129 -107 l 1129 76 l 744 451 z "},"≪":{"ha":0,"x_min":0,"x_max":0,"o":"m 713 825 l 713 1008 l 163 481 l 163 421 l 713 -107 l 713 76 l 328 451 z m 1129 825 l 1129 1008 l 579 481 l 579 421 l 1129 -107 l 1129 76 l 744 451 z "},"»":{"ha":0,"x_min":0,"x_max":0,"o":"m 579 825 l 964 451 l 579 76 l 579 -107 l 1129 421 l 1129 481 l 579 1008 z m 163 825 l 547 451 l 163 76 l 163 -107 l 713 421 l 713 481 l 163 1008 z "},"≫":{"ha":0,"x_min":0,"x_max":0,"o":"m 579 825 l 964 451 l 579 76 l 579 -107 l 1129 421 l 1129 481 l 579 1008 z m 163 825 l 547 451 l 163 76 l 163 -107 l 713 421 l 713 481 l 163 1008 z "},"√":{"ha":0,"x_min":0,"x_max":0,"o":"m 714 1157 l 382 171 l 222 507 l 0 254 l 39 224 l 89 288 l 300 -146 l 344 -146 l 764 1088 l 1340 1088 l 1340 1157 z "},"∽":{"ha":0,"x_min":0,"x_max":0,"o":"m 572 519 b 389 328 507 422 465 328 b 288 460 329 328 288 382 b 394 578 288 539 328 578 b 481 565 419 578 463 574 l 481 733 b 369 758 449 750 411 758 b 83 460 250 758 83 660 b 364 161 83 261 197 178 b 722 413 549 143 636 285 b 906 592 788 510 829 592 b 1007 460 965 592 1007 538 b 900 342 1007 381 967 342 b 813 354 874 342 831 346 l 813 186 b 925 161 846 169 883 161 b 1211 460 1044 161 1211 260 b 931 758 1211 658 1097 743 b 572 519 732 776 657 647 z "},"∝":{"ha":0,"x_min":0,"x_max":0,"o":"m 818 492 b 1035 638 868 571 925 638 b 1189 624 1085 638 1168 632 l 1189 793 b 1058 821 1150 813 1107 821 b 713 631 908 821 803 739 b 393 821 624 739 544 821 b 99 492 260 821 99 711 b 393 161 99 272 260 161 b 713 351 544 161 624 244 b 1058 161 803 244 908 161 b 1189 189 1107 161 1150 171 l 1189 360 b 1035 346 1168 350 1085 346 b 818 492 925 346 868 397 z m 285 492 b 417 638 285 578 347 638 b 608 492 526 638 544 571 b 417 346 544 411 526 346 b 285 492 347 346 285 406 z "},"∵":{"ha":0,"x_min":0,"x_max":0,"o":"m 289 961 b 128 803 194 961 128 893 b 289 642 128 710 194 642 b 450 803 383 642 450 710 b 289 961 450 893 383 961 z m 1003 961 b 842 803 907 961 842 893 b 1003 642 842 710 907 642 b 1164 803 1096 642 1164 710 b 1003 961 1164 893 1096 961 z m 646 319 b 485 161 550 319 485 251 b 646 0 485 68 550 0 b 807 161 740 0 807 68 b 646 319 807 251 740 319 z "},"∫":{"ha":0,"x_min":0,"x_max":0,"o":"m 464 -79 b 335 -293 439 -237 419 -293 b 246 -286 314 -293 272 -292 l 246 -479 b 358 -490 281 -486 319 -490 b 718 -122 513 -490 672 -414 l 839 651 b 968 865 864 810 883 865 b 1058 858 990 865 1032 864 l 1058 1051 b 946 1063 1022 1058 983 1063 b 585 694 792 1063 631 986 z "},"∬":{"ha":0,"x_min":0,"x_max":0,"o":"m 269 -79 b 140 -293 256 -237 225 -293 b 51 -286 119 -293 78 -292 l 51 -479 b 164 -490 86 -486 125 -490 b 524 -122 318 -490 499 -415 l 589 651 b 718 865 603 810 633 865 b 808 858 740 865 782 864 l 808 1051 b 696 1063 772 1058 733 1063 b 335 694 542 1063 360 988 z m 714 -79 b 585 -293 700 -237 669 -293 b 496 -286 564 -293 522 -292 l 496 -479 b 608 -490 531 -486 569 -490 b 968 -122 763 -490 943 -415 l 1033 651 b 1163 865 1047 810 1078 865 b 1253 858 1185 865 1226 864 l 1253 1051 b 1140 1063 1217 1058 1178 1063 b 779 694 986 1063 804 988 z "},"∈":{"ha":0,"x_min":0,"x_max":0,"o":"m 1140 711 l 1140 919 l 599 919 b 138 460 272 919 138 756 b 599 0 138 164 272 0 l 1140 0 l 1140 208 l 599 208 b 386 363 436 208 381 260 l 1140 363 l 1140 557 l 386 557 b 599 711 381 660 436 711 z "},"∋":{"ha":0,"x_min":0,"x_max":0,"o":"m 151 711 l 693 711 b 906 557 856 711 911 660 l 151 557 l 151 363 l 906 363 b 693 208 911 260 856 208 l 151 208 l 151 0 l 693 0 b 1154 460 1019 0 1154 164 b 693 919 1154 756 1019 919 l 151 919 z "},"⊆":{"ha":0,"x_min":0,"x_max":0,"o":"m 619 236 l 1147 236 l 1147 403 l 619 403 b 339 619 440 403 339 500 b 619 836 339 739 440 836 l 1147 836 l 1147 1003 l 619 1003 b 144 619 307 1003 144 860 b 619 236 144 379 307 236 z m 232 64 l 232 -103 l 1143 -103 l 1143 64 z "},"⊇":{"ha":0,"x_min":0,"x_max":0,"o":"m 672 236 b 1147 619 985 236 1147 379 b 672 1003 1147 860 985 1003 l 144 1003 l 144 836 l 672 836 b 953 619 851 836 953 739 b 672 403 953 500 851 403 l 144 403 l 144 236 z m 1060 64 l 149 64 l 149 -103 l 1060 -103 z "},"⊂":{"ha":0,"x_min":0,"x_max":0,"o":"m 647 14 l 1147 14 l 1147 208 l 647 208 b 367 460 454 208 367 299 b 647 711 367 621 454 711 l 1147 711 l 1147 906 l 647 906 b 144 460 307 906 144 742 b 647 14 144 178 307 14 z "},"⊃":{"ha":0,"x_min":0,"x_max":0,"o":"m 644 14 b 1147 460 985 14 1147 178 b 644 906 1147 742 985 906 l 144 906 l 144 711 l 644 711 b 925 460 838 711 925 621 b 644 208 925 299 838 208 l 144 208 l 144 14 z "},"∪":{"ha":0,"x_min":0,"x_max":0,"o":"m 200 369 b 646 -92 200 113 392 -92 b 1092 369 900 -92 1092 113 l 1092 1031 l 869 1031 l 869 369 b 646 117 869 204 807 117 b 422 369 485 117 422 204 l 422 1031 l 200 1031 z "},"∩":{"ha":0,"x_min":0,"x_max":0,"o":"m 200 569 l 200 -92 l 422 -92 l 422 569 b 646 822 422 735 485 822 b 869 569 807 822 869 735 l 869 -92 l 1092 -92 l 1092 569 b 646 1031 1092 826 900 1031 b 200 569 392 1031 200 826 z "},"∧":{"ha":0,"x_min":0,"x_max":0,"o":"m 649 739 l 986 -92 l 1244 -92 l 760 1022 l 532 1022 l 47 -92 l 306 -92 l 643 739 z "},"∨":{"ha":0,"x_min":0,"x_max":0,"o":"m 649 192 l 643 192 l 306 1022 l 47 1022 l 532 -92 l 760 -92 l 1244 1022 l 986 1022 z "},"¬":{"ha":0,"x_min":0,"x_max":0,"o":"m 132 764 l 132 575 l 950 575 l 950 278 l 1149 278 l 1149 764 z "},"￢":{"ha":0,"x_min":0,"x_max":0,"o":"m 132 764 l 132 575 l 950 575 l 950 278 l 1149 278 l 1149 764 z "},"⇒":{"ha":0,"x_min":0,"x_max":0,"o":"m 904 360 l 90 360 l 90 199 l 763 199 l 643 81 l 772 -11 l 1278 464 l 772 940 l 643 849 l 763 731 l 90 731 l 90 569 l 904 569 l 1033 464 z "},"⇔":{"ha":0,"x_min":0,"x_max":0,"o":"m 403 -11 l 508 81 l 411 199 l 881 199 l 783 81 l 889 -11 l 1306 464 l 889 940 l 783 849 l 881 731 l 411 731 l 508 849 l 403 940 l -14 464 z m 188 464 l 294 569 l 997 569 l 1104 464 l 997 360 l 294 360 z "},"∀":{"ha":0,"x_min":0,"x_max":0,"o":"m 532 -92 l 760 -92 l 1244 1022 l 986 1022 l 883 749 l 389 749 l 278 1022 l 47 1022 z m 649 122 l 643 122 l 457 582 l 821 582 z "},"∃":{"ha":0,"x_min":0,"x_max":0,"o":"m 181 975 l 181 767 l 886 767 l 886 558 l 181 558 l 181 364 l 886 364 l 886 153 l 181 153 l 181 -56 l 1136 -56 l 1136 975 z "},"´":{"ha":-357,"x_min":0,"x_max":0,"o":"m 557 1015 l 360 1165 l 111 836 l 292 696 z "},"˜":{"ha":-139,"x_min":0,"x_max":0,"o":"m 604 285 b 844 522 703 292 782 383 l 728 603 b 603 513 692 554 649 513 b 522 543 579 513 549 529 l 414 597 b 288 629 378 615 338 631 b 42 393 199 626 94 532 l 157 311 b 286 407 193 363 236 407 b 379 375 315 407 349 390 l 508 307 b 604 285 538 293 571 282 z "},"ˇ":{"ha":0,"x_min":0,"x_max":0,"o":"m 811 1110 l 646 960 l 471 1111 l 214 1111 l 647 697 l 1079 1110 z "},"˘":{"ha":132,"x_min":0,"x_max":0,"o":"m 607 826 b 925 1113 835 826 918 969 l 694 1113 b 607 1003 692 1043 665 1003 b 517 1113 547 1003 521 1043 l 288 1113 b 607 826 293 969 378 826 z "},"˝":{"ha":0,"x_min":0,"x_max":0,"o":"m 667 700 l 840 700 l 931 1111 l 668 1111 z m 361 700 l 535 700 l 625 1111 l 363 1111 z "},"˚":{"ha":0,"x_min":0,"x_max":0,"o":"m 646 629 b 881 863 778 629 881 728 b 646 1096 881 997 778 1096 b 411 863 514 1096 411 997 b 646 629 411 728 514 629 z m 646 747 b 540 863 583 747 540 794 b 646 978 540 931 583 978 b 753 863 710 978 753 931 b 646 747 753 794 710 747 z "},"˙":{"ha":0,"x_min":0,"x_max":0,"o":"m 647 715 b 792 863 739 715 792 783 b 646 1017 792 946 738 1017 b 497 863 556 1017 497 946 b 647 715 497 785 563 715 z "},"¸":{"ha":-192,"x_min":0,"x_max":0,"o":"m 247 -383 b 585 -215 450 -390 585 -326 b 440 -72 585 -135 533 -78 l 457 7 l 296 7 l 260 -150 b 408 -200 371 -150 408 -157 b 247 -257 408 -237 369 -256 z "},"˛":{"ha":0,"x_min":0,"x_max":0,"o":"m 838 -233 l 781 -233 b 729 -174 739 -233 729 -211 l 729 -4 l 454 -4 l 454 -164 b 708 -367 454 -285 547 -367 l 838 -367 z "},"¡":{"ha":-489,"x_min":0,"x_max":0,"o":"m 268 744 b 111 590 176 744 111 678 b 268 433 111 500 176 433 b 425 590 361 433 425 500 b 268 744 425 678 361 744 z m 358 308 l 178 308 l 126 -481 l 410 -481 z "},"¿":{"ha":-179,"x_min":0,"x_max":0,"o":"m 419 746 b 263 592 328 746 263 679 b 419 435 263 501 328 435 b 576 592 513 435 576 501 b 419 746 576 679 513 746 z m 549 310 l 299 310 b 265 169 299 269 293 203 l 125 0 b 46 -192 81 -54 46 -112 b 413 -504 46 -411 217 -504 b 804 -164 638 -504 804 -362 l 554 -164 b 433 -278 554 -239 499 -278 b 319 -172 368 -278 319 -242 b 357 -82 319 -142 332 -111 l 465 46 b 549 264 514 104 549 175 z "},"ː":{"ha":0,"x_min":0,"x_max":0,"o":"m 803 911 l 489 911 l 646 600 z m 803 -25 l 646 286 l 489 -25 z "},"∶":{"ha":0,"x_min":0,"x_max":0,"o":"m 803 911 l 489 911 l 646 600 z m 803 -25 l 646 286 l 489 -25 z "},"∮":{"ha":0,"x_min":0,"x_max":0,"o":"m 464 -79 b 335 -293 436 -235 419 -293 b 246 -286 314 -293 272 -292 l 246 -479 b 358 -490 281 -486 319 -490 b 718 -122 513 -490 668 -408 l 746 35 l 776 33 b 974 308 890 72 974 172 b 829 560 974 422 911 511 b 953 865 863 826 896 863 b 1058 858 988 868 1024 865 l 1058 1051 b 922 1063 1014 1060 968 1063 b 599 760 757 1057 626 925 l 569 586 b 363 308 450 550 363 449 b 490 69 363 203 417 119 z m 518 489 b 665 310 519 376 563 314 b 518 132 563 307 519 249 b 369 311 515 249 472 308 b 518 489 472 314 515 376 z m 815 488 b 964 308 817 375 861 313 b 815 131 861 306 817 247 b 668 310 813 247 771 307 b 815 488 771 313 813 375 z "},"∑":{"ha":0,"x_min":0,"x_max":0,"o":"m 490 -254 l 846 283 l 511 796 l 511 801 l 1029 801 l 1029 1024 l 240 1024 l 240 735 l 539 269 l 226 -219 l 226 -490 l 1065 -490 l 1065 -265 l 490 -265 z "},"∏":{"ha":0,"x_min":0,"x_max":0,"o":"m 189 -490 l 438 -490 l 438 810 l 856 810 l 856 -490 l 1104 -490 l 1104 1025 l 189 1025 z "},"¤":{"ha":-179,"x_min":0,"x_max":0,"o":"m 153 58 l 265 171 b 422 136 314 147 368 136 b 581 171 475 136 531 147 l 693 58 l 815 182 l 718 279 b 772 454 751 328 772 385 b 718 628 772 522 754 581 l 815 725 l 693 847 l 582 738 b 422 774 533 761 476 774 b 264 738 368 774 313 761 l 153 847 l 31 725 l 125 628 b 74 454 92 581 74 522 b 126 279 74 385 92 328 l 31 182 z m 422 307 b 292 454 349 307 292 364 b 422 603 292 544 349 603 b 554 454 496 603 554 544 b 422 307 554 364 496 307 z "},"℉":{"ha":0,"x_min":0,"x_max":0,"o":"m 304 629 b 539 863 436 629 539 728 b 304 1096 539 997 436 1096 b 69 863 172 1096 69 997 b 304 629 69 728 172 629 z m 304 747 b 199 863 242 747 199 794 b 304 978 199 931 242 978 b 411 863 368 978 411 931 b 304 747 411 794 368 747 z m 1279 721 l 1279 921 l 593 921 l 593 -136 l 838 -136 l 838 247 l 1249 247 l 1249 454 l 838 454 l 838 721 z "},"‰":{"ha":0,"x_min":0,"x_max":0,"o":"m 206 436 b 399 740 317 436 399 533 b 206 1042 399 949 317 1042 b 14 740 94 1042 14 949 b 206 436 14 533 94 436 z m 769 1042 l 621 1042 l 101 -169 l 251 -169 z m 206 1006 b 374 740 208 872 274 746 b 206 474 274 733 208 608 b 40 740 203 608 139 733 b 206 1006 139 746 203 872 z m 664 435 b 472 131 553 435 472 338 b 664 -171 472 -78 553 -171 b 857 131 776 -171 857 -78 b 664 435 857 338 776 435 z m 1086 435 b 893 131 975 435 893 338 b 1086 -171 893 -78 975 -171 b 1278 131 1197 -171 1278 -78 b 1086 435 1278 338 1197 435 z m 664 -135 b 497 131 661 -1 596 124 b 664 396 596 136 661 263 b 831 131 667 263 731 136 b 664 -135 731 124 667 -1 z m 1086 -135 b 918 131 1082 -1 1018 124 b 1086 396 1018 136 1082 263 b 1251 131 1089 263 1153 136 b 1086 -135 1153 124 1089 -1 z "},"◁":{"ha":0,"x_min":0,"x_max":0,"o":"m 1171 1085 l 40 432 l 1171 -221 z m 1104 -106 l 174 432 l 1104 969 z "},"◀":{"ha":0,"x_min":0,"x_max":0,"o":"m 1171 1085 l 40 432 l 1171 -221 z "},"▷":{"ha":0,"x_min":0,"x_max":0,"o":"m 1251 432 l 121 1085 l 121 -221 z m 1118 432 l 188 -106 l 188 969 z "},"▶":{"ha":0,"x_min":0,"x_max":0,"o":"m 1251 432 l 121 1085 l 121 -221 z "},"♤":{"ha":0,"x_min":0,"x_max":0,"o":"m 658 1088 l 633 1088 b 321 751 581 1008 436 860 l 321 753 b 58 308 221 657 58 515 b 354 -12 58 138 178 -12 b 503 31 408 -12 460 4 b 426 -151 493 -19 469 -106 l 446 -174 l 846 -174 l 865 -151 b 789 31 822 -106 799 -19 b 938 -12 832 4 883 -12 b 1233 308 1114 -12 1233 138 b 971 753 1233 515 1071 657 l 971 751 b 658 1088 856 860 711 1008 z m 607 286 l 539 288 b 351 104 486 139 419 104 b 175 308 244 104 175 196 b 400 667 175 463 318 590 b 646 925 492 751 592 856 b 892 667 700 856 799 751 b 1117 308 974 590 1117 463 b 940 104 1117 196 1047 104 b 753 288 872 104 778 139 l 685 286 b 713 -86 682 163 678 38 l 579 -86 b 607 286 614 38 610 163 z "},"♠":{"ha":0,"x_min":0,"x_max":0,"o":"m 961 740 b 649 1092 838 858 699 1013 b 643 1092 647 1094 644 1094 b 331 740 593 1013 454 858 b 67 303 229 644 67 501 b 344 0 67 142 181 -18 b 563 71 433 10 478 15 l 467 -174 l 825 -174 b 825 -146 831 -174 840 -160 l 729 71 b 947 0 814 15 858 10 b 1225 303 1113 -18 1225 142 b 961 740 1225 501 1063 644 z "},"♡":{"ha":0,"x_min":0,"x_max":0,"o":"m 364 1018 b 58 669 197 1018 58 867 b 325 217 58 463 222 315 b 633 -132 446 101 588 -54 l 660 -132 b 969 217 707 -54 849 101 b 1236 669 1072 315 1236 461 b 931 1018 1236 867 1097 1018 b 647 854 840 1018 726 986 b 364 1018 569 988 453 1018 z m 650 678 b 931 903 708 792 786 903 b 1119 669 1029 903 1119 806 b 888 297 1119 514 976 383 l 888 299 b 647 32 789 207 700 107 b 408 297 593 106 507 204 b 175 669 319 382 175 515 b 364 903 175 806 264 903 b 644 678 508 903 586 792 z "},"♥":{"ha":0,"x_min":0,"x_max":0,"o":"m 653 792 b 646 782 651 788 650 782 b 639 792 642 782 640 788 b 351 1014 597 946 482 1014 b 61 679 193 1014 61 868 b 331 226 61 475 226 326 b 643 -143 457 106 592 -60 b 649 -143 644 -146 647 -146 b 961 226 700 -60 835 106 b 1231 679 1065 326 1231 474 b 940 1014 1231 868 1099 1014 b 653 792 810 1014 693 946 z "},"♧":{"ha":0,"x_min":0,"x_max":0,"o":"m 646 1035 b 335 731 478 1035 335 897 b 376 585 335 671 357 622 b 332 588 364 588 347 588 b 35 285 156 588 35 453 b 331 -18 35 110 164 -18 b 513 44 394 -18 458 4 l 418 -174 l 874 -174 l 779 44 b 961 -18 833 4 897 -18 b 1257 285 1128 -18 1257 110 b 960 588 1257 453 1136 588 b 915 585 944 588 928 588 b 957 731 935 622 957 671 b 646 1035 957 897 814 1035 z m 646 918 b 842 731 747 918 842 832 b 726 451 842 669 822 567 l 739 432 b 963 485 849 486 918 490 b 1140 285 1076 471 1140 389 b 961 97 1140 176 1056 97 b 742 267 894 97 793 135 l 685 265 b 707 -60 681 157 683 7 l 585 -60 b 607 265 608 7 611 157 l 536 265 b 331 97 510 129 399 97 b 151 285 236 97 151 176 b 329 485 151 389 215 471 b 553 432 374 490 443 486 l 565 451 b 450 731 469 567 450 669 b 646 918 450 832 544 918 z "},"♣":{"ha":0,"x_min":0,"x_max":0,"o":"m 576 85 l 468 -174 l 825 -174 l 715 85 b 972 -10 803 4 868 -10 b 1251 272 1129 -10 1251 107 b 969 556 1251 431 1135 556 b 851 524 931 556 883 540 b 842 526 851 524 844 521 b 846 539 838 533 846 539 b 932 740 894 585 932 657 b 646 1028 932 899 804 1028 b 360 739 486 1028 360 897 b 446 539 360 656 397 585 b 450 526 446 539 454 533 b 440 524 447 521 440 524 b 321 556 408 540 363 556 b 40 272 160 556 40 431 b 319 -10 40 107 163 -10 b 576 85 429 -10 494 13 z "},"⊙":{"ha":0,"x_min":0,"x_max":0,"o":"m 646 -56 b 1160 458 929 -56 1160 175 b 646 972 1160 742 929 972 b 132 458 363 972 132 742 b 646 -56 132 175 363 -56 z m 299 458 b 646 806 299 650 454 806 b 993 458 838 806 993 650 b 646 111 993 267 838 111 b 299 458 454 111 299 267 z m 646 304 b 803 458 738 304 803 371 b 646 615 803 549 738 615 b 489 458 553 615 489 549 b 646 304 489 371 553 304 z "},"◉":{"ha":0,"x_min":0,"x_max":0,"o":"m 646 -56 b 1160 458 929 -56 1160 175 b 646 972 1160 742 929 972 b 132 458 363 972 132 742 b 646 -56 132 175 363 -56 z m 299 458 b 646 806 299 650 454 806 b 993 458 838 806 993 650 b 646 111 993 267 838 111 b 299 458 454 111 299 267 z m 646 304 b 803 458 738 304 803 371 b 646 615 803 549 738 615 b 489 458 553 615 489 549 b 646 304 489 371 553 304 z "},"◈":{"ha":0,"x_min":0,"x_max":0,"o":"m 646 1114 l -32 436 l 646 -242 l 1324 436 z m 646 1019 l 1229 436 l 646 -147 l 63 436 z m 276 436 l 646 68 l 1014 436 l 646 806 z "},"▣":{"ha":0,"x_min":0,"x_max":0,"o":"m 58 1024 l 58 -151 l 1233 -151 l 1233 1024 z m 129 953 l 1163 953 l 1163 -81 l 129 -81 z m 311 101 l 981 101 l 981 771 l 311 771 z "},"◐":{"ha":0,"x_min":0,"x_max":0,"o":"m 1257 436 b 646 1047 1257 774 983 1047 b 35 436 308 1047 35 774 b 646 -175 35 99 308 -175 b 1257 436 983 -175 1257 99 z m 646 999 b 1208 436 957 999 1208 747 b 646 -126 1208 125 957 -126 z "},"◑":{"ha":0,"x_min":0,"x_max":0,"o":"m 1257 436 b 646 1047 1257 774 983 1047 b 35 436 308 1047 35 774 b 646 -175 35 99 308 -175 b 1257 436 983 -175 1257 99 z m 646 -126 b 83 436 335 -126 83 125 b 646 999 83 747 335 999 z "},"▒":{"ha":0,"x_min":0,"x_max":0,"o":"m 1101 883 l 1236 883 l 1236 1024 l 1101 1024 z m 540 1024 l 406 1024 l 406 883 l 540 883 z m 193 1024 l 58 1024 l 58 883 l 193 883 z m 369 1024 l 235 1024 l 235 883 l 369 883 z m 890 1024 l 753 1024 l 753 883 l 890 883 z m 928 883 l 1061 883 l 1061 1024 l 928 1024 z m 715 883 l 715 1024 l 579 1024 l 579 883 z m 1101 711 l 1236 711 l 1236 844 l 1101 844 z m 540 844 l 406 844 l 406 711 l 540 711 z m 193 844 l 58 844 l 58 711 l 193 711 z m 369 844 l 235 844 l 235 711 l 369 711 z m 890 844 l 753 844 l 753 711 l 890 711 z m 928 711 l 1061 711 l 1061 844 l 928 844 z m 715 711 l 715 844 l 579 844 l 579 711 z m 1101 542 l 1236 542 l 1236 675 l 1101 675 z m 540 675 l 406 675 l 406 542 l 540 542 z m 193 675 l 58 675 l 58 542 l 193 542 z m 369 675 l 235 675 l 235 542 l 369 542 z m 890 675 l 753 675 l 753 542 l 890 542 z m 928 542 l 1061 542 l 1061 675 l 928 675 z m 715 542 l 715 675 l 579 675 l 579 542 z m 715 364 l 715 501 l 579 501 l 579 364 z m 928 364 l 1061 364 l 1061 501 l 928 501 z m 890 501 l 753 501 l 753 364 l 890 364 z m 369 501 l 235 501 l 235 364 l 369 364 z m 193 501 l 58 501 l 58 364 l 193 364 z m 540 501 l 406 501 l 406 364 l 540 364 z m 1101 364 l 1236 364 l 1236 501 l 1101 501 z m 1101 190 l 1236 190 l 1236 325 l 1101 325 z m 540 325 l 406 325 l 406 190 l 540 190 z m 193 325 l 58 325 l 58 190 l 193 190 z m 369 325 l 235 325 l 235 190 l 369 190 z m 890 325 l 753 325 l 753 190 l 890 190 z m 928 190 l 1061 190 l 1061 325 l 928 325 z m 715 190 l 715 325 l 579 325 l 579 190 z m 1101 22 l 1236 22 l 1236 154 l 1101 154 z m 540 154 l 406 154 l 406 22 l 540 22 z m 193 154 l 58 154 l 58 22 l 193 22 z m 369 154 l 235 154 l 235 22 l 369 22 z m 890 154 l 753 154 l 753 22 l 890 22 z m 928 22 l 1061 22 l 1061 154 l 928 154 z m 715 22 l 715 154 l 579 154 l 579 22 z m 1101 -151 l 1236 -151 l 1236 -15 l 1101 -15 z m 540 -15 l 406 -15 l 406 -151 l 540 -151 z m 193 -15 l 58 -15 l 58 -151 l 193 -151 z m 369 -15 l 235 -15 l 235 -151 l 369 -151 z m 890 -15 l 753 -15 l 753 -151 l 890 -151 z m 928 -151 l 1061 -151 l 1061 -15 l 928 -15 z m 715 -151 l 715 -15 l 579 -15 l 579 -151 z "},"▤":{"ha":0,"x_min":0,"x_max":0,"o":"m 58 1024 l 58 -151 l 1233 -151 l 1233 1024 z m 1163 953 l 1163 747 l 129 747 l 129 953 z m 129 471 l 129 676 l 1163 676 l 1163 471 z m 1163 401 l 1163 196 l 129 196 l 129 401 z m 129 -81 l 129 125 l 1163 125 l 1163 -81 z "},"▥":{"ha":0,"x_min":0,"x_max":0,"o":"m 58 1024 l 58 -151 l 1233 -151 l 1233 1024 z m 1163 -81 l 957 -81 l 957 953 l 1163 953 z m 129 953 l 335 953 l 335 -81 l 129 -81 z m 611 -81 l 406 -81 l 406 953 l 611 953 z m 681 953 l 886 953 l 886 -81 l 681 -81 z "},"▨":{"ha":0,"x_min":0,"x_max":0,"o":"m 58 1024 l 58 -151 l 1233 -151 l 1233 1024 z m 285 953 l 129 797 l 129 953 z m 938 953 l 1122 953 l 129 -40 l 129 144 z m 129 521 l 129 699 l 383 953 l 561 953 z m 660 953 l 840 953 l 129 242 l 129 422 z m 368 -81 l 185 -81 l 1163 897 l 1163 714 z m 644 -81 l 465 -81 l 1163 617 l 1163 438 z m 1163 335 l 1163 161 l 921 -81 l 747 -81 z m 1024 -81 l 1163 58 l 1163 -81 z "},"▧":{"ha":0,"x_min":0,"x_max":0,"o":"m 58 1024 l 58 -151 l 1233 -151 l 1233 1024 z m 1163 804 l 1014 953 l 1163 953 z m 1163 426 l 1163 247 l 457 953 l 636 953 z m 1163 529 l 739 953 l 911 953 l 1163 701 z m 176 953 l 360 953 l 1163 150 l 1163 -33 z m 129 719 l 129 903 l 1113 -81 l 929 -81 z m 129 440 l 129 621 l 831 -81 l 650 -81 z m 129 342 l 551 -81 l 374 -81 l 129 164 z m 129 67 l 276 -81 l 129 -81 z "},"▦":{"ha":0,"x_min":0,"x_max":0,"o":"m 58 1024 l 58 -151 l 1233 -151 l 1233 1024 z m 335 953 l 335 747 l 129 747 l 129 953 z m 611 747 l 406 747 l 406 953 l 611 953 z m 681 747 l 681 953 l 886 953 l 886 747 z m 1163 747 l 957 747 l 957 953 l 1163 953 z m 957 471 l 957 676 l 1163 676 l 1163 471 z m 335 471 l 129 471 l 129 676 l 335 676 z m 611 676 l 611 471 l 406 471 l 406 676 z m 886 676 l 886 471 l 681 471 l 681 676 z m 957 401 l 1163 401 l 1163 196 l 957 196 z m 681 196 l 681 401 l 886 401 l 886 196 z m 406 401 l 611 401 l 611 196 l 406 196 z m 335 401 l 335 196 l 129 196 l 129 401 z m 957 -81 l 957 125 l 1163 125 l 1163 -81 z m 129 125 l 335 125 l 335 -81 l 129 -81 z m 681 125 l 886 125 l 886 -81 l 681 -81 z m 611 125 l 611 -81 l 406 -81 l 406 125 z "},"▩":{"ha":0,"x_min":0,"x_max":0,"o":"m 58 1024 l 58 -151 l 1233 -151 l 1233 1024 z m 1014 953 l 1122 953 l 1069 900 z m 790 903 l 739 953 l 840 953 z m 510 901 l 457 953 l 561 953 z m 231 899 l 176 953 l 285 953 z m 649 763 l 558 851 l 647 942 l 739 851 z m 368 761 l 281 850 l 371 942 l 461 853 z m 931 763 l 839 853 l 925 940 l 1018 849 z m 182 850 l 129 797 l 129 903 z m 1163 804 l 1117 851 l 1163 897 z m 600 714 l 508 621 l 418 713 l 510 803 z m 319 713 l 229 621 l 139 710 l 232 801 z m 790 621 l 697 713 l 788 801 l 879 711 z m 1071 621 l 979 714 l 1065 800 l 1157 708 z m 558 572 l 649 664 l 742 572 l 649 481 z m 278 571 l 369 664 l 460 572 l 368 482 z m 929 481 l 839 572 l 928 663 l 1019 569 z m 129 621 l 179 571 l 129 521 z m 1163 529 l 1119 572 l 1163 617 z m 697 432 l 790 524 l 881 432 l 790 340 z m 417 432 l 510 524 l 600 432 l 510 340 z m 318 432 l 229 342 l 138 432 l 229 522 z m 1157 432 l 1068 342 l 978 432 l 1068 521 z m 929 383 l 1019 293 l 928 203 l 839 292 z m 649 383 l 742 292 l 649 200 l 558 292 z m 368 383 l 460 290 l 369 201 l 278 292 z m 129 342 l 179 292 l 129 242 z m 1119 290 l 1163 335 l 1163 247 z m 697 151 l 790 243 l 879 154 l 788 61 z m 229 243 l 319 151 l 232 63 l 139 154 z m 979 151 l 1071 242 l 1157 156 l 1065 64 z m 418 153 l 508 242 l 600 151 l 510 60 z m 368 103 l 461 11 l 371 -78 l 281 14 z m 931 103 l 1018 17 l 925 -76 l 839 10 z m 649 103 l 739 13 l 647 -78 l 558 11 z m 129 67 l 182 13 l 129 -40 z m 1117 13 l 1163 58 l 1163 -33 z m 231 -35 l 276 -81 l 185 -81 z m 1069 -35 l 1113 -81 l 1024 -81 z m 510 -37 l 551 -81 l 465 -81 z m 790 -39 l 831 -81 l 747 -81 z "},"♨":{"ha":0,"x_min":0,"x_max":0,"o":"m 581 560 b 644 360 625 490 644 419 b 558 164 644 297 615 218 l 625 153 b 756 411 718 221 756 313 b 697 607 756 464 740 539 b 633 808 653 678 633 749 b 719 1004 633 869 663 949 l 653 1014 b 522 756 560 946 522 854 b 581 560 522 704 538 628 z m 842 563 b 904 385 885 501 904 435 b 831 210 904 333 890 264 l 896 201 b 1013 431 989 265 1013 354 b 956 606 1013 476 999 543 b 893 783 913 667 893 732 b 967 957 893 833 907 904 l 901 965 b 785 736 808 901 785 814 b 842 563 785 690 799 624 z m 326 563 b 389 385 369 501 389 435 b 315 210 389 333 375 264 l 381 201 b 497 431 474 265 497 354 b 440 606 497 476 483 543 b 378 783 397 667 378 732 b 451 957 378 833 392 904 l 386 965 b 269 736 293 901 269 814 b 326 563 269 690 283 624 z m 1150 314 b 1165 250 1160 294 1165 274 b 646 19 1165 131 919 19 b 126 250 372 19 126 131 b 146 319 126 278 133 300 l 88 332 b 49 211 63 299 49 257 b 646 -124 49 17 314 -124 b 1243 211 978 -124 1243 17 b 1199 338 1243 260 1228 304 z "},"☏":{"ha":0,"x_min":0,"x_max":0,"o":"m 315 678 l 321 557 b 279 479 322 528 324 489 l 76 464 b 15 522 42 460 15 486 b 646 899 15 865 375 899 b 1276 522 917 899 1276 865 b 1215 464 1276 486 1250 460 l 1013 479 b 971 557 968 489 969 528 l 976 678 l 875 678 l 875 608 b 1035 353 875 518 932 453 b 1168 8 1133 256 1168 133 b 1085 -76 1168 -43 1142 -76 l 207 -76 b 124 8 150 -76 124 -43 b 257 353 124 133 158 256 b 417 608 360 453 417 518 l 417 678 z m 646 860 b 54 522 401 860 54 836 b 71 503 54 506 58 501 l 272 518 b 285 542 282 519 286 525 l 274 717 l 456 717 l 456 608 b 285 325 456 504 388 425 b 163 8 192 236 163 128 b 207 -37 163 -26 172 -37 l 1085 -37 b 1129 8 1119 -37 1129 -26 b 1007 325 1129 128 1100 236 b 836 608 904 425 836 504 l 836 717 l 1018 717 l 1007 542 b 1019 518 1006 525 1010 519 l 1221 503 b 1238 522 1233 501 1238 506 b 646 860 1238 836 890 860 z m 536 544 l 536 717 l 756 717 l 756 544 z m 717 678 l 575 678 l 575 583 l 717 583 z m 646 0 b 393 253 508 0 393 115 b 646 506 393 390 508 506 b 899 253 783 506 899 390 b 646 0 899 115 783 0 z m 432 253 b 646 39 432 135 528 39 b 860 253 764 39 860 135 b 646 467 860 371 764 467 b 432 253 528 467 432 371 z "},"☎":{"ha":0,"x_min":0,"x_max":0,"o":"m 315 678 l 417 678 l 417 608 b 257 353 417 518 360 453 b 124 8 158 256 124 133 b 207 -76 124 -43 150 -76 l 1085 -76 b 1168 8 1142 -76 1168 -43 b 1035 353 1168 133 1133 256 b 875 608 932 453 875 518 l 875 678 l 976 678 l 971 557 b 1013 479 969 528 968 489 l 1215 464 b 1276 522 1250 460 1276 486 b 646 899 1276 865 917 899 b 15 522 375 899 15 865 b 76 464 15 486 42 460 l 279 479 b 321 557 324 489 322 528 z m 736 690 l 736 557 l 556 557 l 556 690 z m 413 246 b 646 479 413 375 517 479 b 879 246 775 479 879 375 b 646 13 879 117 775 13 b 413 246 517 13 413 117 z "},"☜":{"ha":0,"x_min":0,"x_max":0,"o":"m 1199 156 b 1217 165 1206 156 1214 158 b 1218 175 1218 168 1218 172 l 1218 596 b 1199 615 1218 607 1213 615 l 1106 615 b 1094 617 1101 615 1099 615 b 697 740 924 696 800 740 b 164 692 586 740 258 711 b 56 596 117 682 56 661 b 164 508 56 556 79 515 b 329 508 197 506 268 507 b 333 501 333 508 336 504 l 328 497 b 315 385 303 469 300 422 b 358 342 324 367 338 353 b 363 332 361 340 363 336 b 414 222 364 281 383 243 l 429 215 b 431 211 429 215 431 213 b 481 114 433 168 451 135 b 568 89 507 94 536 89 l 581 90 b 586 90 583 90 585 90 b 589 90 588 92 588 90 b 708 75 608 82 668 75 b 819 85 743 75 779 78 b 1072 151 911 100 979 118 b 1100 156 1082 156 1090 156 z m 361 547 b 167 546 299 546 204 543 b 89 596 100 551 89 574 b 171 654 89 608 89 638 b 600 700 233 668 463 690 l 550 665 b 460 581 526 642 485 611 b 413 553 449 568 429 557 b 361 547 401 550 383 547 z m 1172 576 b 1185 565 1178 576 1185 572 l 1185 211 b 1169 197 1185 203 1176 197 l 1089 196 b 1072 193 1085 196 1078 196 b 814 121 972 156 907 138 b 671 114 764 113 715 111 b 671 118 669 114 668 118 b 768 192 706 136 743 158 b 792 285 785 215 800 243 b 761 332 789 300 779 322 b 717 450 776 368 749 426 b 714 506 721 463 721 497 b 1021 383 753 457 974 369 b 1043 406 1032 386 1043 396 b 1021 421 1043 415 1029 421 b 729 543 949 421 783 490 b 708 549 722 549 715 553 b 558 494 694 542 632 518 b 467 510 514 481 479 485 b 490 563 463 519 468 535 b 594 657 519 599 571 639 b 735 699 638 688 672 699 b 1088 579 810 699 938 650 b 1103 576 1092 576 1099 576 z m 403 367 b 346 401 382 371 356 379 b 353 471 338 421 336 451 b 411 511 369 489 390 503 b 432 504 418 514 428 514 b 492 453 446 471 463 460 b 569 458 514 449 539 451 l 657 485 b 676 475 667 488 674 483 b 664 432 679 461 679 446 b 604 394 650 418 629 406 b 485 364 568 378 529 369 b 403 367 471 361 436 360 z m 517 239 b 432 256 486 239 454 242 b 399 321 407 271 401 297 b 404 328 399 325 401 328 b 447 325 419 325 433 325 b 615 361 511 325 568 339 b 689 401 639 372 667 389 b 717 400 700 408 710 406 b 728 365 725 390 728 379 b 672 294 728 340 710 321 b 517 239 625 260 556 239 z m 561 126 b 499 144 550 126 522 128 b 467 200 482 157 471 176 b 471 204 467 203 469 204 b 517 201 486 203 501 201 b 717 282 563 201 663 243 b 760 272 731 293 750 299 b 747 219 764 263 765 240 b 561 126 706 169 614 126 z "},"☞":{"ha":0,"x_min":0,"x_max":0,"o":"m 93 156 l 192 156 b 219 151 201 156 210 156 b 472 85 313 118 381 100 b 583 75 513 78 549 75 b 703 90 624 75 683 82 b 706 90 704 90 704 92 b 713 90 708 90 711 90 l 725 89 b 811 114 757 89 785 94 b 861 211 840 135 858 168 b 863 215 861 213 863 215 l 878 222 b 929 332 908 243 928 281 b 933 342 929 336 931 340 b 976 385 954 353 968 367 b 964 497 992 422 989 469 l 958 501 b 963 508 956 504 958 508 b 1128 508 1024 507 1094 506 b 1236 596 1213 515 1236 556 b 1128 692 1236 661 1175 682 b 594 740 1033 711 706 740 b 197 617 492 740 368 696 b 186 615 193 615 190 615 l 93 615 b 74 596 79 615 74 607 l 74 175 b 75 165 74 172 74 168 b 93 156 78 158 86 156 z m 931 547 b 879 553 908 547 890 550 b 832 581 863 557 843 568 b 742 665 807 611 765 642 l 692 700 b 1121 654 829 690 1058 668 b 1203 596 1203 638 1203 608 b 1125 546 1203 574 1192 551 b 931 547 1088 543 993 546 z m 119 576 l 189 576 b 204 579 193 576 200 576 b 557 699 354 650 482 699 b 697 657 619 699 654 688 b 801 563 721 639 772 599 b 825 510 824 535 829 519 b 733 494 813 485 778 481 b 583 549 660 518 597 542 b 563 543 576 553 569 549 b 271 421 508 490 343 421 b 249 406 263 421 249 415 b 271 383 249 396 260 386 b 578 506 318 369 539 457 b 575 450 571 497 571 463 b 531 332 543 426 515 368 b 500 285 513 322 503 300 b 524 192 492 243 507 215 b 621 118 549 158 586 136 b 621 114 624 118 622 114 b 478 121 576 111 528 113 b 219 193 385 138 319 156 b 203 196 214 196 207 196 l 122 197 b 107 211 115 197 107 203 l 107 565 b 119 576 107 572 114 576 z m 889 367 b 807 364 856 360 821 361 b 688 394 763 369 724 378 b 628 432 663 406 642 418 b 615 475 613 446 613 461 b 635 485 618 483 625 488 l 722 458 b 800 453 753 451 778 449 b 860 504 829 460 846 471 b 881 511 864 514 874 514 b 939 471 901 503 922 489 b 946 401 956 451 954 421 b 889 367 936 379 910 371 z m 775 239 b 619 294 736 239 667 260 b 564 365 582 321 564 340 b 575 400 564 379 567 390 b 603 401 582 406 592 408 b 676 361 625 389 653 372 b 844 325 724 339 781 325 b 888 328 858 325 872 325 b 893 321 890 328 893 325 b 860 256 890 297 885 271 b 775 239 838 242 806 239 z m 731 126 b 544 219 678 126 586 169 b 532 272 526 240 528 263 b 575 282 542 299 561 293 b 775 201 629 243 729 201 b 821 204 790 201 806 203 b 825 200 822 204 825 203 b 793 144 821 176 810 157 b 731 126 769 128 742 126 z "},"¶":{"ha":-226,"x_min":0,"x_max":0,"o":"m 314 -150 l 467 -150 l 467 889 l 576 889 l 576 -150 l 729 -150 l 729 1024 l 314 1024 b 50 701 183 1024 50 939 b 314 379 50 464 183 379 z "},"†":{"ha":0,"x_min":0,"x_max":0,"o":"m 750 1022 l 542 1022 l 542 707 l 285 707 l 285 529 l 542 529 l 542 -151 l 750 -151 l 750 529 l 1007 529 l 1007 707 l 750 707 z "},"‡":{"ha":0,"x_min":0,"x_max":0,"o":"m 750 1022 l 542 1022 l 542 731 l 285 731 l 285 553 l 542 553 l 542 325 l 285 325 l 285 147 l 542 147 l 542 -150 l 750 -150 l 750 147 l 1007 147 l 1007 325 l 750 325 l 750 553 l 1007 553 l 1007 731 l 750 731 z "},"↕":{"ha":0,"x_min":0,"x_max":0,"o":"m 646 1069 l 311 704 l 447 597 l 563 743 l 563 132 l 447 278 l 311 171 l 646 -194 l 981 171 l 844 278 l 729 132 l 729 743 l 844 597 l 981 704 z "},"↗":{"ha":0,"x_min":0,"x_max":0,"o":"m 346 -15 l 946 583 l 924 399 l 1096 378 l 1117 874 l 622 851 l 643 679 l 828 701 l 228 103 z "},"↙":{"ha":0,"x_min":0,"x_max":0,"o":"m 999 874 l 399 275 l 421 460 l 249 481 l 228 -15 l 722 7 l 701 179 l 517 157 l 1117 756 z "},"↖":{"ha":0,"x_min":0,"x_max":0,"o":"m 999 -15 l 1117 103 l 517 701 l 701 679 l 722 851 l 228 874 l 249 378 l 421 399 l 399 583 z "},"↘":{"ha":0,"x_min":0,"x_max":0,"o":"m 346 874 l 228 756 l 828 157 l 643 179 l 622 7 l 1117 -15 l 1096 481 l 924 460 l 946 275 z "},"♭":{"ha":0,"x_min":0,"x_max":0,"o":"m 804 583 b 508 361 683 583 571 486 l 508 1068 l 454 1068 l 454 -179 l 468 -179 b 992 394 644 10 992 96 b 804 583 992 497 926 583 z m 508 -75 l 508 276 b 742 493 588 440 668 493 b 860 372 808 493 860 465 b 508 -75 860 161 675 72 z "},"♩":{"ha":0,"x_min":0,"x_max":0,"o":"m 671 1075 l 671 74 b 583 92 650 85 615 92 b 343 -86 428 92 343 13 b 472 -203 343 -154 394 -203 b 726 33 632 -203 726 -111 l 726 1075 z "},"♪":{"ha":0,"x_min":0,"x_max":0,"o":"m 626 74 b 539 92 606 85 571 92 b 299 -86 383 92 299 13 b 428 -203 299 -154 350 -203 b 682 33 588 -203 682 -111 l 682 675 b 936 410 826 643 936 571 b 849 118 936 299 879 182 l 885 118 b 1001 457 951 225 1001 340 b 822 769 1001 588 907 696 b 661 1075 738 843 661 942 l 626 1075 z "},"♬":{"ha":0,"x_min":0,"x_max":0,"o":"m 368 71 b 281 89 347 82 313 89 b 40 -89 125 89 40 10 b 169 -206 40 -157 92 -206 b 424 31 329 -206 424 -114 l 424 553 l 1125 706 l 1125 238 b 1038 256 1104 249 1069 256 b 797 78 882 256 797 176 b 926 -39 797 10 849 -39 b 1181 197 1086 -39 1181 53 l 1181 1096 l 368 918 z m 1125 844 l 424 692 l 424 792 l 1125 944 z "},"㉿":{"ha":364,"x_min":0,"x_max":0,"o":"m 374 500 l 229 500 b 693 911 257 728 457 911 b 1114 654 875 911 1032 815 l 1250 654 b 692 1042 1146 914 918 1042 b 99 433 364 1042 94 768 b 101 371 99 414 99 392 l 374 371 z m 746 653 l 557 519 l 557 653 l 428 653 l 428 219 l 557 219 l 557 363 l 668 443 l 799 219 l 944 219 l 772 518 l 960 653 z m 960 501 l 960 371 l 1160 371 b 696 -39 1132 142 929 -39 b 276 219 521 -39 358 60 l 139 219 b 696 -169 224 -31 469 -169 b 1290 440 1025 -169 1290 107 b 1286 501 1290 457 1290 481 z "},"㈜":{"ha":0,"x_min":0,"x_max":0,"o":"m 1271 436 b 1086 1024 1271 657 1200 854 l 1024 1024 b 1169 436 1122 863 1169 596 b 1024 -150 1169 278 1122 10 l 1086 -150 b 1271 436 1200 19 1271 217 z m 21 436 b 207 -150 21 217 93 19 l 268 -150 b 122 436 171 10 122 278 b 268 1024 122 596 171 863 l 207 1024 b 21 436 93 854 21 657 z m 247 672 l 439 672 l 247 403 l 471 403 l 650 674 l 831 403 l 1054 403 l 863 672 l 1054 672 l 1054 824 l 247 824 z m 247 213 l 549 213 l 549 1 l 753 1 l 753 213 l 1054 213 l 1054 363 l 247 363 z "},"№":{"ha":0,"x_min":0,"x_max":0,"o":"m 963 1042 b 686 669 790 1042 686 869 l 686 515 b 963 143 686 303 790 143 b 1238 515 1133 143 1238 303 l 1238 669 b 963 1042 1238 869 1133 1042 z m 646 -143 l 646 1024 l 479 1024 l 479 488 b 485 292 479 422 479 354 b 426 476 468 358 447 419 l 221 1024 l 53 1024 l 53 -143 l 221 -143 l 221 376 b 215 564 221 435 219 499 b 268 432 238 517 250 481 l 479 -143 z m 963 981 b 1174 594 965 726 1028 600 b 963 206 1028 588 965 449 b 750 593 960 449 896 586 b 963 981 896 599 960 726 z m 706 -156 l 1236 -156 l 1236 53 l 706 53 z "},"㏇":{"ha":0,"x_min":0,"x_max":0,"o":"m 401 303 l 401 247 b 294 53 401 118 379 53 b 188 275 211 53 188 132 l 188 596 b 294 818 188 739 211 818 b 401 624 379 818 401 753 l 401 582 l 561 582 l 561 638 b 294 1040 561 886 468 1040 b 28 610 121 1040 28 872 l 28 261 b 294 -169 28 -1 121 -169 b 561 233 468 -169 561 -15 l 561 303 z m 824 744 b 589 365 661 744 589 568 l 589 208 b 824 -171 589 -8 661 -171 b 1060 208 986 -171 1060 -8 l 1060 365 b 824 744 1060 568 986 744 z m 824 661 b 1000 289 826 417 867 294 b 824 -128 858 282 824 133 b 650 288 824 133 788 281 b 824 661 781 293 819 417 z m 1168 -169 b 1281 -15 1247 -169 1281 -103 b 1168 142 1281 75 1247 142 b 1057 -15 1088 142 1057 75 b 1168 -169 1057 -103 1088 -169 z "},"™":{"ha":-17,"x_min":0,"x_max":0,"o":"m 289 926 l 436 926 l 436 1024 l 21 1024 l 21 926 l 169 926 l 169 508 l 289 508 z m 721 750 b 703 668 713 722 708 694 b 686 750 699 694 693 722 l 601 1024 l 457 1024 l 457 508 l 568 508 l 568 721 b 560 846 568 753 564 808 l 658 521 l 749 521 l 846 846 b 838 721 843 808 838 753 l 838 508 l 950 508 l 950 1024 l 806 1024 z "},"㏂":{"ha":0,"x_min":0,"x_max":0,"o":"m 174 -169 b 289 -101 222 -169 268 -139 l 289 -151 l 403 -151 l 403 443 b 218 739 403 615 322 739 b 35 471 107 739 35 621 l 35 443 l 157 443 l 157 457 b 218 539 157 504 178 539 b 282 443 258 539 282 513 l 282 424 l 192 400 b 26 86 69 368 26 261 b 174 -169 26 -81 90 -169 z m 706 679 l 706 725 l 588 725 l 588 -151 l 706 -151 l 706 469 l 721 497 b 788 372 763 526 788 483 l 788 -151 l 906 -151 l 906 400 b 903 475 906 426 904 451 l 917 496 b 986 372 961 521 986 483 l 986 -151 l 1106 -151 l 1106 400 b 924 710 1106 656 1022 772 b 867 654 906 699 886 678 b 731 710 836 722 789 743 z m 211 363 b 322 121 214 232 267 126 b 211 -117 267 115 214 7 b 97 119 208 6 156 114 b 211 363 156 125 208 232 z m 492 -167 b 568 -65 536 -167 568 -122 b 492 39 568 -6 536 39 b 415 -65 446 39 415 -6 b 492 -167 415 -122 446 -167 z m 1201 -167 b 1278 -65 1246 -167 1278 -122 b 1201 39 1278 -6 1246 39 b 1124 -65 1156 39 1124 -6 b 1201 -167 1124 -122 1156 -167 z "},"㏘":{"ha":0,"x_min":0,"x_max":0,"o":"m 689 679 l 689 725 l 565 725 l 565 -151 l 689 -151 l 689 469 l 711 497 b 774 372 751 526 774 483 l 774 -151 l 897 -151 l 897 400 b 894 472 897 425 896 450 l 917 496 b 982 372 957 521 982 483 l 982 -151 l 1106 -151 l 1106 400 b 928 714 1106 656 1033 763 b 856 656 906 704 879 682 b 721 710 822 724 775 743 z m 157 -490 l 157 -151 l 251 -151 b 440 279 369 -151 440 33 b 251 725 440 526 375 725 l 32 725 l 32 -490 z m 240 681 b 400 289 243 422 290 294 b 240 -108 290 282 243 140 b 81 288 239 140 190 281 b 240 681 190 293 239 422 z m 474 -167 b 550 -65 518 -167 550 -122 b 474 39 550 -6 518 39 b 397 -65 428 39 397 -6 b 474 -167 397 -122 428 -167 z m 1201 -167 b 1278 -65 1246 -167 1278 -122 b 1201 39 1278 -6 1246 39 b 1124 -65 1156 39 1124 -6 b 1201 -167 1124 -122 1156 -167 z "},"℡":{"ha":132,"x_min":0,"x_max":0,"o":"m 279 926 l 415 926 l 415 1024 l 21 1024 l 21 926 l 157 926 l 157 508 l 279 508 z m 765 508 l 765 631 b 563 593 692 604 625 593 l 563 721 l 760 721 l 760 819 l 563 819 l 563 926 l 765 926 l 765 1024 l 440 1024 l 440 508 z m 799 508 l 1108 508 l 1108 633 b 921 596 1049 607 996 597 l 921 1024 l 799 1024 z "},"！":{"ha":0,"x_min":0,"x_max":0,"o":"m 556 267 l 736 267 l 788 1056 l 504 1056 z m 646 -169 b 803 -15 738 -169 803 -103 b 646 142 803 75 738 142 b 489 -15 553 142 489 75 b 646 -169 489 -103 553 -169 z "},"＂":{"ha":0,"x_min":0,"x_max":0,"o":"m 413 700 l 586 700 l 624 1111 l 361 1111 z m 704 700 l 878 700 l 929 1111 l 667 1111 z "},"＃":{"ha":0,"x_min":0,"x_max":0,"o":"m 1075 665 l 1075 846 l 944 846 l 967 1025 l 793 1025 l 771 846 l 603 846 l 625 1025 l 451 1025 l 429 846 l 268 846 l 268 665 l 407 665 l 353 225 l 217 225 l 217 44 l 331 44 l 307 -153 l 485 -153 l 508 44 l 672 44 l 649 -153 l 826 -153 l 850 44 l 1026 44 l 1026 225 l 871 225 l 924 665 z m 582 665 l 749 665 l 694 225 l 529 225 z "},"＄":{"ha":0,"x_min":0,"x_max":0,"o":"m 1086 211 b 890 474 1086 360 1000 414 l 671 593 b 538 707 585 640 538 650 b 657 807 538 767 581 807 b 786 694 739 807 786 765 l 1047 694 b 765 1013 1047 867 919 978 l 765 1181 l 553 1181 l 553 1017 b 240 694 358 988 240 871 b 440 415 240 538 322 476 l 664 300 b 790 183 718 271 790 231 b 657 67 790 122 753 67 b 488 224 544 67 488 140 l 206 224 b 553 -147 206 15 349 -115 l 553 -294 l 765 -294 l 765 -144 b 1086 211 976 -104 1086 51 z "},"％":{"ha":0,"x_min":0,"x_max":0,"o":"m 292 436 b 590 740 464 436 590 533 b 292 1042 590 949 464 1042 b -6 740 119 1042 -6 949 b 292 436 -6 533 119 436 z m 1143 1042 l 954 1042 l 151 -169 l 340 -169 z m 292 1006 b 551 740 296 872 397 746 b 292 474 397 733 296 608 b 35 740 286 608 189 733 b 292 1006 189 746 286 872 z m 1001 435 b 703 131 829 435 703 338 b 1001 -171 703 -78 829 -171 b 1299 131 1174 -171 1299 -78 b 1001 435 1299 338 1174 435 z m 1001 -135 b 742 131 996 -1 896 124 b 1001 396 896 136 996 263 b 1258 131 1006 263 1104 136 b 1001 -135 1104 124 1006 -1 z "},"＆":{"ha":0,"x_min":0,"x_max":0,"o":"m 1153 476 l 910 476 b 840 240 910 371 892 306 l 640 456 l 724 513 b 860 761 806 567 860 651 b 532 1042 860 926 724 1042 b 197 726 342 1042 197 906 b 293 510 197 640 251 557 l 318 482 l 264 446 b 100 164 169 383 100 285 b 540 -175 100 -47 276 -175 b 854 -85 669 -175 772 -133 b 1190 -175 939 -143 1040 -175 l 1190 47 b 1019 89 1122 47 1068 63 b 1153 476 1113 207 1153 375 z m 500 607 b 424 747 465 644 424 704 b 536 857 424 814 471 857 b 644 761 589 857 644 815 b 579 650 644 711 621 676 l 504 601 z m 533 40 b 367 181 432 40 367 97 b 440 318 367 224 382 276 l 456 329 l 681 79 b 533 40 640 57 594 40 z "},"＇":{"ha":0,"x_min":0,"x_max":0,"o":"m 556 700 l 736 700 l 788 1111 l 504 1111 z "},"（":{"ha":0,"x_min":0,"x_max":0,"o":"m 853 397 b 1101 -389 853 103 949 -161 l 1278 -389 b 1082 397 1146 -174 1082 185 b 1278 1183 1082 610 1146 968 l 1101 1183 b 853 397 949 956 853 692 z "},"）":{"ha":0,"x_min":0,"x_max":0,"o":"m 439 397 b 190 1183 439 692 343 956 l 14 1183 b 210 397 146 968 210 610 b 14 -389 210 185 146 -174 l 190 -389 b 439 397 343 -161 439 103 z "},"＊":{"ha":0,"x_min":0,"x_max":0,"o":"m 753 1153 l 538 1153 l 561 956 l 383 1039 l 317 835 l 511 797 l 376 653 l 550 526 l 646 700 l 742 528 l 915 654 l 779 797 l 975 836 l 908 1040 l 728 956 z "},"＋":{"ha":0,"x_min":0,"x_max":0,"o":"m 528 846 l 528 551 l 249 551 l 249 346 l 528 346 l 528 51 l 764 51 l 764 346 l 1043 346 l 1043 551 l 764 551 l 764 846 z "},"，":{"ha":0,"x_min":0,"x_max":0,"o":"m 390 -22 b 233 142 383 68 325 142 b 76 -15 140 142 76 75 b 188 -157 76 -87 119 -140 b 69 -265 175 -212 142 -244 l 69 -369 b 390 -22 260 -356 404 -196 z "},"－":{"ha":0,"x_min":0,"x_max":0,"o":"m 415 344 l 876 344 l 876 553 l 415 553 z "},"．":{"ha":0,"x_min":0,"x_max":0,"o":"m 233 -169 b 390 -15 325 -169 390 -103 b 233 142 390 75 325 142 b 76 -15 140 142 76 75 b 233 -169 76 -103 140 -169 z "},"／":{"ha":0,"x_min":0,"x_max":0,"o":"m 394 -332 l 578 -332 l 899 1156 l 715 1156 z "},"０":{"ha":0,"x_min":0,"x_max":0,"o":"m 646 1040 b 194 610 372 1040 194 872 l 194 261 b 646 -169 194 -1 372 -169 b 1097 261 919 -169 1097 -1 l 1097 610 b 646 1040 1097 872 919 1040 z m 233 436 b 646 988 467 436 638 690 b 1058 438 654 690 824 438 b 646 -112 824 438 654 183 b 233 436 638 183 467 436 z "},"１":{"ha":0,"x_min":0,"x_max":0,"o":"m 899 -151 l 899 1024 l 690 1024 l 393 839 l 393 617 l 621 746 l 621 -151 z "},"２":{"ha":0,"x_min":0,"x_max":0,"o":"m 1068 -151 l 1068 126 b 553 36 925 54 724 36 l 867 313 b 1079 661 1014 443 1079 539 b 643 1040 1079 872 932 1040 b 229 640 357 1040 215 836 l 479 640 b 640 818 465 751 533 818 b 801 668 739 818 801 757 b 597 374 801 554 724 486 l 215 33 l 215 -151 z "},"３":{"ha":0,"x_min":0,"x_max":0,"o":"m 497 354 l 581 354 b 817 196 717 354 817 297 b 624 58 817 113 733 58 b 446 183 532 58 446 107 l 196 183 b 653 -169 196 -53 396 -169 b 1094 185 886 -169 1094 -21 b 879 465 1094 336 1001 428 b 1053 728 971 501 1053 621 b 649 1042 1053 900 894 1042 b 249 718 389 1042 242 889 l 492 718 b 633 822 492 779 560 822 b 775 701 717 822 775 772 b 581 549 775 613 725 549 l 497 549 z "},"４":{"ha":0,"x_min":0,"x_max":0,"o":"m 1143 246 l 1003 246 l 1003 1024 l 753 1024 l 176 232 l 176 24 l 739 24 l 739 -151 l 1003 -151 l 1003 24 l 1143 24 z m 688 801 b 981 450 692 606 796 457 b 688 79 792 442 688 269 b 393 449 688 269 583 440 b 688 801 578 456 682 606 z "},"５":{"ha":0,"x_min":0,"x_max":0,"o":"m 646 -175 b 1110 254 872 -175 1110 -11 b 703 638 1110 503 901 638 b 546 614 660 638 583 628 l 546 803 l 1001 803 l 1001 1025 l 271 1025 l 271 451 l 428 376 b 633 435 489 411 558 435 b 828 247 744 435 828 363 b 635 53 828 139 760 53 b 432 215 531 53 439 115 l 182 215 b 646 -175 182 -54 414 -175 z "},"６":{"ha":0,"x_min":0,"x_max":0,"o":"m 646 -174 b 1092 207 914 -174 1092 -10 l 1092 272 b 646 613 1092 475 900 613 b 472 582 593 613 507 599 l 472 697 b 639 819 472 774 547 819 b 792 710 728 819 792 775 l 792 703 l 1064 703 l 1064 710 b 639 1042 1064 899 904 1042 b 200 690 385 1042 200 904 l 200 207 b 646 -174 200 -10 378 -174 z m 646 -106 b 271 221 639 138 511 217 b 646 551 511 225 639 318 b 1021 222 651 318 779 226 b 646 -106 779 218 651 138 z "},"７":{"ha":0,"x_min":0,"x_max":0,"o":"m 454 -151 l 732 -151 l 732 176 b 1076 867 732 482 883 708 l 1076 1024 l 214 1024 l 214 801 l 869 801 b 454 149 618 699 454 429 z "},"８":{"ha":0,"x_min":0,"x_max":0,"o":"m 646 1042 b 222 710 379 1042 222 924 l 222 700 b 344 476 222 611 265 528 b 181 207 242 422 181 332 l 181 192 b 646 -169 181 -57 372 -169 b 1111 192 919 -169 1111 -57 l 1111 207 b 947 476 1111 331 1050 421 b 1071 700 1026 528 1071 610 l 1071 710 b 646 1042 1071 924 914 1042 z m 642 986 b 992 743 650 840 817 747 b 642 501 817 739 650 657 b 292 743 633 657 467 739 b 642 986 467 747 633 840 z m 236 182 b 642 486 421 182 642 290 b 1033 181 642 294 851 186 b 642 -122 851 175 642 82 b 236 182 642 88 421 168 z "},"９":{"ha":0,"x_min":0,"x_max":0,"o":"m 646 1042 b 200 663 378 1042 200 879 l 200 597 b 646 260 200 394 392 260 b 819 290 699 260 785 274 l 819 175 b 653 53 819 99 744 53 b 500 163 564 53 500 97 l 500 169 l 228 169 l 228 163 b 653 -169 228 -26 388 -169 b 1092 182 907 -169 1092 -32 l 1092 663 b 646 1042 1092 879 914 1042 z m 646 974 b 1021 649 651 731 779 653 b 646 301 774 643 646 549 b 271 647 646 549 518 643 b 646 974 511 651 639 731 z "},"：":{"ha":0,"x_min":0,"x_max":0,"o":"m 646 600 b 803 754 738 600 803 667 b 646 911 803 844 738 911 b 489 754 553 911 489 844 b 646 600 489 667 553 600 z m 646 -25 b 803 129 738 -25 803 42 b 646 286 803 219 738 286 b 489 129 553 286 489 219 b 646 -25 489 42 553 -25 z "},"；":{"ha":0,"x_min":0,"x_max":0,"o":"m 649 600 b 806 754 740 600 806 667 b 649 911 806 844 740 911 b 492 754 556 911 492 844 b 649 600 492 667 556 600 z m 806 143 b 649 300 806 233 740 300 b 492 143 556 300 492 233 b 599 1 492 72 533 19 b 485 -93 585 -46 550 -74 l 485 -197 b 806 136 674 -183 803 -36 z "},"＜":{"ha":0,"x_min":0,"x_max":0,"o":"m 972 415 l 1278 828 l 1278 1114 l 757 521 l 757 301 l 1278 -292 l 1278 -6 l 972 407 z "},"＝":{"ha":0,"x_min":0,"x_max":0,"o":"m 288 553 l 1003 553 l 1003 754 l 288 754 z m 288 139 l 1003 139 l 1003 340 l 288 340 z "},"＞":{"ha":0,"x_min":0,"x_max":0,"o":"m 319 407 l 14 -6 l 14 -292 l 535 301 l 535 521 l 14 1114 l 14 828 l 319 415 z "},"？":{"ha":0,"x_min":0,"x_max":0,"o":"m 522 267 l 772 267 b 806 407 772 307 778 374 l 946 576 b 1025 768 990 631 1025 689 b 658 1081 1025 988 854 1081 b 267 740 433 1081 267 939 l 517 740 b 638 854 517 815 572 854 b 751 749 703 854 751 818 b 714 658 751 718 739 688 l 606 531 b 522 313 557 472 522 401 z m 651 -169 b 808 -15 743 -169 808 -103 b 651 142 808 75 743 142 b 494 -15 558 142 494 75 b 651 -169 494 -103 558 -169 z "},"＠":{"ha":0,"x_min":0,"x_max":0,"o":"m 654 774 b 347 369 467 774 347 590 b 642 -17 347 147 457 -17 b 821 108 713 -17 793 38 b 975 -17 842 26 894 -17 b 1261 488 1076 -17 1261 150 b 721 1143 1261 872 1051 1143 b 32 307 344 1143 32 792 b 624 -403 32 -165 328 -403 b 932 -319 729 -403 843 -381 l 932 -167 b 642 -232 874 -204 717 -232 b 188 313 415 -232 188 -46 b 701 974 188 724 440 974 b 1115 479 993 974 1115 750 b 996 167 1115 285 1051 167 b 956 342 967 167 956 229 l 956 768 l 786 768 l 786 708 b 654 774 760 753 704 774 z m 644 700 b 868 376 650 526 760 383 b 644 51 760 368 650 224 b 422 375 639 224 531 368 b 644 700 531 382 639 526 z "},"Ａ":{"ha":0,"x_min":0,"x_max":0,"o":"m 922 -151 l 1219 -151 l 785 1024 l 508 1024 l 72 -151 l 369 -151 l 449 68 l 843 68 z m 900 515 b 646 117 704 515 646 315 b 392 515 646 315 588 515 b 646 897 582 515 643 692 b 900 515 649 692 708 515 z "},"Ｂ":{"ha":0,"x_min":0,"x_max":0,"o":"m 151 1024 l 151 -151 l 686 -151 b 1113 213 943 -151 1113 -21 b 913 490 1113 335 1024 460 b 1053 733 992 536 1053 638 b 671 1024 1053 931 886 1024 z m 613 986 b 963 743 621 828 788 747 b 613 501 788 739 621 669 b 263 743 604 669 438 739 b 613 986 438 747 604 828 z m 613 486 b 990 182 613 294 808 188 b 613 -121 808 176 613 83 b 235 183 613 83 415 178 b 613 486 415 188 613 294 z "},"Ｃ":{"ha":0,"x_min":0,"x_max":0,"o":"m 875 303 l 875 247 b 646 53 875 118 790 53 b 417 275 501 53 417 132 l 417 596 b 646 818 417 739 501 818 b 875 624 790 818 875 753 l 875 582 l 1153 582 l 1153 638 b 646 1040 1153 886 947 1040 b 139 610 344 1040 139 872 l 139 261 b 646 -169 139 -1 344 -169 b 1153 233 947 -169 1153 -15 l 1153 303 z "},"Ｄ":{"ha":0,"x_min":0,"x_max":0,"o":"m 164 -151 l 669 -151 b 1154 436 971 -151 1154 82 b 669 1024 1154 790 971 1024 l 164 1024 z m 189 443 b 657 1013 429 443 657 706 b 1125 444 657 706 885 444 b 657 -122 885 444 657 185 b 189 443 657 185 429 443 z "},"Ｅ":{"ha":0,"x_min":0,"x_max":0,"o":"m 1047 -151 l 1047 126 b 521 43 879 67 726 43 l 521 333 l 1033 333 l 1033 558 l 521 558 l 521 801 l 1047 801 l 1047 1024 l 243 1024 l 243 -151 z "},"Ｆ":{"ha":0,"x_min":0,"x_max":0,"o":"m 1049 1024 l 269 1024 l 269 -151 l 547 -151 l 547 275 l 1014 275 l 1014 504 l 547 504 l 547 801 l 1049 801 z "},"Ｇ":{"ha":0,"x_min":0,"x_max":0,"o":"m 1167 481 l 629 481 l 629 272 l 900 272 l 900 247 b 646 53 900 118 801 53 b 403 275 501 53 403 132 l 403 596 b 646 818 403 739 501 818 b 868 638 790 818 868 753 l 868 596 l 1146 596 l 1146 651 b 646 1040 1146 889 947 1040 b 125 610 344 1040 125 872 l 125 261 b 646 -169 125 -1 344 -169 b 1167 233 961 -169 1167 -15 z "},"Ｈ":{"ha":0,"x_min":0,"x_max":0,"o":"m 1129 -151 l 1129 1024 l 851 1024 l 851 553 l 440 553 l 440 1024 l 163 1024 l 163 -151 l 440 -151 l 440 331 l 851 331 l 851 -151 z "},"Ｉ":{"ha":0,"x_min":0,"x_max":0,"o":"m 785 1024 l 507 1024 l 507 -151 l 785 -151 z "},"Ｊ":{"ha":0,"x_min":0,"x_max":0,"o":"m 236 200 b 639 -169 236 -3 375 -169 b 1056 226 903 -169 1056 17 l 1056 1024 l 778 1024 l 778 218 b 639 74 778 131 729 74 b 500 200 557 74 500 113 z "},"Ｋ":{"ha":0,"x_min":0,"x_max":0,"o":"m 147 -151 l 425 -151 l 425 192 l 544 342 l 839 -151 l 1144 -151 l 711 550 l 1089 1024 l 783 1024 l 425 572 l 425 1024 l 147 1024 z "},"Ｌ":{"ha":0,"x_min":0,"x_max":0,"o":"m 275 -151 l 1043 -151 l 1043 133 b 553 47 910 72 725 50 l 553 1024 l 275 1024 z "},"Ｍ":{"ha":0,"x_min":0,"x_max":0,"o":"m 699 400 b 658 211 681 336 669 274 b 619 400 649 274 636 336 l 422 1024 l 88 1024 l 88 -151 l 347 -151 l 347 333 b 328 618 347 406 336 532 l 556 -124 l 763 -124 l 990 618 b 971 333 982 532 971 406 l 971 -151 l 1231 -151 l 1231 1024 l 896 1024 z "},"Ｎ":{"ha":0,"x_min":0,"x_max":0,"o":"m 1132 -151 l 1132 1024 l 857 1024 l 857 483 b 865 286 857 418 857 350 b 771 472 839 354 806 415 l 433 1024 l 158 1024 l 158 -151 l 433 -151 l 433 372 b 425 561 433 431 431 496 b 511 428 460 514 482 476 l 857 -151 z "},"Ｏ":{"ha":0,"x_min":0,"x_max":0,"o":"m 646 1040 b 125 610 331 1040 125 872 l 125 261 b 646 -169 125 -1 331 -169 b 1167 261 961 -169 1167 -1 l 1167 610 b 646 1040 1167 872 961 1040 z m 164 436 b 646 1011 404 436 646 704 b 1128 438 646 704 888 438 b 646 -136 888 438 646 171 b 164 436 646 171 404 436 z "},"Ｐ":{"ha":0,"x_min":0,"x_max":0,"o":"m 450 -151 l 450 200 l 693 200 b 1119 604 936 200 1119 358 b 693 1024 1119 851 950 1024 l 172 1024 l 172 -151 z m 640 979 b 1011 614 640 775 831 621 b 640 246 831 606 640 436 b 269 613 640 436 450 604 b 640 979 450 619 640 775 z "},"Ｑ":{"ha":0,"x_min":0,"x_max":0,"o":"m 646 1042 b 125 611 331 1042 125 874 l 125 275 b 515 -144 125 50 275 -104 b 1000 -425 528 -361 758 -425 l 1097 -425 l 1097 -203 l 958 -203 b 796 -140 847 -203 806 -171 b 1167 275 1024 -94 1167 57 l 1167 611 b 646 1042 1167 874 961 1042 z m 164 443 b 646 1013 404 443 646 706 b 1128 444 646 706 888 444 b 646 -122 888 444 646 185 b 164 443 646 185 404 443 z "},"Ｒ":{"ha":0,"x_min":0,"x_max":0,"o":"m 426 -151 l 426 228 l 606 228 l 838 -151 l 1143 -151 l 885 272 b 1094 618 1013 333 1094 453 b 669 1024 1094 865 926 1024 l 149 1024 l 149 -151 z m 617 979 b 988 628 617 775 807 635 b 617 274 807 619 617 464 b 246 626 617 464 426 618 b 617 979 426 633 617 775 z "},"Ｓ":{"ha":0,"x_min":0,"x_max":0,"o":"m 654 -169 b 1121 204 938 -169 1121 18 b 925 483 1121 353 1039 435 l 643 600 b 510 714 553 639 510 657 b 657 814 510 774 581 814 b 814 688 739 814 814 758 l 1075 688 b 657 1042 1075 899 888 1042 b 213 701 403 1042 213 908 b 413 408 213 544 290 460 l 699 290 b 825 176 756 267 825 228 b 657 60 825 115 753 60 b 453 217 544 60 453 124 l 171 217 b 654 -169 171 -24 376 -169 z "},"Ｔ":{"ha":0,"x_min":0,"x_max":0,"o":"m 785 801 l 1128 801 l 1128 1024 l 164 1024 l 164 801 l 507 801 l 507 -151 l 785 -151 z "},"Ｕ":{"ha":0,"x_min":0,"x_max":0,"o":"m 854 1024 l 854 317 b 646 53 854 151 778 53 b 438 317 514 53 438 151 l 438 1024 l 160 1024 l 160 317 b 646 -169 160 47 331 -169 b 1132 317 961 -169 1132 47 l 1132 1024 z "},"Ｖ":{"ha":0,"x_min":0,"x_max":0,"o":"m 1213 1024 l 932 1024 l 725 443 b 646 167 690 347 672 268 b 567 443 619 268 601 346 l 360 1024 l 79 1024 l 501 -151 l 790 -151 z "},"Ｗ":{"ha":0,"x_min":0,"x_max":0,"o":"m 1292 1024 l 1035 1024 l 938 413 l 897 135 b 860 411 886 226 872 319 l 765 1024 l 525 1024 l 432 411 b 394 135 418 319 406 226 b 353 413 381 228 368 319 l 256 1024 l 0 1024 l 210 -151 l 539 -151 l 635 483 l 644 556 b 656 483 647 532 651 508 l 753 -151 l 1082 -151 z "},"Ｘ":{"ha":0,"x_min":0,"x_max":0,"o":"m 115 1024 l 475 440 l 113 -151 l 426 -151 l 644 221 l 864 -151 l 1178 -151 l 815 440 l 1174 1024 l 860 1024 l 644 660 l 429 1024 z "},"Ｙ":{"ha":0,"x_min":0,"x_max":0,"o":"m 785 -151 l 785 306 l 1201 1024 l 888 1024 l 646 572 l 404 1024 l 90 1024 l 507 306 l 507 -151 z "},"Ｚ":{"ha":0,"x_min":0,"x_max":0,"o":"m 211 -151 l 1094 -151 l 1094 126 b 536 36 951 54 721 36 l 1088 843 l 1088 1024 l 225 1024 l 225 801 l 760 801 l 211 29 z "},"［":{"ha":0,"x_min":0,"x_max":0,"o":"m 896 -333 l 1285 -333 l 1285 -181 l 1104 -181 l 1104 1003 l 1285 1003 l 1285 1156 l 896 1156 z "},"￦":{"ha":0,"x_min":0,"x_max":0,"o":"m 1286 972 l 1032 972 l 965 575 l 826 575 l 764 972 l 526 972 l 463 575 l 324 575 l 258 972 l 4 972 l 78 575 l 7 575 l 7 479 l 96 479 l 211 -144 l 539 -144 l 635 460 b 638 479 635 465 636 472 l 653 479 b 656 460 653 472 654 465 l 750 -144 l 1078 -144 l 1194 479 l 1285 479 l 1285 575 l 1213 575 z m 394 128 b 354 392 382 217 369 303 l 339 479 l 447 479 l 433 390 b 394 128 419 303 406 215 z m 894 128 b 857 390 883 215 871 303 l 842 479 l 949 479 l 935 392 z "},"］":{"ha":0,"x_min":0,"x_max":0,"o":"m 396 1156 l 7 1156 l 7 1003 l 188 1003 l 188 -181 l 7 -181 l 7 -333 l 396 -333 z "},"＾":{"ha":0,"x_min":0,"x_max":0,"o":"m 774 1210 l 518 1210 l 253 810 l 482 810 l 646 999 l 810 810 l 1039 810 z "},"＿":{"ha":0,"x_min":0,"x_max":0,"o":"m 215 -325 l 1075 -325 l 1075 -168 l 215 -168 z "},"｀":{"ha":0,"x_min":0,"x_max":0,"o":"m 743 703 l 881 839 l 600 1174 l 410 985 z "},"ａ":{"ha":0,"x_min":0,"x_max":0,"o":"m 556 -169 b 819 -101 663 -169 768 -139 l 819 -151 l 1078 -151 l 1078 443 b 653 739 1078 615 893 739 b 242 471 401 739 242 621 l 242 443 l 514 443 l 514 457 b 653 539 514 504 564 539 b 806 443 744 539 806 513 l 806 424 l 597 400 b 214 86 314 368 214 261 b 556 -169 214 -81 367 -169 z m 639 363 b 894 121 644 232 765 126 b 639 -126 761 115 639 0 b 382 119 639 0 515 114 b 639 363 513 125 632 232 z "},"ｂ":{"ha":0,"x_min":0,"x_max":0,"o":"m 200 1024 l 200 -151 l 679 -151 b 1092 294 950 -151 1092 47 b 679 725 1092 540 936 725 l 472 725 l 472 1024 z m 654 679 b 1001 285 658 431 761 292 b 654 -108 761 278 658 150 b 307 286 649 150 546 279 b 654 679 546 293 649 431 z "},"ｃ":{"ha":0,"x_min":0,"x_max":0,"o":"m 813 224 l 813 182 b 646 44 813 113 749 44 b 479 224 543 44 479 124 l 479 351 b 646 531 479 451 543 531 b 813 393 749 531 813 463 l 813 365 l 1085 365 l 1085 407 b 646 744 1085 579 922 744 b 207 365 383 744 207 596 l 207 210 b 646 -169 207 -21 383 -169 b 1085 168 936 -169 1085 -4 l 1085 224 z "},"ｄ":{"ha":0,"x_min":0,"x_max":0,"o":"m 819 1024 l 819 725 l 613 725 b 200 294 356 725 200 540 b 613 -151 200 47 342 -151 l 1092 -151 l 1092 1024 z m 638 -129 b 290 285 638 143 536 278 b 638 679 529 292 632 431 b 985 286 642 431 744 293 b 638 -129 739 279 638 143 z "},"ｅ":{"ha":0,"x_min":0,"x_max":0,"o":"m 472 190 l 1092 190 l 1092 365 b 646 744 1092 596 900 744 b 200 365 392 744 200 596 l 200 199 b 646 -171 200 -18 392 -171 b 1078 88 894 -171 1078 -60 l 1078 128 l 806 128 l 806 101 b 646 33 806 57 746 33 b 472 185 554 33 472 85 z m 660 679 b 943 467 667 525 813 469 b 660 239 808 463 660 393 b 364 465 660 393 500 461 b 660 679 496 468 651 525 z "},"ｆ":{"ha":0,"x_min":0,"x_max":0,"o":"m 924 1119 l 815 1119 b 481 768 565 1119 481 957 l 481 731 l 361 731 l 361 508 l 481 508 l 481 -151 l 753 -151 l 753 508 l 931 508 l 931 731 l 753 731 l 753 776 b 856 897 753 865 794 897 l 924 897 z "},"ｇ":{"ha":0,"x_min":0,"x_max":0,"o":"m 646 744 b 186 365 378 744 186 582 l 186 238 b 646 -128 186 35 392 -128 b 833 -97 699 -128 799 -121 l 833 -151 b 653 -275 833 -221 758 -275 b 486 -179 550 -275 486 -237 l 486 -158 l 214 -158 l 214 -193 b 653 -489 214 -354 388 -489 b 1106 -165 907 -489 1106 -337 l 1106 365 b 646 744 1106 582 914 744 z m 646 689 b 993 310 650 431 753 315 b 646 -93 747 303 646 168 b 299 308 646 168 544 301 b 646 689 538 314 640 431 z "},"ｈ":{"ha":0,"x_min":0,"x_max":0,"o":"m 669 715 l 511 688 l 511 1024 l 239 1024 l 239 -151 l 511 -151 l 511 474 l 628 501 b 781 378 728 525 781 489 l 781 -151 l 1053 -151 l 1053 406 b 669 715 1053 661 914 758 z "},"ｉ":{"ha":0,"x_min":0,"x_max":0,"o":"m 646 817 b 796 969 733 817 796 886 b 646 1125 796 1056 733 1125 b 496 969 557 1125 496 1056 b 646 817 496 886 557 817 z m 510 -151 l 782 -151 l 782 714 l 510 714 z "},"ｊ":{"ha":0,"x_min":0,"x_max":0,"o":"m 724 817 b 874 969 811 817 874 886 b 724 1125 874 1056 811 1125 b 574 969 635 1125 574 1056 b 724 817 574 886 635 817 z m 418 -489 l 539 -489 b 860 -118 792 -489 860 -318 l 860 714 l 588 714 l 588 -137 b 481 -267 588 -228 547 -267 l 418 -267 z "},"ｋ":{"ha":0,"x_min":0,"x_max":0,"o":"m 471 1024 l 199 1024 l 199 -151 l 471 -151 l 471 115 l 543 192 l 786 -151 l 1092 -151 l 711 367 l 1056 725 l 750 725 l 471 438 z "},"ｌ":{"ha":0,"x_min":0,"x_max":0,"o":"m 449 118 b 769 -169 449 -54 544 -169 l 842 -169 l 842 53 l 786 53 b 721 113 747 53 721 64 l 721 1024 l 449 1024 z "},"ｍ":{"ha":0,"x_min":0,"x_max":0,"o":"m 261 679 l 261 725 l -11 725 l -11 -151 l 261 -151 l 261 469 l 357 497 b 510 372 456 526 510 483 l 510 -151 l 782 -151 l 782 400 b 776 471 782 425 779 449 l 871 496 b 1031 372 971 521 1031 483 l 1031 -151 l 1303 -151 l 1303 400 b 878 714 1303 656 1135 763 b 696 651 822 703 756 679 b 381 710 626 722 517 743 z "},"ｎ":{"ha":0,"x_min":0,"x_max":0,"o":"m 669 714 l 511 683 l 511 725 l 239 725 l 239 -151 l 511 -151 l 511 469 l 628 500 b 781 372 728 526 781 483 l 781 -151 l 1053 -151 l 1053 400 b 669 714 1053 656 914 761 z "},"ｏ":{"ha":0,"x_min":0,"x_max":0,"o":"m 646 744 b 193 365 364 744 193 568 l 193 208 b 646 -171 193 -8 364 -171 b 1099 208 928 -171 1099 -8 l 1099 365 b 646 744 1099 568 928 744 z m 646 682 b 993 289 650 424 753 294 b 646 -107 753 282 650 142 b 299 288 640 140 538 281 b 646 682 538 293 640 424 z "},"ｐ":{"ha":0,"x_min":0,"x_max":0,"o":"m 472 -490 l 472 -151 l 679 -151 b 1092 279 936 -151 1092 33 b 679 725 1092 526 950 725 l 200 725 l 200 -490 z m 654 681 b 1001 289 658 422 761 294 b 654 -108 761 282 658 140 b 307 288 649 140 546 281 b 654 681 546 293 649 422 z "},"ｑ":{"ha":0,"x_min":0,"x_max":0,"o":"m 1092 -490 l 1092 725 l 613 725 b 200 279 342 725 200 526 b 613 -151 200 33 356 -151 l 819 -151 l 819 -490 z m 638 -108 b 290 289 632 140 529 282 b 638 681 529 294 632 422 b 985 288 642 422 744 293 b 638 -108 744 281 642 140 z "},"ｒ":{"ha":0,"x_min":0,"x_max":0,"o":"m 646 725 l 374 725 l 374 -151 l 646 -151 l 646 250 b 882 489 669 390 764 489 l 918 489 l 918 725 l 864 725 b 646 572 747 725 676 651 z "},"ｓ":{"ha":0,"x_min":0,"x_max":0,"o":"m 661 -175 b 1089 107 906 -185 1078 -60 b 907 343 1097 236 1015 304 l 631 442 b 561 501 583 461 561 476 b 675 546 561 528 613 546 b 799 469 736 546 803 525 l 1035 469 b 676 744 1063 624 888 744 b 289 482 467 744 289 657 b 490 247 289 369 365 289 l 735 167 b 815 106 778 151 815 133 b 668 36 815 67 760 33 b 507 146 589 39 493 81 l 257 146 b 661 -175 235 -28 392 -164 z "},"ｔ":{"ha":0,"x_min":0,"x_max":0,"o":"m 928 71 l 865 71 b 758 200 799 71 758 110 l 758 501 l 928 501 l 928 724 l 758 724 l 758 1025 l 486 1025 l 486 724 l 364 724 l 364 501 l 486 501 l 486 219 b 807 -151 486 19 554 -151 l 928 -151 z "},"ｕ":{"ha":0,"x_min":0,"x_max":0,"o":"m 781 -111 l 781 -151 l 1053 -151 l 1053 725 l 781 725 l 781 103 l 664 72 b 511 200 564 46 511 89 l 511 725 l 239 725 l 239 172 b 622 -142 239 -83 378 -189 z "},"ｖ":{"ha":0,"x_min":0,"x_max":0,"o":"m 1125 725 l 842 725 l 710 315 b 646 103 689 247 664 172 b 582 315 626 172 601 247 l 450 725 l 167 725 l 458 -151 l 833 -151 z "},"ｗ":{"ha":0,"x_min":0,"x_max":0,"o":"m 1303 725 l 1029 725 l 950 314 b 906 63 935 229 919 147 l 772 725 l 521 725 l 388 63 b 343 314 374 147 358 229 l 264 725 l -10 725 l 183 -151 l 536 -151 l 629 274 b 646 361 635 299 640 329 b 664 274 651 329 658 299 l 757 -151 l 1110 -151 z "},"ｘ":{"ha":0,"x_min":0,"x_max":0,"o":"m 189 726 l 486 293 l 181 -151 l 482 -151 l 644 103 l 808 -151 l 1110 -151 l 803 293 l 1101 726 l 799 726 l 644 493 l 492 726 z "},"ｙ":{"ha":0,"x_min":0,"x_max":0,"o":"m 360 -490 l 624 -490 l 1126 726 l 840 726 l 638 161 l 451 726 l 165 726 l 500 -153 z "},"ｚ":{"ha":0,"x_min":0,"x_max":0,"o":"m 274 -151 l 1018 -151 l 1018 126 b 586 39 903 68 742 46 l 997 546 l 997 726 l 308 726 l 308 504 l 663 504 l 274 29 z "},"｛":{"ha":0,"x_min":0,"x_max":0,"o":"m 1285 -333 l 1285 -181 l 1253 -181 b 1160 -65 1192 -181 1160 -143 l 1160 193 b 1015 410 1160 331 1108 389 b 1160 628 1108 433 1160 490 l 1160 888 b 1253 1003 1160 965 1192 1003 l 1285 1003 l 1285 1156 l 1165 1156 b 932 922 1018 1156 931 1079 l 933 626 b 794 493 933 563 911 496 l 794 329 b 933 196 911 326 933 260 l 932 -101 b 1165 -333 931 -257 1018 -333 z "},"｜":{"ha":0,"x_min":0,"x_max":0,"o":"m 556 -489 l 736 -489 l 736 1222 l 556 1222 z "},"｝":{"ha":0,"x_min":0,"x_max":0,"o":"m 126 -333 b 360 -101 274 -333 361 -257 l 358 196 b 497 329 358 260 381 326 l 497 493 b 358 626 381 496 358 563 l 360 922 b 126 1156 361 1079 274 1156 l 7 1156 l 7 1003 l 39 1003 b 132 888 100 1003 132 965 l 132 628 b 275 410 132 490 183 433 b 132 193 183 389 132 331 l 132 -65 b 39 -181 132 -143 100 -181 l 7 -181 l 7 -333 z "},"‾":{"ha":0,"x_min":0,"x_max":0,"o":"m -49 1111 l -49 1042 l 1340 1042 l 1340 1111 z "},"￣":{"ha":0,"x_min":0,"x_max":0,"o":"m -49 1111 l -49 1042 l 1340 1042 l 1340 1111 z "},"ㄱ":{"ha":0,"x_min":0,"x_max":0,"o":"m 989 29 b 1086 829 1063 297 1076 549 l 204 829 l 204 600 l 751 600 b 656 29 742 372 714 246 z "},"ㄲ":{"ha":0,"x_min":0,"x_max":0,"o":"m 557 43 b 646 829 629 311 636 549 l 185 829 l 185 600 l 328 600 b 238 43 318 372 297 260 z m 1025 43 b 1107 829 1090 311 1106 549 l 686 829 l 686 600 l 789 600 b 707 43 788 372 758 260 z "},"ㄳ":{"ha":0,"x_min":0,"x_max":0,"o":"m 597 57 l 597 829 l 139 829 l 139 586 l 319 586 l 319 57 z m 614 57 l 833 57 l 883 560 l 933 57 l 1164 57 l 1075 829 l 692 829 z "},"ㄴ":{"ha":0,"x_min":0,"x_max":0,"o":"m 197 57 l 1094 57 l 1094 313 b 515 286 913 292 746 286 l 515 829 l 197 829 z "},"ㄵ":{"ha":0,"x_min":0,"x_max":0,"o":"m 394 829 l 117 829 l 117 57 l 579 57 l 579 289 b 394 253 517 263 460 253 z m 574 607 l 647 607 l 590 57 l 835 57 l 875 603 l 915 57 l 1160 57 l 1103 607 l 1176 607 l 1176 829 l 574 829 z "},"ㄶ":{"ha":0,"x_min":0,"x_max":0,"o":"m 760 843 l 760 760 l 617 760 l 617 565 l 1194 565 l 1194 760 l 1051 760 l 1051 843 z m 389 828 l 111 828 l 111 57 l 590 57 l 590 303 b 389 267 528 276 454 267 z m 908 40 b 1189 228 1065 40 1189 114 l 1189 371 b 908 551 1189 485 1065 551 b 626 371 751 551 626 485 l 626 228 b 908 40 626 114 751 40 z m 1128 296 b 908 110 1029 293 914 275 b 689 296 901 275 786 293 b 908 482 786 297 901 315 b 1128 296 914 315 1029 297 z "},"ㄷ":{"ha":0,"x_min":0,"x_max":0,"o":"m 197 57 l 1094 57 l 1094 313 b 515 286 913 292 746 286 l 515 600 l 1081 600 l 1081 829 l 197 829 z "},"ㄸ":{"ha":0,"x_min":0,"x_max":0,"o":"m 168 57 l 633 57 l 633 304 b 469 286 594 292 510 286 l 469 600 l 633 600 l 633 829 l 168 829 z m 675 57 l 1124 57 l 1124 304 b 976 286 1086 292 1017 286 l 976 600 l 1124 600 l 1124 829 l 675 829 z "},"ㄹ":{"ha":0,"x_min":0,"x_max":0,"o":"m 197 43 l 1094 43 l 1094 285 b 515 258 913 264 746 258 l 515 350 l 1068 350 l 1068 843 l 197 843 l 197 628 l 750 628 l 750 547 l 197 547 z "},"ㄺ":{"ha":0,"x_min":0,"x_max":0,"o":"m 1160 51 l 1160 829 l 674 829 l 674 614 l 882 614 l 882 51 z m 132 621 l 375 621 l 375 529 l 132 529 l 132 51 l 694 51 l 694 361 b 396 263 608 301 536 263 l 396 354 b 639 428 510 357 564 383 l 639 829 l 132 829 z "},"ㄻ":{"ha":0,"x_min":0,"x_max":0,"o":"m 679 51 l 1160 51 l 1160 829 l 679 829 z m 132 621 l 382 621 l 382 529 l 132 529 l 132 51 l 646 51 l 646 333 b 396 261 571 282 510 261 l 396 353 b 646 426 510 356 571 382 l 646 829 l 132 829 z m 693 446 b 919 788 860 446 917 622 b 1146 447 922 622 979 447 b 919 93 979 447 922 258 b 693 446 917 258 860 446 z "},"ㄼ":{"ha":0,"x_min":0,"x_max":0,"o":"m 965 829 l 965 690 l 915 690 l 915 829 l 679 829 l 679 51 l 1201 51 l 1201 829 z m 132 621 l 382 621 l 382 529 l 132 529 l 132 51 l 646 51 l 646 333 b 396 261 571 282 510 261 l 396 353 b 646 426 510 356 571 382 l 646 829 l 132 829 z m 940 638 b 1161 378 943 510 967 385 b 940 104 967 369 943 232 b 719 376 938 232 914 369 b 940 638 914 383 938 510 z "},"ㄽ":{"ha":0,"x_min":0,"x_max":0,"o":"m 628 51 l 871 51 l 913 560 l 954 51 l 1197 51 l 1100 829 l 725 829 z m 132 621 l 354 621 l 354 529 l 132 529 l 132 51 l 618 51 l 618 318 b 396 261 543 267 482 261 l 396 353 b 618 413 482 356 543 368 l 618 829 l 132 829 z "},"ㄾ":{"ha":0,"x_min":0,"x_max":0,"o":"m 132 621 l 375 621 l 375 529 l 132 529 l 132 51 l 639 51 l 639 333 b 396 261 564 282 510 261 l 396 353 b 639 426 510 356 564 382 l 639 829 l 132 829 z m 1160 51 l 1160 333 b 938 261 1085 282 1010 261 l 938 346 b 1160 413 1051 349 1085 368 l 1160 529 l 938 529 l 938 621 l 1160 621 l 1160 829 l 674 829 l 674 51 z "},"ㄿ":{"ha":0,"x_min":0,"x_max":0,"o":"m 679 50 l 1201 50 l 1201 313 l 1147 313 l 1147 568 l 1201 568 l 1201 829 l 679 829 l 679 568 l 733 568 l 733 313 l 679 313 z m 132 621 l 382 621 l 382 529 l 132 529 l 132 51 l 646 51 l 646 333 b 396 261 571 282 510 261 l 396 353 b 646 426 510 356 571 382 l 646 829 l 132 829 z m 750 440 b 940 794 850 440 936 621 b 1131 440 944 621 1031 440 b 940 89 1031 440 944 261 b 750 440 936 261 850 440 z "},"ㅀ":{"ha":0,"x_min":0,"x_max":0,"o":"m 788 843 l 788 760 l 644 760 l 644 565 l 1222 565 l 1222 760 l 1079 760 l 1079 843 z m 132 621 l 354 621 l 354 529 l 132 529 l 132 51 l 618 51 l 618 319 b 396 261 543 268 482 261 l 396 353 b 618 413 482 356 543 368 l 618 829 l 132 829 z m 936 40 b 1217 228 1093 40 1217 114 l 1217 371 b 936 551 1217 485 1093 551 b 654 371 779 551 654 485 l 654 228 b 936 40 654 114 779 40 z m 1156 296 b 936 110 1057 293 942 275 b 717 296 929 275 814 293 b 936 482 814 297 929 315 b 1156 296 942 315 1057 297 z "},"ㅁ":{"ha":0,"x_min":0,"x_max":0,"o":"m 208 57 l 1083 57 l 1083 829 l 208 829 z m 646 810 b 1049 443 646 542 857 447 b 646 76 857 438 646 344 b 242 442 646 344 435 438 b 646 810 435 446 646 542 z "},"ㅂ":{"ha":0,"x_min":0,"x_max":0,"o":"m 208 57 l 1083 57 l 1083 829 l 765 829 l 765 688 l 526 688 l 526 829 l 208 829 z m 646 658 b 994 372 653 528 797 379 b 646 85 797 364 653 217 b 296 372 639 217 494 364 b 646 658 494 379 639 528 z "},"ㅃ":{"ha":0,"x_min":0,"x_max":0,"o":"m 176 57 l 1115 57 l 1115 829 l 853 829 l 853 650 l 769 650 l 769 829 l 522 829 l 522 650 l 439 650 l 439 829 l 176 829 z m 646 631 b 1025 358 653 500 806 365 b 646 75 800 351 646 208 b 265 358 646 208 490 351 b 646 631 485 365 638 500 z "},"ㅄ":{"ha":0,"x_min":0,"x_max":0,"o":"m 417 829 l 417 718 l 361 718 l 361 829 l 97 829 l 97 50 l 917 50 l 951 574 l 986 50 l 1257 50 l 1139 829 l 764 829 l 681 206 l 681 829 z m 389 675 b 640 383 393 543 439 390 b 389 71 428 375 389 207 b 138 382 389 207 349 374 b 389 675 338 389 385 543 z "},"ㅅ":{"ha":0,"x_min":0,"x_max":0,"o":"m 126 56 l 461 56 l 646 538 l 831 56 l 1165 56 l 861 829 l 431 829 z "},"ㅆ":{"ha":0,"x_min":0,"x_max":0,"o":"m 118 57 l 390 57 l 449 488 l 524 57 l 767 57 l 842 488 l 900 57 l 1172 57 l 1032 829 l 711 829 l 644 417 l 579 829 l 258 829 z "},"ㅇ":{"ha":0,"x_min":0,"x_max":0,"o":"m 208 364 b 646 47 208 208 343 47 b 1083 364 949 47 1083 208 l 1083 524 b 646 839 1083 679 949 839 b 208 524 343 839 208 679 z m 646 810 b 1049 443 646 542 857 447 b 646 76 857 438 646 344 b 242 442 646 344 435 438 b 646 810 435 446 646 542 z "},"ㅈ":{"ha":0,"x_min":0,"x_max":0,"o":"m 176 57 l 503 57 l 646 585 l 789 57 l 1115 57 l 939 601 l 1099 601 l 1099 831 l 193 831 l 193 601 l 353 601 z "},"ㅉ":{"ha":0,"x_min":0,"x_max":0,"o":"m 1147 601 l 1147 831 l 143 831 l 143 601 l 232 601 l 118 57 l 390 57 l 449 442 l 524 57 l 767 57 l 842 442 l 900 57 l 1172 57 l 1057 601 z m 689 601 l 644 367 l 601 601 z "},"ㅊ":{"ha":0,"x_min":0,"x_max":0,"o":"m 185 564 l 353 564 l 185 57 l 511 57 l 646 547 l 781 57 l 1107 57 l 939 564 l 1107 564 l 1107 793 l 817 793 l 817 906 l 482 906 l 482 793 l 185 793 z "},"ㅋ":{"ha":0,"x_min":0,"x_max":0,"o":"m 989 43 b 1086 829 1063 311 1076 549 l 204 829 l 204 600 l 751 599 l 743 472 l 204 472 l 204 243 l 707 243 b 656 43 693 182 676 119 z "},"ㅌ":{"ha":0,"x_min":0,"x_max":0,"o":"m 1067 547 l 515 547 l 515 628 l 1082 628 l 1082 843 l 197 843 l 197 43 l 1094 43 l 1094 285 b 515 258 913 264 746 258 l 515 350 l 1067 350 z "},"ㅍ":{"ha":0,"x_min":0,"x_max":0,"o":"m 190 600 l 286 600 l 286 286 l 190 286 l 190 57 l 1097 57 l 1100 286 l 1003 286 l 1003 600 l 1097 600 l 1097 829 l 190 829 z m 644 769 b 935 443 650 596 781 450 b 644 103 776 435 644 281 b 354 443 644 281 513 435 b 644 769 508 450 638 596 z "},"ㅎ":{"ha":0,"x_min":0,"x_max":0,"o":"m 182 600 l 1110 600 l 1110 815 l 813 815 l 813 922 l 479 922 l 479 815 l 182 815 z m 213 257 b 646 -4 213 89 392 -4 b 1079 257 900 -4 1079 89 l 1079 318 b 646 579 1079 488 900 579 b 213 318 392 579 213 488 z m 646 533 b 992 301 653 364 807 304 b 646 29 803 297 646 207 b 299 301 646 207 489 297 b 646 533 483 304 638 364 z "},"ㅏ":{"ha":0,"x_min":0,"x_max":0,"o":"m 375 -151 l 653 -151 l 653 358 l 917 358 l 917 594 l 653 594 l 653 1024 l 375 1024 z "},"ㅐ":{"ha":0,"x_min":0,"x_max":0,"o":"m 304 -151 l 558 -151 l 558 331 l 732 331 l 732 -151 l 986 -151 l 986 1024 l 732 1024 l 732 567 l 558 567 l 558 1024 l 304 1024 z "},"ㅑ":{"ha":0,"x_min":0,"x_max":0,"o":"m 375 -151 l 653 -151 l 653 133 l 903 133 l 903 356 l 653 356 l 653 564 l 903 564 l 903 786 l 653 786 l 653 1024 l 375 1024 z "},"ㅒ":{"ha":0,"x_min":0,"x_max":0,"o":"m 290 -151 l 544 -151 l 544 122 l 746 122 l 746 -151 l 1000 -151 l 1000 1024 l 746 1024 l 746 817 l 544 817 l 544 1024 l 290 1024 z m 544 581 l 746 581 l 746 358 l 544 358 z "},"ㅓ":{"ha":0,"x_min":0,"x_max":0,"o":"m 344 344 l 625 344 l 625 -151 l 903 -151 l 903 1024 l 625 1024 l 625 581 l 344 581 z "},"ㅔ":{"ha":0,"x_min":0,"x_max":0,"o":"m 214 331 l 432 331 l 432 -151 l 686 -151 l 686 1024 l 432 1024 l 432 567 l 214 567 z m 781 -151 l 1035 -151 l 1035 1024 l 781 1024 z "},"ㅕ":{"ha":0,"x_min":0,"x_max":0,"o":"m 343 106 l 629 106 l 629 -151 l 907 -151 l 907 1024 l 629 1024 l 629 751 l 343 751 l 343 529 l 629 529 l 629 328 l 343 328 z "},"ㅖ":{"ha":0,"x_min":0,"x_max":0,"o":"m 228 543 l 432 543 l 432 356 l 228 356 l 228 133 l 432 133 l 432 -151 l 686 -151 l 686 1024 l 432 1024 l 432 765 l 228 765 z m 781 -151 l 1035 -151 l 1035 1024 l 781 1024 z "},"ㅗ":{"ha":0,"x_min":0,"x_max":0,"o":"m 69 -12 l 1222 -12 l 1222 203 l 792 203 l 792 676 l 500 676 l 500 203 l 69 203 z "},"ㅘ":{"ha":0,"x_min":0,"x_max":0,"o":"m 799 -151 l 1076 -151 l 1076 372 l 1271 372 l 1271 608 l 1076 608 l 1076 1024 l 799 1024 z m 21 -12 l 743 -12 l 743 203 l 507 203 l 507 532 l 229 532 l 229 203 l 21 203 z "},"ㅙ":{"ha":0,"x_min":0,"x_max":0,"o":"m 665 -151 l 907 -151 l 907 331 l 981 331 l 981 -151 l 1222 -151 l 1222 1024 l 981 1024 l 981 567 l 907 567 l 907 1024 l 665 1024 z m 69 -12 l 617 -12 l 617 203 l 472 203 l 472 497 l 222 497 l 222 203 l 69 203 z "},"ㅚ":{"ha":0,"x_min":0,"x_max":0,"o":"m 910 -151 l 1188 -151 l 1188 1024 l 910 1024 z m 63 -12 l 854 -12 l 854 203 l 576 203 l 576 532 l 299 532 l 299 203 l 63 203 z "},"ㅛ":{"ha":0,"x_min":0,"x_max":0,"o":"m 69 -12 l 1222 -12 l 1222 203 l 1001 203 l 1001 663 l 731 663 l 731 203 l 563 203 l 563 663 l 292 663 l 292 203 l 69 203 z "},"ㅜ":{"ha":0,"x_min":0,"x_max":0,"o":"m 69 400 l 500 400 l 500 -12 l 792 -12 l 792 400 l 1222 400 l 1222 615 l 69 615 z "},"ㅝ":{"ha":0,"x_min":0,"x_max":0,"o":"m 639 3 l 944 3 l 944 -151 l 1222 -151 l 1222 1024 l 944 1024 l 944 218 l 639 218 z m 69 328 l 299 328 l 299 -137 l 590 -137 l 590 328 l 889 328 l 889 543 l 69 543 z "},"ㅞ":{"ha":0,"x_min":0,"x_max":0,"o":"m 493 17 l 674 17 l 674 -151 l 915 -151 l 915 1024 l 674 1024 l 674 232 l 493 232 z m 981 -151 l 1222 -151 l 1222 1024 l 981 1024 z m 69 328 l 201 328 l 201 -137 l 451 -137 l 451 328 l 625 328 l 625 543 l 69 543 z "},"ㅟ":{"ha":0,"x_min":0,"x_max":0,"o":"m 944 -151 l 1222 -151 l 1222 1024 l 944 1024 z m 69 432 l 326 432 l 326 -12 l 618 -12 l 618 432 l 889 432 l 889 647 l 69 647 z "},"ㅠ":{"ha":0,"x_min":0,"x_max":0,"o":"m 764 -12 l 1042 -12 l 1042 400 l 1222 400 l 1222 615 l 69 615 l 69 400 l 250 400 l 250 -12 l 528 -12 l 528 400 l 764 400 z "},"ㅡ":{"ha":0,"x_min":0,"x_max":0,"o":"m 69 265 l 1222 265 l 1222 481 l 69 481 z "},"ㅢ":{"ha":0,"x_min":0,"x_max":0,"o":"m 951 -151 l 1229 -151 l 1229 1024 l 951 1024 z m 63 -12 l 896 -12 l 896 203 l 63 203 z "},"ㅣ":{"ha":0,"x_min":0,"x_max":0,"o":"m 507 -151 l 785 -151 l 785 1024 l 507 1024 z "},"ㅥ":{"ha":0,"x_min":0,"x_max":0,"o":"m 168 57 l 633 57 l 633 304 b 469 286 594 292 510 286 l 469 829 l 168 829 z m 675 57 l 1124 57 l 1124 304 b 976 286 1086 292 1017 286 l 976 829 l 675 829 z "},"ㅦ":{"ha":0,"x_min":0,"x_max":0,"o":"m 675 57 l 1124 57 l 1124 304 b 976 286 1086 292 1017 286 l 976 600 l 1124 600 l 1124 829 l 675 829 z m 168 57 l 633 57 l 633 304 b 469 286 594 292 510 286 l 469 829 l 168 829 z "},"ㅧ":{"ha":0,"x_min":0,"x_max":0,"o":"m 168 57 l 871 57 l 913 560 l 954 57 l 1197 57 l 1100 829 l 725 829 l 633 101 l 633 304 b 469 286 594 292 510 286 l 469 829 l 168 829 z "},"ㅨ":{"ha":0,"x_min":0,"x_max":0,"o":"m 168 57 l 1239 57 l 1058 829 l 767 829 l 633 258 l 633 304 b 469 286 594 292 510 286 l 469 829 l 168 829 z m 913 665 b 1133 406 915 538 939 413 b 913 132 939 397 915 260 b 692 404 910 260 886 397 b 913 665 886 411 910 538 z "},"ㅩ":{"ha":0,"x_min":0,"x_max":0,"o":"m 642 51 l 996 51 l 1025 560 l 1056 51 l 1226 51 l 1158 829 l 893 829 l 838 194 l 838 829 l 494 829 l 494 614 l 642 614 z m 132 621 l 289 621 l 289 529 l 132 529 l 132 51 l 517 51 l 517 318 b 318 261 464 267 379 261 l 318 353 b 475 413 379 356 422 368 l 475 829 l 132 829 z "},"ㅪ":{"ha":0,"x_min":0,"x_max":0,"o":"m 118 621 l 368 621 l 368 529 l 118 529 l 118 51 l 632 51 l 632 333 b 382 261 557 282 496 261 l 382 353 b 632 426 496 356 557 382 l 632 829 l 118 829 z m 689 57 l 1179 57 l 1179 304 b 990 286 1142 292 1031 286 l 990 600 l 1179 600 l 1179 829 l 689 829 z "},"ㅫ":{"ha":0,"x_min":0,"x_max":0,"o":"m 686 829 l 686 690 l 653 690 l 653 829 l 496 829 l 496 51 l 843 51 l 843 57 l 985 57 l 1013 560 l 1040 57 l 1201 57 l 1136 829 l 888 829 l 843 303 l 843 829 z m 132 621 l 299 621 l 299 529 l 132 529 l 132 51 l 474 51 l 474 333 b 307 261 424 282 383 261 l 307 353 b 474 426 383 356 424 382 l 474 829 l 132 829 z m 669 638 b 817 378 672 510 688 385 b 669 104 688 369 672 232 b 524 376 668 232 653 369 b 669 638 653 383 668 510 z "},"ㅬ":{"ha":0,"x_min":0,"x_max":0,"o":"m 146 622 l 396 622 l 396 532 l 146 532 l 146 57 l 1239 57 l 1058 829 l 767 829 l 650 331 b 410 265 579 283 519 265 l 410 356 b 660 429 524 358 585 385 l 660 829 l 146 829 z m 913 665 b 1133 406 915 538 939 413 b 913 132 939 397 915 260 b 692 404 910 260 886 397 b 913 665 886 411 910 538 z "},"ㅭ":{"ha":0,"x_min":0,"x_max":0,"o":"m 132 622 l 382 622 l 382 532 l 132 532 l 132 57 l 646 57 l 646 338 b 396 265 571 286 510 265 l 396 356 b 646 429 510 358 571 385 l 646 829 l 132 829 z m 1215 829 l 688 829 l 688 622 l 1215 622 z m 938 572 b 664 299 782 572 664 458 b 938 24 664 138 782 24 b 1211 299 1093 24 1211 138 b 938 572 1211 458 1093 572 z m 938 497 b 1158 300 940 400 964 306 b 938 93 964 294 940 190 b 717 299 935 190 911 294 b 938 497 911 304 935 400 z "},"ㅮ":{"ha":0,"x_min":0,"x_max":0,"o":"m 965 829 l 965 690 l 915 690 l 915 829 l 679 829 l 679 51 l 1201 51 l 1201 829 z m 115 51 l 628 51 l 628 829 l 115 829 z m 131 446 b 372 788 308 446 368 622 b 613 447 375 622 435 447 b 372 93 435 447 375 258 b 131 446 368 258 308 446 z m 940 638 b 1161 378 943 510 967 385 b 940 104 967 369 943 232 b 719 376 938 232 914 369 b 940 638 914 383 938 510 z "},"ㅯ":{"ha":0,"x_min":0,"x_max":0,"o":"m 115 51 l 868 51 l 910 560 l 951 51 l 1194 51 l 1097 829 l 722 829 l 628 74 l 628 829 l 115 829 z m 131 446 b 372 788 308 446 368 622 b 613 447 375 622 435 447 b 372 93 435 447 375 258 b 131 446 368 258 308 446 z "},"ㅰ":{"ha":0,"x_min":0,"x_max":0,"o":"m 115 57 l 1239 57 l 1058 829 l 767 829 l 628 235 l 628 829 l 115 829 z m 131 446 b 372 788 308 446 368 622 b 613 447 375 622 435 447 b 372 93 435 447 375 258 b 131 446 368 258 308 446 z m 913 665 b 1133 406 915 538 939 413 b 913 132 939 397 915 260 b 692 404 910 260 886 397 b 913 665 886 411 910 538 z "},"ㅱ":{"ha":0,"x_min":0,"x_max":0,"o":"m 222 893 l 222 406 l 1072 406 l 1072 893 z m 260 658 b 640 886 576 658 636 776 b 1019 660 643 776 703 660 b 640 424 703 660 643 535 b 260 658 636 535 576 658 z m 640 329 b 375 119 486 329 375 247 b 640 -89 375 -6 486 -89 b 904 119 793 -89 904 -6 b 640 329 904 247 793 329 z m 414 122 b 640 304 601 122 638 217 b 865 124 642 217 676 124 b 640 -64 676 124 642 25 b 414 122 638 25 601 122 z "},"ㅲ":{"ha":0,"x_min":0,"x_max":0,"o":"m 697 835 l 697 642 l 925 642 l 925 53 l 1165 53 l 1165 835 z m 424 829 l 424 690 l 374 690 l 374 829 l 138 829 l 138 51 l 660 51 l 660 829 z m 399 638 b 619 378 401 510 425 385 b 399 104 425 369 401 232 b 178 376 396 232 372 369 b 399 638 372 383 396 510 z "},"ㅳ":{"ha":0,"x_min":0,"x_max":0,"o":"m 424 829 l 424 690 l 374 690 l 374 829 l 138 829 l 138 51 l 660 51 l 660 829 z m 703 57 l 1151 57 l 1151 304 b 1004 286 1114 292 1044 286 l 1004 600 l 1151 600 l 1151 829 l 703 829 z m 399 638 b 619 378 401 510 425 385 b 399 104 425 369 401 232 b 178 376 396 232 372 369 b 399 638 372 383 396 510 z "},"ㅴ":{"ha":0,"x_min":0,"x_max":0,"o":"m 879 831 l 879 642 l 1028 642 l 1028 53 l 1200 53 l 1200 831 z m 326 829 l 326 718 l 286 718 l 286 829 l 97 829 l 97 50 l 683 50 l 708 574 l 733 50 l 928 50 l 843 829 l 575 829 l 515 206 l 515 829 z m 306 675 b 486 383 308 543 342 390 b 306 71 333 375 306 207 b 126 382 306 207 278 374 b 306 675 269 389 303 543 z "},"ㅵ":{"ha":0,"x_min":0,"x_max":0,"o":"m 313 829 l 313 718 l 272 718 l 272 829 l 83 829 l 83 50 l 669 50 l 694 574 l 719 50 l 1235 50 l 1235 304 b 1119 286 1206 292 1150 286 l 1119 600 l 1235 600 l 1235 829 l 883 829 l 883 331 l 829 829 l 561 829 l 501 206 l 501 829 z m 292 675 b 472 383 294 543 328 390 b 292 71 319 375 292 207 b 113 382 292 207 264 374 b 292 675 256 389 289 543 z "},"ㅶ":{"ha":0,"x_min":0,"x_max":0,"o":"m 410 829 l 410 690 l 360 690 l 360 829 l 124 829 l 124 51 l 646 51 l 646 829 z m 671 607 l 735 607 l 686 57 l 900 57 l 935 603 l 971 57 l 1185 57 l 1135 607 l 1199 607 l 1199 829 l 671 829 z m 385 638 b 606 378 388 510 411 385 b 385 104 411 369 388 232 b 164 376 382 232 358 369 b 385 638 358 383 382 510 z "},"ㅷ":{"ha":0,"x_min":0,"x_max":0,"o":"m 410 829 l 410 690 l 360 690 l 360 829 l 124 829 l 124 51 l 646 51 l 646 829 z m 1174 51 l 1174 333 b 951 261 1099 282 1024 261 l 951 346 b 1174 413 1065 349 1099 368 l 1174 529 l 951 529 l 951 621 l 1174 621 l 1174 829 l 688 829 l 688 51 z m 385 638 b 606 378 388 510 411 385 b 385 104 411 369 388 232 b 164 376 382 232 358 369 b 385 638 358 383 382 510 z "},"ㅸ":{"ha":0,"x_min":0,"x_max":0,"o":"m 222 907 l 222 403 l 1071 403 l 1071 907 l 846 907 l 846 804 l 447 804 l 447 907 z m 260 613 b 640 794 576 613 636 707 b 1019 613 643 707 703 613 b 640 424 703 613 643 513 b 260 613 636 513 576 613 z m 640 329 b 375 119 486 329 375 247 b 640 -89 375 -6 486 -89 b 904 119 793 -89 904 -6 b 640 329 904 247 793 329 z m 414 122 b 640 304 601 122 638 217 b 865 124 642 217 676 124 b 640 -64 676 124 642 25 b 414 122 638 25 601 122 z "},"ㅹ":{"ha":0,"x_min":0,"x_max":0,"o":"m 222 907 l 222 403 l 1071 403 l 1071 907 l 846 907 l 846 804 l 761 804 l 761 907 l 536 907 l 536 804 l 447 804 l 447 907 z m 260 613 b 640 794 576 613 636 707 b 1019 613 643 707 703 613 b 640 424 703 613 643 513 b 260 613 636 513 576 613 z m 640 329 b 375 119 486 329 375 247 b 640 -89 375 -6 486 -89 b 904 119 793 -89 904 -6 b 640 329 904 247 793 329 z m 414 122 b 640 304 601 122 638 217 b 865 124 642 217 676 124 b 640 -64 676 124 642 25 b 414 122 638 25 601 122 z "},"ㅺ":{"ha":0,"x_min":0,"x_max":0,"o":"m 1097 57 l 1097 829 l 639 829 l 639 586 l 819 586 l 819 57 z m 128 57 l 347 57 l 397 560 l 447 57 l 678 57 l 589 829 l 206 829 z "},"ㅻ":{"ha":0,"x_min":0,"x_max":0,"o":"m 128 57 l 347 57 l 397 560 l 447 57 l 678 57 l 589 829 l 206 829 z m 1006 829 l 728 829 l 728 57 l 1190 57 l 1190 289 b 1006 253 1128 263 1071 253 z "},"ㅼ":{"ha":0,"x_min":0,"x_max":0,"o":"m 128 57 l 347 57 l 397 560 l 447 57 l 678 57 l 589 829 l 206 829 z m 703 57 l 1151 57 l 1151 304 b 1004 286 1114 292 1044 286 l 1004 600 l 1151 600 l 1151 829 l 703 829 z "},"ㅽ":{"ha":0,"x_min":0,"x_max":0,"o":"m 115 57 l 335 57 l 385 560 l 435 57 l 665 57 l 576 829 l 193 829 z m 965 829 l 965 690 l 915 690 l 915 829 l 679 829 l 679 57 l 1201 57 l 1201 829 z m 940 638 b 1161 378 943 510 967 385 b 940 104 967 369 943 232 b 719 376 938 232 914 369 b 940 638 914 383 938 510 z "},"ㅾ":{"ha":0,"x_min":0,"x_max":0,"o":"m 115 57 l 335 57 l 385 560 l 435 57 l 897 57 l 938 603 l 978 57 l 1222 57 l 1165 607 l 1239 607 l 1239 829 l 636 829 l 636 607 l 710 607 l 658 114 l 576 829 l 193 829 z "},"ㅿ":{"ha":0,"x_min":0,"x_max":0,"o":"m 188 57 l 1104 57 l 729 829 l 563 829 z m 644 651 b 865 392 647 524 671 399 b 644 118 671 383 647 246 b 424 390 642 246 618 383 b 644 651 618 397 642 524 z "},"ㆀ":{"ha":0,"x_min":0,"x_max":0,"o":"m 69 364 b 346 47 69 208 154 47 b 622 364 538 47 622 208 l 622 524 b 346 839 622 679 538 839 b 69 524 154 839 69 679 z m 667 364 b 943 47 667 208 751 47 b 1219 364 1135 47 1219 208 l 1219 524 b 943 839 1219 679 1135 839 b 667 524 751 839 667 679 z m 346 810 b 600 443 346 542 479 447 b 346 76 479 438 346 344 b 90 442 346 344 213 438 b 346 810 213 446 346 542 z m 943 810 b 1197 443 943 542 1076 447 b 943 76 1076 438 943 344 b 688 442 943 344 810 438 b 943 810 810 446 943 542 z "},"ㆁ":{"ha":0,"x_min":0,"x_max":0,"o":"m 208 321 b 646 47 208 186 343 47 b 1083 321 949 47 1083 186 l 1083 460 b 813 715 1083 567 999 675 l 813 922 l 479 922 l 479 715 b 208 460 293 675 208 567 z m 646 707 b 1049 390 646 475 857 393 b 646 72 857 385 646 304 b 242 389 646 304 435 385 b 646 707 435 392 646 475 z "},"ㆂ":{"ha":0,"x_min":0,"x_max":0,"o":"m 69 321 b 361 47 69 186 160 47 b 653 321 563 47 653 186 l 653 460 b 472 715 653 567 596 675 l 472 829 l 250 829 l 250 715 b 69 460 126 675 69 567 z m 657 57 l 876 57 l 926 560 l 976 57 l 1207 57 l 1118 829 l 735 829 z m 361 707 b 629 390 361 475 501 393 b 361 72 501 385 361 304 b 92 389 361 304 221 385 b 361 707 221 392 361 475 z "},"ㆃ":{"ha":0,"x_min":0,"x_max":0,"o":"m 69 321 b 361 47 69 186 160 47 b 653 321 563 47 653 186 l 653 460 b 472 715 653 567 596 675 l 472 829 l 250 829 l 250 715 b 69 460 126 675 69 567 z m 629 57 l 1239 57 l 1071 829 l 797 829 z m 361 707 b 629 390 361 475 501 393 b 361 72 501 385 361 304 b 92 389 361 304 221 385 b 361 707 221 392 361 475 z m 933 665 b 1140 406 936 538 958 413 b 933 132 958 397 936 260 b 728 404 931 260 910 397 b 933 665 910 411 931 538 z "},"ㆄ":{"ha":0,"x_min":0,"x_max":0,"o":"m 232 749 l 328 749 l 328 550 l 232 550 l 232 406 l 1056 406 l 1058 550 l 961 550 l 961 749 l 1056 749 l 1056 893 l 232 893 z m 644 856 b 935 650 650 746 781 654 b 644 435 776 644 644 547 b 354 650 644 547 513 644 b 644 856 508 654 638 746 z m 640 329 b 375 119 486 329 375 247 b 640 -89 375 -6 486 -89 b 904 119 793 -89 904 -6 b 640 329 904 247 793 329 z m 414 122 b 640 304 601 122 638 217 b 865 124 642 217 676 124 b 640 -64 676 124 642 25 b 414 122 638 25 601 122 z "},"ㆅ":{"ha":0,"x_min":0,"x_max":0,"o":"m 83 600 l 626 600 l 626 815 l 453 815 l 453 922 l 257 922 l 257 815 l 83 815 z m 667 600 l 1210 600 l 1210 815 l 1036 815 l 1036 922 l 840 922 l 840 815 l 667 815 z m 101 257 b 354 -4 101 89 206 -4 b 608 257 503 -4 608 89 l 608 318 b 354 579 608 488 503 579 b 101 318 206 579 101 488 z m 685 257 b 938 -4 685 89 789 -4 b 1192 257 1086 -4 1192 89 l 1192 318 b 938 579 1192 488 1086 579 b 685 318 789 579 685 488 z m 354 533 b 557 301 358 364 449 304 b 354 29 446 297 354 207 b 151 301 354 207 263 297 b 354 533 260 304 350 364 z m 938 533 b 1140 301 942 364 1032 304 b 938 29 1029 297 938 207 b 735 301 938 207 846 297 b 938 533 843 304 933 364 z "},"ㆆ":{"ha":0,"x_min":0,"x_max":0,"o":"m 196 892 l 196 700 l 1100 700 l 1100 892 z m 646 647 b 267 322 429 647 267 511 b 646 -3 267 133 429 -3 b 1025 322 861 -3 1025 133 b 646 647 1025 511 861 647 z m 646 575 b 967 322 646 390 814 325 b 646 69 814 318 646 254 b 324 321 646 254 478 318 b 646 575 478 324 646 390 z "},"ㆇ":{"ha":0,"x_min":0,"x_max":0,"o":"m 799 -151 l 1076 -151 l 1076 192 l 1271 192 l 1271 428 l 1076 428 l 1076 539 l 1271 539 l 1271 775 l 1076 775 l 1076 1024 l 799 1024 z m 21 -12 l 743 -12 l 743 203 l 646 203 l 646 532 l 410 532 l 410 203 l 326 203 l 326 532 l 90 532 l 90 203 l 21 203 z "},"ㆈ":{"ha":0,"x_min":0,"x_max":0,"o":"m 907 1024 l 665 1024 l 665 -151 l 907 -151 l 907 122 l 981 122 l 981 -151 l 1222 -151 l 1222 1024 l 981 1024 l 981 817 l 907 817 z m 907 358 l 907 581 l 981 581 l 981 358 z m 69 -12 l 617 -12 l 617 203 l 569 203 l 569 497 l 375 497 l 375 203 l 319 203 l 319 497 l 125 497 l 125 203 l 69 203 z "},"ㆉ":{"ha":0,"x_min":0,"x_max":0,"o":"m 910 -151 l 1188 -151 l 1188 1024 l 910 1024 z m 63 -12 l 854 -12 l 854 203 l 785 203 l 785 532 l 507 532 l 507 203 l 438 203 l 438 532 l 160 532 l 160 203 l 63 203 z "},"ㆊ":{"ha":0,"x_min":0,"x_max":0,"o":"m 708 -74 l 944 -74 l 944 -151 l 1222 -151 l 1222 1024 l 944 1024 l 944 288 l 708 288 l 708 128 l 944 128 l 944 86 l 708 88 z m 69 328 l 160 328 l 160 -137 l 396 -137 l 396 328 l 438 328 l 438 -137 l 674 -137 l 674 328 l 889 328 l 889 543 l 69 543 z "},"ㆋ":{"ha":0,"x_min":0,"x_max":0,"o":"m 557 -74 l 682 -74 l 682 -151 l 917 -151 l 917 1024 l 682 1024 l 682 288 l 557 288 l 557 128 l 682 128 l 682 86 l 557 88 z m 981 -151 l 1222 -151 l 1222 1024 l 981 1024 z m 69 328 l 138 328 l 138 -137 l 306 -137 l 306 328 l 351 328 l 351 -137 l 517 -137 l 517 328 l 625 328 l 625 543 l 69 543 z "},"ㆌ":{"ha":0,"x_min":0,"x_max":0,"o":"m 944 -151 l 1222 -151 l 1222 1024 l 944 1024 z m 69 432 l 146 432 l 146 -12 l 438 -12 l 438 432 l 493 432 l 493 -12 l 785 -12 l 785 432 l 889 432 l 889 647 l 69 647 z "},"ㆍ":{"ha":0,"x_min":0,"x_max":0,"o":"m 660 303 b 817 457 751 303 817 369 b 660 614 817 547 751 614 b 503 457 567 614 503 547 b 660 303 503 369 567 303 z "},"ㆎ":{"ha":0,"x_min":0,"x_max":0,"o":"m 688 -151 l 965 -151 l 965 1024 l 688 1024 z m 424 303 b 581 457 515 303 581 369 b 424 614 581 547 515 614 b 267 457 331 614 267 547 b 424 303 267 369 331 303 z "},"ⅰ":{"ha":0,"x_min":0,"x_max":0,"o":"m 646 817 b 796 969 733 817 796 886 b 646 1125 796 1056 733 1125 b 496 969 557 1125 496 1056 b 646 817 496 886 557 817 z m 510 -151 l 782 -151 l 782 725 l 510 725 z "},"ⅱ":{"ha":0,"x_min":0,"x_max":0,"o":"m 410 817 b 560 969 497 817 560 886 b 410 1125 560 1056 497 1125 b 260 969 321 1125 260 1056 b 410 817 260 886 321 817 z m 882 817 b 1032 969 969 817 1032 886 b 882 1125 1032 1056 969 1125 b 732 969 793 1125 732 1056 b 882 817 732 886 793 817 z m 274 -151 l 546 -151 l 546 725 l 274 725 z m 746 -151 l 1018 -151 l 1018 725 l 746 725 z "},"ⅲ":{"ha":0,"x_min":0,"x_max":0,"o":"m 217 817 b 353 969 296 817 353 886 b 217 1125 353 1056 296 1125 b 79 969 135 1125 79 1056 b 217 817 79 886 135 817 z m 647 817 b 785 969 728 817 785 886 b 647 1125 785 1056 728 1125 b 510 969 567 1125 510 1056 b 647 817 510 886 567 817 z m 1078 817 b 1215 969 1158 817 1215 886 b 1078 1125 1215 1056 1158 1125 b 942 969 997 1125 942 1056 b 1078 817 942 886 997 817 z m 92 -151 l 340 -151 l 340 725 l 92 725 z m 524 -151 l 771 -151 l 771 725 l 524 725 z m 954 -151 l 1203 -151 l 1203 725 l 954 725 z "},"ⅳ":{"ha":0,"x_min":0,"x_max":0,"o":"m 271 817 b 421 969 358 817 421 886 b 271 1125 421 1056 358 1125 b 121 969 182 1125 121 1056 b 271 817 121 886 182 817 z m 135 -151 l 407 -151 l 407 726 l 135 726 z m 1268 725 l 1025 725 l 913 315 b 858 103 894 247 874 172 b 803 315 840 172 819 247 l 692 725 l 449 725 l 699 -151 l 1019 -151 z "},"ⅴ":{"ha":0,"x_min":0,"x_max":0,"o":"m 1125 725 l 842 725 l 710 315 b 646 103 689 247 664 172 b 582 315 626 172 601 247 l 450 725 l 167 725 l 458 -151 l 833 -151 z "},"ⅵ":{"ha":0,"x_min":0,"x_max":0,"o":"m 1021 817 b 1171 969 1110 817 1171 886 b 1021 1125 1171 1056 1110 1125 b 871 969 933 1125 871 1056 b 1021 817 871 886 933 817 z m 1157 -151 l 1157 726 l 885 726 l 885 -151 z m 24 725 l 272 -151 l 593 -151 l 843 725 l 600 725 l 489 315 b 433 103 472 247 451 172 b 379 315 418 172 397 247 l 267 725 z "},"ⅶ":{"ha":0,"x_min":0,"x_max":0,"o":"m 857 817 b 983 969 932 817 983 886 b 857 1125 983 1056 932 1125 b 732 969 785 1125 732 1056 b 857 817 732 886 785 817 z m 1136 817 b 1261 969 1210 817 1261 886 b 1136 1125 1261 1056 1210 1125 b 1011 969 1063 1125 1011 1056 b 1136 817 1011 886 1063 817 z m 971 -151 l 971 726 l 743 726 l 743 -151 z m 1250 -151 l 1250 726 l 1022 726 l 1022 -151 z m 24 725 l 232 -151 l 500 -151 l 708 725 l 506 725 l 413 315 b 367 103 399 247 381 172 b 321 315 353 172 336 247 l 226 725 z "},"ⅷ":{"ha":0,"x_min":0,"x_max":0,"o":"m 699 817 b 800 969 758 817 800 886 b 699 1125 800 1056 758 1125 b 597 969 640 1125 597 1056 b 699 817 597 886 640 817 z m 924 817 b 1025 969 983 817 1025 886 b 924 1125 1025 1056 983 1125 b 822 969 864 1125 822 1056 b 924 817 822 886 864 817 z m 1149 817 b 1250 969 1208 817 1250 886 b 1149 1125 1250 1056 1208 1125 b 1047 969 1089 1125 1047 1056 b 1149 817 1047 886 1089 817 z m 790 -151 l 790 726 l 606 726 l 606 -151 z m 1017 -151 l 1017 726 l 832 726 l 832 -151 z m 1242 -151 l 1242 726 l 1057 726 l 1057 -151 z m 24 725 l 192 -151 l 410 -151 l 578 725 l 414 725 l 339 315 b 301 103 328 247 313 172 b 264 315 290 172 276 247 l 188 725 z "},"ⅸ":{"ha":0,"x_min":0,"x_max":0,"o":"m 271 817 b 421 969 358 817 421 886 b 271 1125 421 1056 358 1125 b 121 969 182 1125 121 1056 b 271 817 121 886 182 817 z m 135 -151 l 407 -151 l 407 726 l 135 726 z m 463 726 l 706 293 l 456 -151 l 701 -151 l 835 103 l 968 -151 l 1214 -151 l 964 293 l 1207 726 l 960 726 l 836 492 l 710 726 z "},"ⅹ":{"ha":0,"x_min":0,"x_max":0,"o":"m 189 726 l 486 293 l 181 -151 l 482 -151 l 644 103 l 808 -151 l 1110 -151 l 803 293 l 1101 726 l 799 726 l 644 493 l 492 726 z "},"Ⅰ":{"ha":0,"x_min":0,"x_max":0,"o":"m 785 1024 l 507 1024 l 507 -151 l 785 -151 z "},"Ⅱ":{"ha":0,"x_min":0,"x_max":0,"o":"m 276 -151 l 526 -151 l 526 1022 l 276 1022 z m 765 -151 l 1015 -151 l 1015 1022 l 765 1022 z "},"Ⅲ":{"ha":0,"x_min":0,"x_max":0,"o":"m 60 -151 l 310 -151 l 310 1024 l 60 1024 z m 521 -151 l 771 -151 l 771 1024 l 521 1024 z m 982 -151 l 1232 -151 l 1232 1024 l 982 1024 z "},"Ⅳ":{"ha":0,"x_min":0,"x_max":0,"o":"m 1093 -151 l 1363 1022 l 1101 1022 l 900 111 l 893 111 l 693 1022 l 442 1022 l 711 -151 z m 335 -151 l 335 1022 l 85 1022 l 85 -151 z "},"Ⅴ":{"ha":0,"x_min":0,"x_max":0,"o":"m 1213 1024 l 932 1024 l 725 443 b 646 167 690 347 672 268 b 567 443 619 268 601 346 l 360 1024 l 79 1024 l 501 -151 l 790 -151 z "},"Ⅵ":{"ha":0,"x_min":0,"x_max":0,"o":"m 210 -151 l 592 -151 l 861 1022 l 610 1022 l 410 111 l 403 111 l 201 1022 l -60 1022 z m 968 -151 l 1218 -151 l 1218 1022 l 968 1022 z "},"Ⅶ":{"ha":0,"x_min":0,"x_max":0,"o":"m 147 -151 l 529 -151 l 701 1024 l 450 1024 l 347 113 l 340 113 l 236 1024 l -25 1024 z m 725 -151 l 975 -151 l 975 1024 l 725 1024 z m 1061 -151 l 1311 -151 l 1311 1024 l 1061 1024 z "},"Ⅷ":{"ha":0,"x_min":0,"x_max":0,"o":"m 119 -151 l 432 -151 l 563 1024 l 367 1024 l 278 113 l 271 113 l 181 1024 l -25 1024 z m 1100 -151 l 1294 -151 l 1294 1024 l 1100 1024 z m 850 -151 l 1044 -151 l 1044 1024 l 850 1024 z m 600 -151 l 794 -151 l 794 1024 l 600 1024 z "},"Ⅸ":{"ha":0,"x_min":0,"x_max":0,"o":"m 63 -151 l 313 -151 l 313 1024 l 63 1024 z m 364 1024 l 668 440 l 361 -151 l 626 -151 l 811 221 l 996 -151 l 1261 -151 l 954 440 l 1257 1024 l 993 1024 l 811 660 l 629 1024 z "},"Ⅹ":{"ha":0,"x_min":0,"x_max":0,"o":"m 115 1024 l 475 440 l 113 -151 l 426 -151 l 644 221 l 864 -151 l 1178 -151 l 815 440 l 1174 1024 l 860 1024 l 644 660 l 429 1024 z "},"Α":{"ha":150,"x_min":0,"x_max":0,"o":"m 864 -151 l 1161 -151 l 726 1024 l 450 1024 l 14 -151 l 311 -151 l 390 68 l 785 68 z m 842 515 b 588 117 646 515 588 315 b 333 515 588 315 529 515 b 588 897 524 515 585 692 b 842 515 590 692 650 515 z "},"Β":{"ha":82,"x_min":0,"x_max":0,"o":"m 69 1024 l 69 -151 l 604 -151 b 1031 213 861 -151 1031 -21 b 831 490 1031 335 942 460 b 971 733 910 536 971 638 b 589 1024 971 931 804 1024 z m 531 986 b 881 743 539 828 706 747 b 531 501 706 739 539 669 b 181 743 522 669 356 739 b 531 986 356 747 522 828 z m 531 486 b 908 182 531 294 726 188 b 531 -121 726 176 531 83 b 153 183 531 83 333 178 b 531 486 333 188 531 294 z "},"Γ":{"ha":-101,"x_min":0,"x_max":0,"o":"m 133 -151 l 408 -151 l 408 796 l 865 796 l 865 1024 l 133 1024 z "},"Δ":{"ha":210,"x_min":0,"x_max":0,"o":"m 60 -151 l 1176 -151 l 1176 15 l 783 1024 l 453 1024 l 60 15 z m 356 81 l 615 815 l 622 815 l 875 81 z "},"Ε":{"ha":-110,"x_min":0,"x_max":0,"o":"m 874 -151 l 874 126 b 347 43 706 67 553 43 l 347 333 l 860 333 l 860 558 l 347 558 l 347 801 l 874 801 l 874 1024 l 69 1024 l 69 -151 z "},"Ζ":{"ha":-128,"x_min":0,"x_max":0,"o":"m 14 -151 l 897 -151 l 897 126 b 339 36 754 54 524 36 l 890 843 l 890 1024 l 28 1024 l 28 801 l 563 801 l 14 29 z "},"Η":{"ha":81,"x_min":0,"x_max":0,"o":"m 1036 -151 l 1036 1024 l 758 1024 l 758 553 l 347 553 l 347 1024 l 69 1024 l 69 -151 l 347 -151 l 347 331 l 758 331 l 758 -151 z "},"Θ":{"ha":114,"x_min":0,"x_max":0,"o":"m 569 1040 b 49 610 254 1040 49 872 l 49 261 b 569 -169 49 -1 254 -169 b 1090 261 885 -169 1090 -1 l 1090 610 b 569 1040 1090 872 885 1040 z m 569 818 b 813 594 733 818 813 731 l 813 275 b 569 53 813 139 733 53 b 326 275 406 53 326 139 l 326 594 b 569 818 326 731 406 818 z m 417 342 l 722 342 l 722 557 l 417 557 z "},"Ι":{"ha":-608,"x_min":0,"x_max":0,"o":"m 347 1024 l 69 1024 l 69 -151 l 347 -151 z "},"Κ":{"ha":56,"x_min":0,"x_max":0,"o":"m 69 -151 l 347 -151 l 347 192 l 467 342 l 761 -151 l 1067 -151 l 633 550 l 1011 1024 l 706 1024 l 347 572 l 347 1024 l 69 1024 z "},"Λ":{"ha":-132,"x_min":0,"x_max":0,"o":"m 697 1024 l 408 1024 l -14 -151 l 267 -151 l 474 429 b 553 706 508 526 526 604 b 632 429 579 604 597 525 l 839 -151 l 1119 -151 z "},"Μ":{"ha":229,"x_min":0,"x_max":0,"o":"m 681 400 b 640 211 663 336 651 274 b 601 400 631 274 618 336 l 404 1024 l 69 1024 l 69 -151 l 329 -151 l 329 333 b 310 618 329 406 318 532 l 538 -124 l 744 -124 l 972 618 b 953 333 964 532 953 406 l 953 -151 l 1213 -151 l 1213 1024 l 878 1024 z "},"Ν":{"ha":88,"x_min":0,"x_max":0,"o":"m 1043 -151 l 1043 1024 l 768 1024 l 768 483 b 776 286 768 418 768 350 b 682 472 750 354 717 415 l 344 1024 l 69 1024 l 69 -151 l 344 -151 l 344 372 b 336 561 344 431 342 496 b 422 428 371 514 393 476 l 768 -151 z "},"Ξ":{"ha":-8,"x_min":0,"x_max":0,"o":"m 113 796 l 906 796 l 906 1024 l 113 1024 z m 157 338 l 860 338 l 860 569 l 157 569 z m 94 -151 l 924 -151 l 924 81 l 94 81 z "},"Ο":{"ha":114,"x_min":0,"x_max":0,"o":"m 569 1040 b 49 610 254 1040 49 872 l 49 261 b 569 -169 49 -1 254 -169 b 1090 261 885 -169 1090 -1 l 1090 610 b 569 1040 1090 872 885 1040 z m 88 436 b 569 1011 328 436 569 704 b 1051 438 569 704 811 438 b 569 -136 811 438 569 171 b 88 436 569 171 328 436 z "},"Π":{"ha":149,"x_min":0,"x_max":0,"o":"m 133 -151 l 408 -151 l 408 796 l 767 796 l 767 -151 l 1042 -151 l 1042 1024 l 133 1024 z "},"Ρ":{"ha":33,"x_min":0,"x_max":0,"o":"m 347 -151 l 347 200 l 590 200 b 1017 604 833 200 1017 358 b 590 1024 1017 851 847 1024 l 69 1024 l 69 -151 z m 538 979 b 908 614 538 775 728 621 b 538 246 728 606 538 436 b 167 613 538 436 347 604 b 538 979 347 619 538 775 z "},"Σ":{"ha":-53,"x_min":0,"x_max":0,"o":"m 65 -151 l 911 -151 l 911 81 l 408 81 l 692 450 l 414 796 l 864 796 l 864 1024 l 71 1024 l 71 860 l 415 443 l 65 15 z "},"Τ":{"ha":-75,"x_min":0,"x_max":0,"o":"m 614 801 l 957 801 l 957 1024 l -7 1024 l -7 801 l 336 801 l 336 -151 l 614 -151 z "},"Υ":{"ha":113,"x_min":0,"x_max":0,"o":"m 721 -151 l 721 306 l 1138 1024 l 824 1024 l 582 572 l 340 1024 l 26 1024 l 443 306 l 443 -151 z "},"Φ":{"ha":0,"x_min":0,"x_max":0,"o":"m 768 1064 l 525 1064 l 525 917 b 69 443 242 892 69 721 b 525 -39 69 164 242 -14 l 525 -190 l 768 -190 l 768 -39 b 1224 443 1051 -14 1224 164 b 768 917 1224 721 1051 892 z m 768 710 b 964 443 894 686 964 582 b 768 169 964 303 894 193 z m 525 169 b 329 443 399 193 329 303 b 525 710 329 582 399 686 z "},"Χ":{"ha":40,"x_min":0,"x_max":0,"o":"m 3 1024 l 363 440 l 0 -151 l 314 -151 l 532 221 l 751 -151 l 1065 -151 l 703 440 l 1061 1024 l 747 1024 l 532 660 l 317 1024 z "},"Ψ":{"ha":0,"x_min":0,"x_max":0,"o":"m 946 1024 l 946 744 b 781 461 946 550 900 478 l 781 1024 l 525 1024 l 525 461 b 358 744 404 476 358 550 l 358 1024 l 89 1024 l 89 728 b 525 243 89 410 243 265 l 525 -151 l 781 -151 l 781 243 b 1217 728 1064 265 1217 410 l 1217 1024 z "},"Ω":{"ha":239,"x_min":0,"x_max":0,"o":"m 79 -151 l 557 -151 l 557 47 b 388 467 442 158 388 296 b 631 810 388 660 479 810 b 876 467 783 810 876 660 b 707 47 876 296 824 158 l 707 -151 l 1185 -151 l 1185 71 l 997 71 l 997 76 b 1158 494 1069 153 1158 310 b 631 1046 1158 814 946 1046 b 106 494 317 1046 106 814 b 267 76 106 310 194 153 l 267 71 l 79 71 z "},"α":{"ha":32,"x_min":0,"x_max":0,"o":"m 415 -174 b 654 -31 517 -174 596 -126 l 661 -31 b 894 -174 696 -136 769 -174 b 1053 -142 967 -174 1019 -160 l 1019 60 b 963 49 1000 53 979 49 b 878 128 914 49 878 68 b 993 726 878 257 947 526 l 722 726 l 694 579 l 688 579 b 450 749 631 699 547 749 b 61 283 247 749 61 575 b 415 -174 61 0 200 -174 z m 493 -42 b 204 285 489 172 403 279 b 493 613 403 290 489 406 b 781 286 497 406 582 292 b 493 -42 582 281 497 172 z "},"β":{"ha":43,"x_min":0,"x_max":0,"o":"m 110 -462 l 388 -462 b 367 -56 381 -329 375 -196 b 654 -174 456 -150 560 -174 b 1007 201 824 -174 1007 -57 b 772 500 1007 365 901 472 l 772 507 b 917 753 865 565 917 638 b 526 1061 917 976 724 1061 b 110 651 239 1061 110 899 z m 538 476 b 253 718 533 635 450 714 b 538 960 450 722 533 807 b 822 718 542 807 625 722 b 538 476 625 714 542 635 z m 538 -56 b 253 197 538 111 456 193 b 538 440 450 201 533 288 b 822 199 542 288 625 203 b 538 -56 621 194 538 111 z "},"γ":{"ha":-74,"x_min":0,"x_max":0,"o":"m 322 -490 l 585 -490 l 585 -126 b 922 726 811 228 872 428 l 651 726 b 499 228 639 518 585 404 l 490 228 b 278 749 426 418 350 592 l 24 660 b 322 -219 172 322 322 -18 z "},"δ":{"ha":-54,"x_min":0,"x_max":0,"o":"m 867 992 b 478 1061 750 1031 607 1061 b 151 843 254 1061 151 961 b 331 563 151 711 236 633 b 68 217 190 499 68 397 b 482 -174 68 -36 256 -174 b 904 229 744 -174 904 -17 b 651 618 904 417 808 504 b 406 818 521 713 406 758 b 478 860 406 842 428 860 b 807 790 569 860 688 829 z m 507 -101 b 218 243 507 125 422 238 b 507 571 417 249 503 364 b 794 244 511 364 596 250 b 507 -101 592 239 507 125 z "},"ε":{"ha":-187,"x_min":0,"x_max":0,"o":"m 500 -174 b 771 -126 610 -174 693 -153 l 771 88 b 528 38 692 53 619 38 b 354 128 413 38 354 69 b 475 207 354 185 390 207 l 628 207 l 628 386 l 503 386 b 361 457 429 386 361 408 b 492 538 361 506 413 538 b 750 483 556 538 693 519 l 750 700 b 475 749 676 735 581 749 b 93 494 206 749 93 643 b 253 313 93 425 150 342 l 253 306 b 85 100 149 279 85 215 b 500 -174 85 -82 218 -174 z "},"ζ":{"ha":-193,"x_min":0,"x_max":0,"o":"m 693 -482 b 554 49 818 -292 856 49 b 351 226 393 49 351 90 b 775 811 351 394 513 674 l 783 811 l 783 1025 l 125 1025 l 125 828 l 386 828 b 71 224 150 638 71 422 b 394 -165 71 -67 229 -165 b 450 -482 617 -165 551 -347 z "},"η":{"ha":-28,"x_min":0,"x_max":0,"o":"m 636 -490 l 893 -490 l 893 392 b 636 749 893 611 824 749 b 360 619 515 749 433 710 l 353 619 l 350 726 l 111 726 l 111 -151 l 385 -151 l 385 339 b 526 514 385 422 439 514 b 636 358 599 514 636 478 z "},"θ":{"ha":7,"x_min":0,"x_max":0,"o":"m 515 1061 b 83 449 246 1061 83 881 b 515 -174 83 19 246 -174 b 949 449 785 -174 949 19 b 515 1061 949 878 785 1061 z m 349 567 b 515 840 360 794 446 840 b 682 567 586 840 671 794 z m 682 331 b 515 49 671 107 586 49 b 349 331 446 49 360 107 z "},"ι":{"ha":-485,"x_min":0,"x_max":0,"o":"m 372 -174 b 531 -156 449 -174 492 -168 l 531 60 b 444 49 514 53 458 49 b 389 124 393 49 389 67 l 389 726 l 111 726 l 111 133 b 372 -174 111 -50 168 -174 z "},"κ":{"ha":-49,"x_min":0,"x_max":0,"o":"m 986 -151 b 642 360 869 -24 731 188 b 896 492 735 438 807 474 l 896 749 b 385 443 688 708 514 599 l 378 443 l 378 726 l 111 726 l 111 -151 l 368 -151 l 368 -97 b 446 158 368 35 386 99 l 449 161 b 661 -151 540 15 599 -68 z "},"λ":{"ha":-37,"x_min":0,"x_max":0,"o":"m 319 -151 l 513 353 l 521 353 l 686 -151 l 983 -151 l 672 694 b 275 1061 579 946 482 1061 b 83 1038 193 1061 139 1057 l 83 801 b 228 832 125 821 172 832 b 353 710 297 832 336 790 l 358 686 l 24 -151 z "},"μ":{"ha":31,"x_min":0,"x_max":0,"o":"m 111 -462 l 368 -462 l 368 -128 b 471 -164 396 -157 432 -164 b 651 -29 544 -164 611 -115 l 656 -29 b 893 -167 686 -124 768 -167 b 1039 -135 971 -167 1000 -153 l 1039 67 b 964 56 1021 60 979 56 b 903 131 914 56 903 74 l 903 726 l 625 726 l 625 253 b 486 61 625 114 543 61 b 385 217 417 61 385 97 l 385 726 l 111 726 z "},"ν":{"ha":-92,"x_min":0,"x_max":0,"o":"m 319 -151 l 649 -151 b 906 726 789 146 879 415 l 632 726 b 501 128 617 529 583 322 l 493 128 b 292 726 460 307 381 569 l -4 726 b 319 -151 114 514 247 174 z "},"ξ":{"ha":-187,"x_min":0,"x_max":0,"o":"m 739 -489 b 807 -185 803 -372 807 -246 b 533 49 807 -49 726 29 b 354 217 378 64 354 103 b 556 346 354 318 442 346 l 743 346 l 743 582 l 571 582 b 386 690 438 582 386 615 b 539 810 386 782 446 810 l 789 810 l 789 1024 l 26 1024 l 26 826 l 185 826 b 111 672 136 790 111 728 b 269 485 111 569 168 522 l 269 476 b 74 174 140 432 74 324 b 360 -165 74 -46 178 -139 b 525 -260 489 -185 524 -212 b 456 -489 526 -308 504 -422 z "},"ο":{"ha":-36,"x_min":0,"x_max":0,"o":"m 494 744 b 42 365 213 744 42 568 l 42 208 b 494 -171 42 -8 213 -171 b 947 208 776 -171 947 -8 l 947 365 b 494 744 947 568 776 744 z m 494 682 b 842 289 499 424 601 294 b 494 -107 601 282 499 142 b 147 288 489 140 386 281 b 494 682 386 293 489 424 z "},"π":{"ha":107,"x_min":0,"x_max":0,"o":"m 929 -174 b 1078 -153 999 -174 1044 -167 l 1078 56 b 997 49 1053 53 1013 49 b 918 126 944 49 918 67 l 918 513 l 1092 513 l 1092 726 l 29 726 l 29 513 l 192 513 b 128 -151 192 322 172 83 l 418 -151 b 461 513 442 76 461 306 l 658 513 l 658 110 b 929 -174 658 -90 726 -174 z "},"ρ":{"ha":-18,"x_min":0,"x_max":0,"o":"m 103 -462 l 381 -462 b 361 -78 375 -336 368 -210 b 576 -174 421 -150 504 -174 b 942 303 763 -174 942 0 b 528 749 942 585 783 749 b 103 265 283 749 103 600 z m 521 -60 b 232 285 521 167 436 279 b 521 613 431 290 517 406 b 808 286 525 406 610 292 b 521 -60 606 281 521 167 z "},"σ":{"ha":-7,"x_min":0,"x_max":0,"o":"m 479 -174 b 886 233 717 -174 886 -17 b 751 515 886 363 836 465 l 751 522 b 999 501 842 518 903 513 l 999 726 l 492 726 b 61 278 271 726 61 579 b 479 -174 61 -14 249 -174 z m 479 -56 b 190 271 475 158 389 265 b 479 599 389 276 475 392 b 767 272 483 392 568 278 b 479 -56 568 267 483 158 z "},"τ":{"ha":-149,"x_min":0,"x_max":0,"o":"m 554 -174 b 763 -142 635 -174 701 -160 l 763 63 b 626 49 722 53 658 49 b 558 126 586 49 558 67 l 558 513 l 831 513 l 831 726 l 46 726 l 46 513 l 301 513 l 301 138 b 554 -174 301 -49 364 -174 z "},"υ":{"ha":-82,"x_min":0,"x_max":0,"o":"m 461 -174 b 869 311 731 -174 869 13 b 806 726 869 457 844 585 l 540 726 b 596 299 582 568 596 408 b 461 49 596 125 549 49 b 336 182 393 49 336 97 l 336 726 l 71 726 l 71 206 b 461 -174 71 -12 193 -174 z "},"φ":{"ha":0,"x_min":0,"x_max":0,"o":"m 772 958 l 521 958 l 521 739 b 61 286 276 726 61 568 b 521 -164 61 7 276 -150 l 521 -490 l 772 -490 l 772 -164 b 1232 286 1018 -150 1232 7 b 772 739 1232 568 1019 726 z m 772 536 b 951 286 890 529 951 444 b 772 40 951 131 889 46 z m 521 40 b 343 286 404 46 343 131 b 521 536 343 444 404 529 z "},"χ":{"ha":-86,"x_min":0,"x_max":0,"o":"m 325 -490 l 479 -87 l 486 -87 l 665 -490 l 965 -490 l 658 150 l 918 726 l 604 726 l 486 400 l 479 400 l 311 726 l 13 726 l 304 144 l 14 -490 z "},"ψ":{"ha":0,"x_min":0,"x_max":0,"o":"m 890 726 b 946 335 932 583 946 438 b 793 42 946 118 922 46 l 793 958 l 514 958 l 514 42 b 367 249 365 43 367 146 l 367 726 l 93 726 l 93 269 b 514 -174 93 39 176 -165 l 514 -490 l 793 -490 l 793 -174 b 1235 349 1103 -168 1235 17 b 1169 726 1235 483 1211 597 z "},"ω":{"ha":0,"x_min":0,"x_max":0,"o":"m 403 -174 b 657 -60 507 -174 594 -143 l 664 -60 b 933 -174 726 -143 828 -174 b 1244 279 1154 -174 1244 -24 b 1135 726 1244 458 1211 599 l 876 726 b 985 289 960 588 985 425 b 882 49 985 133 943 49 b 782 206 813 49 782 89 l 782 521 l 540 521 l 540 206 b 431 49 540 101 503 49 b 329 247 357 49 329 129 b 458 726 329 386 375 583 l 194 726 b 82 272 119 599 82 411 b 403 -174 82 -32 189 -174 z "},"─":{"ha":0,"x_min":0,"x_max":0,"o":"m 0 389 l 1292 389 l 1292 444 l 0 444 z "},"│":{"ha":0,"x_min":0,"x_max":0,"o":"m 619 -278 l 672 -278 l 672 1111 l 619 1111 z "},"┌":{"ha":0,"x_min":0,"x_max":0,"o":"m 1292 389 l 1292 444 l 619 444 l 619 -278 l 672 -278 l 672 389 z "},"┐":{"ha":0,"x_min":0,"x_max":0,"o":"m 672 -278 l 672 444 l 0 444 l 0 389 l 619 389 l 619 -278 z "},"┘":{"ha":0,"x_min":0,"x_max":0,"o":"m 672 389 l 672 1111 l 619 1111 l 619 444 l 0 444 l 0 389 z "},"└":{"ha":0,"x_min":0,"x_max":0,"o":"m 1292 389 l 1292 444 l 672 444 l 672 1111 l 619 1111 l 619 389 z "},"├":{"ha":0,"x_min":0,"x_max":0,"o":"m 1292 389 l 1292 444 l 672 444 l 672 1111 l 619 1111 l 619 -278 l 672 -278 l 672 389 z "},"┬":{"ha":0,"x_min":0,"x_max":0,"o":"m 1292 389 l 1292 444 l 0 444 l 0 389 l 619 389 l 619 -278 l 672 -278 l 672 389 z "},"┤":{"ha":0,"x_min":0,"x_max":0,"o":"m 672 -278 l 672 1111 l 619 1111 l 619 444 l 0 444 l 0 389 l 619 389 l 619 -278 z "},"┴":{"ha":0,"x_min":0,"x_max":0,"o":"m 1292 389 l 1292 444 l 672 444 l 672 1111 l 619 1111 l 619 444 l 0 444 l 0 389 z "},"┼":{"ha":0,"x_min":0,"x_max":0,"o":"m 1292 389 l 1292 444 l 672 444 l 672 1111 l 619 1111 l 619 444 l 0 444 l 0 389 l 619 389 l 619 -278 l 672 -278 l 672 389 z "},"━":{"ha":0,"x_min":0,"x_max":0,"o":"m 0 333 l 1292 333 l 1292 500 l 0 500 z "},"┃":{"ha":0,"x_min":0,"x_max":0,"o":"m 568 -278 l 724 -278 l 724 1111 l 568 1111 z "},"┏":{"ha":0,"x_min":0,"x_max":0,"o":"m 1292 333 l 1292 500 l 568 500 l 568 -278 l 724 -278 l 724 333 z "},"┓":{"ha":0,"x_min":0,"x_max":0,"o":"m 724 -278 l 724 500 l 0 500 l 0 333 l 568 333 l 568 -278 z "},"┛":{"ha":0,"x_min":0,"x_max":0,"o":"m 0 333 l 724 333 l 724 1111 l 568 1111 l 568 500 l 0 500 z "},"┗":{"ha":0,"x_min":0,"x_max":0,"o":"m 568 333 l 1292 333 l 1292 500 l 724 500 l 724 1111 l 568 1111 z "},"┣":{"ha":0,"x_min":0,"x_max":0,"o":"m 1292 333 l 1292 500 l 724 500 l 724 1111 l 568 1111 l 568 -278 l 724 -278 l 724 333 z "},"┳":{"ha":0,"x_min":0,"x_max":0,"o":"m 1292 333 l 1292 500 l 0 500 l 0 333 l 568 333 l 568 -278 l 724 -278 l 724 333 z "},"┫":{"ha":0,"x_min":0,"x_max":0,"o":"m 724 -278 l 724 1111 l 568 1111 l 568 500 l 0 500 l 0 333 l 568 333 l 568 -278 z "},"┻":{"ha":0,"x_min":0,"x_max":0,"o":"m 1292 333 l 1292 500 l 724 500 l 724 1111 l 568 1111 l 568 500 l 0 500 l 0 333 z "},"╋":{"ha":0,"x_min":0,"x_max":0,"o":"m 1292 333 l 1292 500 l 724 500 l 724 1111 l 568 1111 l 568 500 l 0 500 l 0 333 l 568 333 l 568 -278 l 724 -278 l 724 333 z "},"┠":{"ha":0,"x_min":0,"x_max":0,"o":"m 1292 389 l 1292 444 l 724 444 l 724 1111 l 568 1111 l 568 -278 l 724 -278 l 724 389 z "},"┯":{"ha":0,"x_min":0,"x_max":0,"o":"m 1292 333 l 1292 500 l 0 500 l 0 333 l 619 333 l 619 -278 l 672 -278 l 672 333 z "},"┨":{"ha":0,"x_min":0,"x_max":0,"o":"m 724 -278 l 724 1111 l 568 1111 l 568 444 l 0 444 l 0 389 l 568 389 l 568 -278 z "},"┷":{"ha":0,"x_min":0,"x_max":0,"o":"m 1292 333 l 1292 500 l 672 500 l 672 1111 l 619 1111 l 619 500 l 0 500 l 0 333 z "},"┿":{"ha":0,"x_min":0,"x_max":0,"o":"m 1292 333 l 1292 500 l 672 500 l 672 1111 l 619 1111 l 619 500 l 0 500 l 0 333 l 619 333 l 619 -278 l 672 -278 l 672 333 z "},"┝":{"ha":0,"x_min":0,"x_max":0,"o":"m 1292 333 l 1292 500 l 672 500 l 672 1111 l 619 1111 l 619 -278 l 672 -278 l 672 333 z "},"┰":{"ha":0,"x_min":0,"x_max":0,"o":"m 1292 389 l 1292 444 l 0 444 l 0 389 l 568 389 l 568 -278 l 724 -278 l 724 389 z "},"┥":{"ha":0,"x_min":0,"x_max":0,"o":"m 672 -278 l 672 1111 l 619 1111 l 619 500 l 0 500 l 0 333 l 619 333 l 619 -278 z "},"┸":{"ha":0,"x_min":0,"x_max":0,"o":"m 1292 389 l 1292 444 l 724 444 l 724 1111 l 568 1111 l 568 444 l 0 444 l 0 389 z "},"╂":{"ha":0,"x_min":0,"x_max":0,"o":"m 1292 389 l 1292 444 l 724 444 l 724 1111 l 568 1111 l 568 444 l 0 444 l 0 389 l 568 389 l 568 -278 l 724 -278 l 724 389 z "},"┒":{"ha":0,"x_min":0,"x_max":0,"o":"m 724 -278 l 724 444 l 0 444 l 0 389 l 568 389 l 568 -278 z "},"┑":{"ha":0,"x_min":0,"x_max":0,"o":"m 672 -278 l 672 500 l 0 500 l 0 333 l 619 333 l 619 -278 z "},"┚":{"ha":0,"x_min":0,"x_max":0,"o":"m 0 389 l 724 389 l 724 1111 l 568 1111 l 568 444 l 0 444 z "},"┙":{"ha":0,"x_min":0,"x_max":0,"o":"m 672 333 l 672 1111 l 619 1111 l 619 500 l 0 500 l 0 333 z "},"┖":{"ha":0,"x_min":0,"x_max":0,"o":"m 568 389 l 1292 389 l 1292 444 l 724 444 l 724 1111 l 568 1111 z "},"┕":{"ha":0,"x_min":0,"x_max":0,"o":"m 1292 333 l 1292 500 l 672 500 l 672 1111 l 619 1111 l 619 333 z "},"┎":{"ha":0,"x_min":0,"x_max":0,"o":"m 1292 389 l 1292 444 l 568 444 l 568 -278 l 724 -278 l 724 389 z "},"┍":{"ha":0,"x_min":0,"x_max":0,"o":"m 1292 333 l 1292 500 l 619 500 l 619 -278 l 672 -278 l 672 333 z "},"┞":{"ha":0,"x_min":0,"x_max":0,"o":"m 1292 389 l 1292 444 l 724 444 l 724 1111 l 568 1111 l 568 389 l 619 389 l 619 -278 l 672 -278 l 672 389 z "},"┟":{"ha":0,"x_min":0,"x_max":0,"o":"m 1292 389 l 1292 444 l 672 444 l 672 1111 l 619 1111 l 619 444 l 568 444 l 568 -278 l 724 -278 l 724 389 z "},"┡":{"ha":0,"x_min":0,"x_max":0,"o":"m 1292 333 l 1292 500 l 724 500 l 724 1111 l 568 1111 l 568 333 l 619 333 l 619 -278 l 672 -278 l 672 333 z "},"┢":{"ha":0,"x_min":0,"x_max":0,"o":"m 1292 333 l 1292 500 l 672 500 l 672 1111 l 619 1111 l 619 500 l 568 500 l 568 -278 l 724 -278 l 724 333 z "},"┦":{"ha":0,"x_min":0,"x_max":0,"o":"m 724 389 l 724 1111 l 568 1111 l 568 444 l 0 444 l 0 389 l 619 389 l 619 -278 l 672 -278 l 672 389 z "},"┧":{"ha":0,"x_min":0,"x_max":0,"o":"m 724 -278 l 724 444 l 672 444 l 672 1111 l 619 1111 l 619 444 l 0 444 l 0 389 l 568 389 l 568 -278 z "},"┩":{"ha":0,"x_min":0,"x_max":0,"o":"m 724 333 l 724 1111 l 568 1111 l 568 500 l 0 500 l 0 333 l 619 333 l 619 -278 l 672 -278 l 672 333 z "},"┪":{"ha":0,"x_min":0,"x_max":0,"o":"m 724 -278 l 724 500 l 672 500 l 672 1111 l 619 1111 l 619 500 l 0 500 l 0 333 l 568 333 l 568 -278 z "},"┭":{"ha":0,"x_min":0,"x_max":0,"o":"m 672 -278 l 672 389 l 1292 389 l 1292 444 l 672 444 l 672 500 l 0 500 l 0 333 l 619 333 l 619 -278 z "},"┮":{"ha":0,"x_min":0,"x_max":0,"o":"m 1292 333 l 1292 500 l 619 500 l 619 444 l 0 444 l 0 389 l 619 389 l 619 -278 l 672 -278 l 672 333 z "},"┱":{"ha":0,"x_min":0,"x_max":0,"o":"m 1292 389 l 1292 444 l 724 444 l 724 500 l 0 500 l 0 333 l 568 333 l 568 -278 l 724 -278 l 724 389 z "},"┲":{"ha":0,"x_min":0,"x_max":0,"o":"m 1292 333 l 1292 500 l 568 500 l 568 444 l 0 444 l 0 389 l 568 389 l 568 -278 l 724 -278 l 724 333 z "},"┵":{"ha":0,"x_min":0,"x_max":0,"o":"m 1292 389 l 1292 444 l 672 444 l 672 1111 l 619 1111 l 619 500 l 0 500 l 0 333 l 672 333 l 672 389 z "},"┶":{"ha":0,"x_min":0,"x_max":0,"o":"m 1292 333 l 1292 500 l 672 500 l 672 1111 l 619 1111 l 619 444 l 0 444 l 0 389 l 619 389 l 619 333 z "},"┹":{"ha":0,"x_min":0,"x_max":0,"o":"m 0 333 l 724 333 l 724 389 l 1292 389 l 1292 444 l 724 444 l 724 1111 l 568 1111 l 568 500 l 0 500 z "},"┺":{"ha":0,"x_min":0,"x_max":0,"o":"m 568 333 l 1292 333 l 1292 500 l 724 500 l 724 1111 l 568 1111 l 568 444 l 0 444 l 0 389 l 568 389 z "},"┽":{"ha":0,"x_min":0,"x_max":0,"o":"m 1292 389 l 1292 444 l 672 444 l 672 1111 l 619 1111 l 619 500 l 0 500 l 0 333 l 619 333 l 619 -278 l 672 -278 l 672 389 z "},"┾":{"ha":0,"x_min":0,"x_max":0,"o":"m 1292 333 l 1292 500 l 672 500 l 672 1111 l 619 1111 l 619 444 l 0 444 l 0 389 l 619 389 l 619 -278 l 672 -278 l 672 333 z "},"╀":{"ha":0,"x_min":0,"x_max":0,"o":"m 1292 389 l 1292 444 l 724 444 l 724 1111 l 568 1111 l 568 444 l 0 444 l 0 389 l 619 389 l 619 -278 l 672 -278 l 672 389 z "},"╁":{"ha":0,"x_min":0,"x_max":0,"o":"m 1292 389 l 1292 444 l 672 444 l 672 1111 l 619 1111 l 619 444 l 0 444 l 0 389 l 568 389 l 568 -278 l 724 -278 l 724 389 z "},"╃":{"ha":0,"x_min":0,"x_max":0,"o":"m 724 333 l 724 389 l 1292 389 l 1292 444 l 724 444 l 724 1111 l 568 1111 l 568 500 l 0 500 l 0 333 l 619 333 l 619 -278 l 672 -278 l 672 333 z "},"╄":{"ha":0,"x_min":0,"x_max":0,"o":"m 1292 333 l 1292 500 l 724 500 l 724 1111 l 568 1111 l 568 444 l 0 444 l 0 389 l 568 389 l 568 333 l 619 333 l 619 -278 l 672 -278 l 672 333 z "},"╅":{"ha":0,"x_min":0,"x_max":0,"o":"m 724 -278 l 724 389 l 1292 389 l 1292 444 l 724 444 l 724 500 l 672 500 l 672 1111 l 619 1111 l 619 500 l 0 500 l 0 333 l 568 333 l 568 -278 z "},"╆":{"ha":0,"x_min":0,"x_max":0,"o":"m 1292 333 l 1292 500 l 672 500 l 672 1111 l 619 1111 l 619 500 l 568 500 l 568 444 l 0 444 l 0 389 l 568 389 l 568 -278 l 724 -278 l 724 333 z "},"╇":{"ha":0,"x_min":0,"x_max":0,"o":"m 1292 333 l 1292 500 l 724 500 l 724 1111 l 568 1111 l 568 500 l 0 500 l 0 333 l 619 333 l 619 -278 l 672 -278 l 672 333 z "},"╈":{"ha":0,"x_min":0,"x_max":0,"o":"m 1292 333 l 1292 500 l 672 500 l 672 1111 l 619 1111 l 619 500 l 0 500 l 0 333 l 568 333 l 568 -278 l 724 -278 l 724 333 z "},"╉":{"ha":0,"x_min":0,"x_max":0,"o":"m 1292 389 l 1292 444 l 724 444 l 724 1111 l 568 1111 l 568 500 l 0 500 l 0 333 l 568 333 l 568 -278 l 724 -278 l 724 389 z "},"╊":{"ha":0,"x_min":0,"x_max":0,"o":"m 1292 333 l 1292 500 l 724 500 l 724 1111 l 568 1111 l 568 444 l 0 444 l 0 389 l 568 389 l 568 -278 l 724 -278 l 724 333 z "},"㎕":{"ha":0,"x_min":0,"x_max":0,"o":"m 1224 114 b 1090 40 1189 81 1146 40 b 985 186 1033 40 985 83 l 985 222 b 1278 769 1193 397 1278 567 b 1044 1051 1278 946 1185 1051 b 771 643 886 1051 771 924 l 771 276 b 650 186 728 246 700 221 l 711 19 l 778 67 b 1057 -172 811 -92 926 -172 b 1304 -42 1158 -172 1238 -108 z m 985 678 b 1051 867 985 817 1015 867 b 1100 769 1079 867 1100 833 b 985 458 1100 658 1063 543 z m 56 -386 l 292 -386 b 258 -47 268 -269 263 -169 b 326 -81 271 -72 299 -81 b 421 3 371 -81 410 -58 l 426 3 b 578 -89 451 -61 497 -89 b 674 -61 621 -89 651 -78 l 650 117 b 632 111 643 111 639 111 b 586 178 617 111 586 125 l 586 725 l 376 725 l 376 167 b 324 122 374 139 342 122 b 279 192 303 122 279 136 l 279 725 l 56 725 z "},"㎖":{"ha":0,"x_min":0,"x_max":0,"o":"m 213 679 l 213 725 l 36 725 l 36 -151 l 213 -151 l 213 469 l 240 497 b 340 372 290 547 340 483 l 340 -151 l 517 -151 l 517 400 b 511 483 517 429 514 457 l 554 510 b 643 372 619 535 643 483 l 643 -151 l 821 -151 l 821 131 l 854 19 l 908 67 b 1133 -172 935 -92 1028 -172 b 1333 -42 1217 -172 1281 -108 l 1269 114 b 1160 40 1240 81 1206 40 b 1075 186 1115 40 1075 83 l 1075 222 b 1313 769 1244 397 1313 567 b 1124 1051 1313 946 1238 1051 b 901 643 996 1051 901 924 l 901 276 b 821 200 872 250 851 228 l 821 400 b 558 714 821 656 725 763 b 451 660 525 704 488 683 b 256 710 401 736 328 761 z m 1075 678 b 1129 867 1075 817 1100 867 b 1169 769 1151 867 1169 833 b 1075 458 1169 658 1138 543 z "},"㎗":{"ha":0,"x_min":0,"x_max":0,"o":"m 1224 114 b 1090 40 1189 81 1146 40 b 985 186 1033 40 985 83 l 985 222 b 1278 769 1193 397 1278 567 b 1044 1051 1278 946 1185 1051 b 771 643 886 1051 771 924 l 771 276 b 650 186 728 246 700 221 l 711 19 l 778 67 b 1057 -172 811 -92 926 -172 b 1304 -42 1158 -172 1238 -108 z m 449 1024 l 449 725 l 314 725 b 46 294 147 725 46 540 b 314 -151 46 47 138 -151 l 625 -151 l 625 1024 z m 985 678 b 1051 867 985 817 1015 867 b 1100 769 1079 867 1100 833 b 985 458 1100 658 1063 543 z m 331 -108 b 104 285 326 150 260 278 b 331 679 260 292 326 431 b 556 286 333 431 400 293 b 331 -108 400 279 333 150 z "},"ℓ":{"ha":-265,"x_min":0,"x_max":0,"o":"m 672 114 b 525 40 635 81 586 40 b 407 186 461 40 407 83 l 407 222 b 733 769 639 397 733 567 b 474 1051 733 946 629 1051 b 169 643 297 1051 169 924 l 169 276 l 14 178 l 104 19 l 178 67 b 488 -172 215 -92 343 -172 b 763 -42 600 -172 689 -108 z m 407 678 b 482 867 407 817 442 867 b 536 769 513 867 536 833 b 407 458 536 658 494 543 z "},"㎘":{"ha":0,"x_min":0,"x_max":0,"o":"m 1196 114 b 1063 40 1161 81 1118 40 b 957 186 1006 40 957 83 l 957 222 b 1250 769 1165 397 1250 567 b 1017 1051 1250 946 1157 1051 b 743 643 858 1051 743 924 l 743 276 b 622 186 700 246 672 221 l 699 40 l 750 67 b 1029 -172 783 -92 899 -172 b 1276 -42 1131 -172 1210 -108 z m 265 1024 l 44 1024 l 44 -151 l 265 -151 l 265 115 l 324 192 l 521 -151 l 768 -151 l 460 367 l 739 725 l 492 725 l 265 438 z m 957 678 b 1024 867 957 817 988 867 b 1072 769 1051 867 1072 833 b 957 458 1072 658 1035 543 z "},"㏄":{"ha":0,"x_min":0,"x_max":0,"o":"m 431 224 l 431 182 b 331 44 431 113 406 44 b 229 224 256 44 229 124 l 229 351 b 331 531 229 451 256 531 b 431 393 406 531 431 463 l 431 365 l 631 365 l 631 407 b 331 744 631 579 531 744 b 31 365 139 744 31 596 l 31 210 b 331 -169 31 -21 139 -169 b 631 168 542 -169 631 -4 l 631 224 z m 1068 224 l 1068 182 b 968 44 1068 113 1043 44 b 867 224 893 44 867 124 l 867 351 b 968 531 867 451 893 531 b 1068 393 1043 531 1068 463 l 1068 365 l 1268 365 l 1268 407 b 968 744 1268 579 1168 744 b 668 365 776 744 668 596 l 668 210 b 968 -169 668 -21 776 -169 b 1268 168 1179 -169 1268 -4 l 1268 224 z "},"㎣":{"ha":0,"x_min":0,"x_max":0,"o":"m 1049 915 l 1086 915 b 1151 878 1124 913 1151 899 b 1103 849 1151 860 1131 849 b 1060 888 1081 849 1060 863 l 953 888 b 1113 749 953 796 1022 749 b 1267 875 1193 749 1267 801 b 1214 967 1267 918 1243 949 b 1253 1047 1236 986 1253 1018 b 1111 1161 1253 1111 1197 1161 b 969 1032 1021 1161 968 1100 l 1075 1032 b 1106 1064 1075 1050 1089 1064 b 1138 1040 1125 1064 1138 1053 b 1086 1004 1138 1021 1124 1006 l 1049 1004 z m 793 679 l 793 725 l 663 725 l 663 -151 l 793 -151 l 793 469 l 818 497 b 890 372 865 526 890 483 l 890 -151 l 1019 -151 l 1019 400 b 1017 474 1019 426 1018 450 l 1042 496 b 1117 372 1089 521 1117 483 l 1117 -151 l 1247 -151 l 1247 400 b 1056 714 1247 656 1176 763 b 978 654 1029 703 1001 681 b 829 710 944 722 893 743 z m 174 679 l 174 725 l 44 725 l 44 -151 l 174 -151 l 174 469 l 199 497 b 272 372 247 526 272 483 l 272 -151 l 400 -151 l 400 400 b 397 472 400 425 399 449 l 424 496 b 499 372 471 521 499 483 l 499 -151 l 628 -151 l 628 400 b 436 714 628 656 558 763 b 358 654 410 703 383 681 b 211 710 325 722 274 743 z "},"㎤":{"ha":0,"x_min":0,"x_max":0,"o":"m 1049 915 l 1076 915 b 1151 878 1119 915 1151 901 b 1103 849 1151 860 1131 849 b 1060 888 1081 849 1060 863 l 953 888 b 1113 749 953 796 1022 749 b 1267 875 1193 749 1267 801 b 1214 967 1267 918 1243 949 b 1253 1047 1236 986 1253 1018 b 1111 1161 1253 1111 1197 1161 b 969 1032 1021 1161 968 1100 l 1075 1032 b 1106 1064 1075 1050 1089 1064 b 1138 1040 1125 1064 1138 1053 b 1086 1004 1138 1021 1124 1006 l 1049 1004 z m 360 224 l 360 182 b 275 44 360 113 335 44 b 188 224 215 44 188 124 l 188 351 b 275 531 188 451 215 531 b 360 393 335 531 360 463 l 360 365 l 519 365 l 519 407 b 275 744 519 579 436 744 b 28 365 119 744 28 596 l 28 210 b 275 -169 28 -21 119 -169 b 519 168 446 -169 519 -4 l 519 224 z m 697 679 l 697 725 l 538 725 l 538 -151 l 697 -151 l 697 469 l 729 497 b 819 372 788 526 819 483 l 819 -151 l 979 -151 l 979 400 b 976 474 979 426 978 450 l 1006 496 b 1099 372 1065 521 1099 483 l 1099 -151 l 1260 -151 l 1260 400 b 1010 714 1260 656 1160 763 b 925 657 978 704 951 682 b 742 710 883 724 819 743 z "},"㎥":{"ha":0,"x_min":0,"x_max":0,"o":"m 1049 915 l 1076 915 b 1151 878 1119 915 1151 901 b 1103 849 1151 860 1131 849 b 1060 888 1081 849 1060 863 l 953 888 b 1113 749 953 796 1022 749 b 1267 875 1193 749 1267 801 b 1214 967 1267 918 1243 949 b 1253 1047 1236 986 1253 1018 b 1111 1161 1253 1111 1197 1161 b 969 1032 1021 1161 968 1100 l 1075 1032 b 1106 1064 1075 1050 1089 1064 b 1138 1040 1125 1064 1138 1053 b 1086 1004 1138 1021 1124 1006 l 1049 1004 z m 314 679 l 314 725 l 42 725 l 42 -151 l 314 -151 l 314 469 l 368 497 b 521 372 467 526 521 483 l 521 -151 l 793 -151 l 793 400 b 788 474 793 426 792 450 l 840 496 b 1000 372 940 521 1000 483 l 1000 -151 l 1272 -151 l 1272 400 b 847 714 1272 656 1104 763 b 703 656 794 704 747 681 b 392 710 632 724 524 743 z "},"㎦":{"ha":0,"x_min":0,"x_max":0,"o":"m 1049 915 l 1086 915 b 1151 878 1124 913 1151 899 b 1103 849 1151 860 1131 849 b 1060 888 1081 849 1060 863 l 953 888 b 1113 749 953 796 1022 749 b 1267 875 1193 749 1267 801 b 1214 967 1267 918 1243 949 b 1253 1047 1236 986 1253 1018 b 1111 1161 1253 1111 1197 1161 b 969 1032 1021 1161 968 1100 l 1075 1032 b 1106 1064 1075 1050 1089 1064 b 1138 1040 1125 1064 1138 1053 b 1076 1004 1138 1019 1122 1004 l 1049 1004 z m 194 1024 l 33 1024 l 33 -151 l 194 -151 l 194 118 l 225 178 l 347 -151 l 528 -151 l 319 363 l 507 725 l 326 725 l 194 443 z m 694 679 l 694 725 l 533 725 l 533 -151 l 694 -151 l 694 469 l 726 497 b 817 372 783 526 817 483 l 817 -151 l 978 -151 l 978 400 b 975 474 978 426 976 450 l 1006 496 b 1100 372 1065 521 1100 483 l 1100 -151 l 1260 -151 l 1260 400 b 1010 714 1260 656 1161 763 b 924 656 979 704 950 682 b 740 710 882 724 818 743 z "},"㎙":{"ha":0,"x_min":0,"x_max":0,"o":"m 456 1133 l 369 1133 b 136 782 164 1133 136 971 l 136 744 l 42 744 l 42 522 l 136 522 l 136 -151 l 317 -151 l 317 522 l 463 522 l 463 744 l 317 744 l 317 790 b 401 911 317 879 351 911 l 456 911 z m 667 679 l 667 725 l 493 725 l 493 -151 l 667 -151 l 667 469 l 697 497 b 788 372 756 526 788 483 l 788 -151 l 960 -151 l 960 400 b 956 472 960 425 958 449 l 988 496 b 1081 372 1046 521 1081 483 l 1081 -151 l 1254 -151 l 1254 400 b 1004 714 1254 656 1154 763 b 901 656 972 703 936 681 b 711 710 857 724 789 743 z "},"㎚":{"ha":0,"x_min":0,"x_max":0,"o":"m 694 679 l 694 725 l 535 725 l 535 -151 l 694 -151 l 694 469 l 725 497 b 815 372 783 526 815 483 l 815 -151 l 974 -151 l 974 400 b 971 472 974 425 972 450 l 1001 496 b 1094 372 1060 521 1094 483 l 1094 -151 l 1254 -151 l 1254 400 b 1018 714 1254 656 1168 763 b 922 653 986 703 953 679 b 739 710 881 722 818 743 z m 263 714 l 196 683 l 196 725 l 36 725 l 36 -151 l 196 -151 l 196 469 l 239 500 b 328 372 297 526 328 483 l 328 -151 l 488 -151 l 488 400 b 263 714 488 656 407 761 z "},"㎛":{"ha":0,"x_min":0,"x_max":0,"o":"m 50 -386 l 256 -386 b 225 -47 233 -269 228 -169 b 288 -81 236 -72 261 -81 b 374 3 328 -81 364 -58 l 379 3 b 504 -89 403 -61 431 -89 b 571 -75 532 -89 553 -83 l 571 -151 l 729 -151 l 729 469 l 757 497 b 838 372 810 526 838 483 l 838 -151 l 994 -151 l 994 400 b 992 472 994 425 993 450 l 1019 496 b 1103 372 1072 521 1103 483 l 1103 -151 l 1261 -151 l 1261 400 b 1035 714 1261 656 1169 763 b 942 656 1006 704 972 682 b 769 710 900 724 839 743 l 729 679 l 729 725 l 571 725 l 571 117 b 556 111 564 111 561 111 b 513 178 540 111 513 125 l 513 725 l 333 725 l 333 167 b 285 122 331 139 301 122 b 243 192 265 122 243 136 l 243 725 l 50 725 z "},"㎜":{"ha":0,"x_min":0,"x_max":0,"o":"m 793 679 l 793 725 l 663 725 l 663 -151 l 793 -151 l 793 469 l 818 497 b 890 372 865 526 890 483 l 890 -151 l 1019 -151 l 1019 400 b 1017 474 1019 426 1018 450 l 1042 496 b 1117 372 1089 521 1117 483 l 1117 -151 l 1247 -151 l 1247 400 b 1056 714 1247 656 1176 763 b 978 654 1029 703 1001 681 b 829 710 944 722 893 743 z m 174 679 l 174 725 l 44 725 l 44 -151 l 174 -151 l 174 469 l 199 497 b 272 372 247 526 272 483 l 272 -151 l 400 -151 l 400 400 b 397 472 400 425 399 449 l 424 496 b 499 372 471 521 499 483 l 499 -151 l 628 -151 l 628 400 b 436 714 628 656 558 763 b 358 654 410 703 383 681 b 211 710 325 722 274 743 z "},"㎝":{"ha":0,"x_min":0,"x_max":0,"o":"m 360 224 l 360 182 b 275 44 360 113 335 44 b 188 224 215 44 188 124 l 188 351 b 275 531 188 451 215 531 b 360 393 335 531 360 463 l 360 365 l 519 365 l 519 407 b 275 744 519 579 436 744 b 28 365 119 744 28 596 l 28 210 b 275 -169 28 -21 119 -169 b 519 168 446 -169 519 -4 l 519 224 z m 697 679 l 697 725 l 538 725 l 538 -151 l 697 -151 l 697 469 l 729 497 b 819 372 788 526 819 483 l 819 -151 l 979 -151 l 979 400 b 976 474 979 426 978 450 l 1006 496 b 1099 372 1065 521 1099 483 l 1099 -151 l 1260 -151 l 1260 400 b 1010 714 1260 656 1160 763 b 925 657 978 704 951 682 b 742 710 883 724 819 743 z "},"㎞":{"ha":0,"x_min":0,"x_max":0,"o":"m 194 1024 l 33 1024 l 33 -151 l 194 -151 l 194 118 l 225 178 l 347 -151 l 528 -151 l 319 363 l 507 725 l 326 725 l 194 443 z m 694 679 l 694 725 l 533 725 l 533 -151 l 694 -151 l 694 469 l 726 497 b 817 372 783 526 817 483 l 817 -151 l 978 -151 l 978 400 b 975 474 978 426 976 450 l 1006 496 b 1100 372 1065 521 1100 483 l 1100 -151 l 1260 -151 l 1260 400 b 1010 714 1260 656 1161 763 b 924 656 979 704 950 682 b 740 710 882 724 818 743 z "},"㎟":{"ha":0,"x_min":0,"x_max":0,"o":"m 1260 751 l 1260 875 b 1122 840 1214 853 1167 843 l 1193 903 b 1264 1024 1242 947 1264 978 b 1111 1160 1264 1100 1213 1160 b 960 1001 1007 1160 961 1075 l 1067 1001 b 1110 1061 1067 1039 1082 1061 b 1149 1026 1135 1061 1149 1047 b 1088 942 1149 996 1125 975 l 1088 943 l 961 831 l 961 751 z m 172 679 l 172 725 l 26 725 l 26 -151 l 172 -151 l 172 469 l 197 497 b 260 372 228 531 260 483 l 260 -151 l 393 -151 l 393 400 b 390 475 393 426 392 451 l 414 496 b 492 372 463 521 492 483 l 492 -151 l 636 -151 l 636 400 b 417 714 636 656 543 763 b 349 658 392 704 369 682 b 196 710 314 724 261 743 z m 825 679 l 825 725 l 679 725 l 679 -151 l 825 -151 l 825 469 l 850 497 b 913 372 888 539 913 483 l 913 -151 l 1046 -151 l 1046 400 b 1043 475 1046 426 1044 451 l 1067 496 b 1144 372 1107 532 1144 483 l 1144 -151 l 1289 -151 l 1289 400 b 1069 714 1289 656 1196 763 b 1001 658 1044 704 1022 682 b 849 710 967 724 914 743 z "},"㎠":{"ha":0,"x_min":0,"x_max":0,"o":"m 1260 751 l 1260 875 b 1122 840 1214 853 1167 843 l 1193 903 b 1264 1024 1242 947 1264 978 b 1111 1160 1264 1100 1213 1160 b 960 1001 1007 1160 961 1075 l 1067 1001 b 1110 1061 1067 1039 1082 1061 b 1149 1026 1135 1061 1149 1047 b 1088 942 1149 996 1125 975 l 1088 943 l 961 831 l 961 751 z m 360 224 l 360 182 b 275 44 360 113 335 44 b 188 224 215 44 188 124 l 188 351 b 275 531 188 451 215 531 b 360 393 335 531 360 463 l 360 365 l 519 365 l 519 407 b 275 744 519 579 436 744 b 28 365 119 744 28 596 l 28 210 b 275 -169 28 -21 119 -169 b 519 168 446 -169 519 -4 l 519 224 z m 697 679 l 697 725 l 538 725 l 538 -151 l 697 -151 l 697 469 l 729 497 b 819 372 788 526 819 483 l 819 -151 l 979 -151 l 979 400 b 976 474 979 426 978 450 l 1006 496 b 1099 372 1065 521 1099 483 l 1099 -151 l 1260 -151 l 1260 400 b 1010 714 1260 656 1160 763 b 925 657 978 704 951 682 b 742 710 883 724 819 743 z "},"㎡":{"ha":0,"x_min":0,"x_max":0,"o":"m 1260 751 l 1260 875 b 1122 840 1214 853 1167 843 l 1193 903 b 1264 1024 1242 947 1264 978 b 1111 1160 1264 1100 1213 1160 b 960 1001 1007 1160 961 1075 l 1067 1001 b 1110 1061 1067 1039 1082 1061 b 1149 1026 1135 1061 1149 1047 b 1088 942 1149 996 1125 975 l 1088 943 l 961 831 l 961 751 z m 314 679 l 314 725 l 42 725 l 42 -151 l 314 -151 l 314 469 l 368 497 b 521 372 467 526 521 483 l 521 -151 l 793 -151 l 793 400 b 788 474 793 426 792 450 l 840 496 b 1000 372 940 521 1000 483 l 1000 -151 l 1272 -151 l 1272 400 b 847 714 1272 656 1104 763 b 703 656 794 704 747 681 b 392 710 632 724 524 743 z "},"㎢":{"ha":0,"x_min":0,"x_max":0,"o":"m 1260 751 l 1260 875 b 1122 840 1214 853 1167 843 l 1193 903 b 1264 1024 1242 947 1264 978 b 1111 1160 1264 1100 1213 1160 b 960 1001 1007 1160 961 1075 l 1067 1001 b 1110 1061 1067 1039 1082 1061 b 1149 1026 1135 1061 1149 1047 b 1088 942 1149 996 1125 975 l 1088 943 l 961 831 l 961 751 z m 194 1024 l 33 1024 l 33 -151 l 194 -151 l 194 118 l 225 178 l 347 -151 l 528 -151 l 319 363 l 507 725 l 326 725 l 194 443 z m 694 679 l 694 725 l 533 725 l 533 -151 l 694 -151 l 694 469 l 726 497 b 817 372 783 526 817 483 l 817 -151 l 978 -151 l 978 400 b 975 474 978 426 976 450 l 1006 496 b 1100 372 1065 521 1100 483 l 1100 -151 l 1260 -151 l 1260 400 b 1010 714 1260 656 1161 763 b 924 656 979 704 950 682 b 740 710 882 724 818 743 z "},"㏊":{"ha":0,"x_min":0,"x_max":0,"o":"m 343 715 l 240 688 l 240 1024 l 36 1024 l 36 -151 l 240 -151 l 240 474 l 317 501 b 415 378 382 525 415 489 l 415 -151 l 621 -151 l 621 406 b 343 715 621 661 503 758 z m 894 -169 b 1067 -101 964 -169 1033 -139 l 1067 -151 l 1263 -151 l 1263 443 b 958 739 1263 615 1114 739 b 663 471 794 739 663 621 l 663 443 l 868 443 l 868 457 b 958 539 868 504 900 539 b 1057 443 1018 539 1057 513 l 1057 424 l 922 400 b 644 86 738 368 644 261 b 894 -169 644 -81 772 -169 z m 949 363 b 1115 121 953 232 1031 126 b 949 -117 1031 115 953 7 b 783 119 944 6 867 114 b 949 363 867 125 944 232 z "},"㎍":{"ha":0,"x_min":0,"x_max":0,"o":"m 931 744 b 631 365 756 744 631 582 l 631 238 b 647 115 631 194 636 153 b 632 111 642 111 638 111 b 586 178 617 111 586 125 l 586 725 l 376 725 l 376 167 b 324 122 374 139 342 122 b 279 192 303 122 279 136 l 279 725 l 56 725 l 56 -386 l 292 -386 b 258 -47 268 -269 263 -169 b 326 -81 271 -72 299 -81 b 421 3 371 -81 410 -58 l 426 3 b 578 -89 451 -61 497 -89 b 674 -61 621 -89 651 -78 l 651 103 b 931 -128 696 -32 804 -128 b 1051 -97 964 -128 1029 -121 l 1051 -151 b 935 -275 1051 -221 1003 -275 b 826 -179 868 -275 826 -237 l 826 -158 l 649 -158 l 649 -193 b 935 -489 649 -354 763 -489 b 1229 -165 1100 -489 1229 -337 l 1229 365 b 931 744 1229 582 1104 744 z m 931 689 b 1156 310 933 431 1000 315 b 931 -72 1000 303 933 175 b 704 308 926 175 860 301 b 931 689 860 314 926 431 z "},"㎎":{"ha":0,"x_min":0,"x_max":0,"o":"m 1004 744 b 735 365 847 744 735 582 l 735 238 b 1004 -128 735 35 856 -128 b 1113 -97 1035 -128 1093 -121 l 1113 -151 b 1008 -275 1113 -221 1069 -275 b 910 -179 947 -275 910 -237 l 910 -158 l 750 -158 l 750 -193 b 1008 -489 750 -354 853 -489 b 1272 -165 1157 -489 1272 -337 l 1272 365 b 1004 744 1272 582 1160 744 z m 186 679 l 186 725 l 32 725 l 32 -151 l 186 -151 l 186 469 l 229 497 b 296 372 281 526 296 483 l 296 -151 l 451 -151 l 451 400 b 449 472 451 425 450 450 l 483 496 b 558 372 536 521 558 483 l 558 -151 l 715 -151 l 715 400 b 494 714 715 656 628 763 b 410 657 467 704 438 682 b 256 710 376 724 325 743 z m 1004 689 b 1207 310 1007 431 1067 315 b 1004 -72 1067 303 1007 175 b 800 308 1001 175 940 301 b 1004 689 940 314 1001 431 z "},"㎏":{"ha":0,"x_min":0,"x_max":0,"o":"m 213 1024 l 36 1024 l 36 -151 l 213 -151 l 213 126 l 279 224 l 446 -151 l 644 -151 l 389 385 l 621 725 l 422 725 l 213 433 z m 931 744 b 631 365 756 744 631 582 l 631 238 b 931 -128 631 35 765 -128 b 1044 -97 964 -128 1022 -121 l 1044 -151 b 935 -275 1044 -221 1003 -275 b 826 -179 868 -275 826 -237 l 826 -158 l 649 -158 l 649 -193 b 935 -489 649 -354 763 -489 b 1229 -165 1100 -489 1229 -337 l 1229 365 b 931 744 1229 582 1104 744 z m 931 689 b 1156 310 933 431 1000 315 b 931 -72 1000 303 933 175 b 704 308 926 175 860 301 b 931 689 860 314 926 431 z "},"㏏":{"ha":0,"x_min":0,"x_max":0,"o":"m 289 1024 l 51 1024 l 51 -151 l 289 -151 l 289 113 l 354 192 l 563 -151 l 828 -151 l 499 365 l 740 656 l 740 501 l 846 501 l 846 219 b 1124 -151 846 19 906 -151 l 1229 -151 l 1229 71 l 1176 71 b 1082 200 1117 71 1082 110 l 1082 501 l 1229 501 l 1229 724 l 1082 724 l 1082 1025 l 846 1025 l 846 724 l 796 724 l 797 725 l 532 725 l 289 435 z "},"㎈":{"ha":0,"x_min":0,"x_max":0,"o":"m 1075 118 b 1285 -169 1075 -54 1138 -169 l 1331 -169 l 1331 53 l 1294 53 b 1253 113 1269 53 1253 64 l 1253 1024 l 1075 1024 z m 351 224 l 351 182 b 271 44 351 113 338 44 b 190 224 204 44 190 124 l 190 351 b 271 531 190 451 204 531 b 351 393 338 531 351 463 l 351 365 l 514 365 l 514 407 b 271 744 514 579 450 744 b 13 365 100 744 13 596 l 13 210 b 271 -169 13 -21 100 -169 b 514 168 460 -169 514 -4 l 514 224 z m 735 -169 b 879 -101 804 -169 846 -139 l 879 -151 l 1047 -151 l 1047 443 b 785 739 1047 615 940 739 b 544 471 621 739 544 621 l 544 443 l 708 443 l 708 457 b 785 539 708 504 726 539 b 869 443 844 539 869 513 l 869 424 l 749 400 b 526 86 564 368 526 261 b 735 -169 526 -81 613 -169 z m 775 363 b 928 121 778 232 844 126 b 775 -117 844 115 778 7 b 624 119 771 6 707 114 b 775 363 707 125 771 232 z "},"㎉":{"ha":0,"x_min":0,"x_max":0,"o":"m 153 1024 l 26 1024 l 26 -151 l 153 -151 l 153 119 l 163 146 l 261 -151 l 404 -151 l 236 336 l 388 725 l 243 725 l 153 446 z m 1232 1024 l 1104 1024 l 1104 117 b 1256 -169 1104 -54 1149 -169 l 1288 -169 l 1288 53 l 1263 53 b 1232 113 1243 53 1232 64 z m 582 224 l 582 182 b 525 44 582 113 572 44 b 468 224 478 44 468 124 l 468 351 b 525 531 468 451 478 531 b 582 393 572 531 582 463 l 582 365 l 700 365 l 700 407 b 525 744 700 579 654 744 b 339 365 403 744 339 596 l 339 210 b 525 -169 339 -21 403 -169 b 700 168 661 -169 700 -4 l 700 224 z m 858 -169 b 963 -101 908 -169 939 -139 l 963 -151 l 1083 -151 l 1083 443 b 894 739 1083 615 1007 739 b 722 471 778 739 722 621 l 722 443 l 840 443 l 840 457 b 894 539 840 504 853 539 b 956 443 938 539 956 513 l 956 424 l 868 400 b 708 86 736 368 708 261 b 858 -169 708 -81 771 -169 z m 888 363 b 997 121 889 232 938 126 b 888 -126 936 115 888 0 b 778 119 888 0 840 114 b 888 363 838 125 885 232 z "},"㏈":{"ha":0,"x_min":0,"x_max":0,"o":"m 639 1024 l 639 -151 l 997 -151 b 1268 213 1161 -151 1268 -21 b 1142 490 1268 335 1213 460 b 1222 733 1192 536 1222 638 b 988 1024 1222 931 1124 1024 z m 415 1024 l 415 725 l 283 725 b 21 294 119 725 21 540 b 283 -151 21 47 110 -151 l 588 -151 l 588 1024 z m 942 986 b 1164 743 947 840 1053 747 b 942 501 1053 739 947 657 b 718 743 936 657 831 739 b 942 986 831 747 936 840 z m 300 -108 b 78 285 296 150 231 278 b 300 679 231 292 296 431 b 519 286 303 431 368 293 b 300 -108 368 279 303 150 z m 942 471 b 1190 182 947 289 1078 186 b 942 -106 1078 178 947 88 b 692 183 935 88 804 179 b 942 471 804 188 935 289 z "},"㎧":{"ha":0,"x_min":0,"x_max":0,"o":"m 624 -276 l 743 -276 l 951 1114 l 832 1114 l 683 122 l 683 400 b 458 714 683 656 594 763 b 382 656 431 704 406 682 b 217 710 343 724 286 743 l 175 679 l 175 725 l 31 725 l 31 -151 l 175 -151 l 175 469 l 204 497 b 285 372 256 526 285 483 l 285 -151 l 431 -151 l 431 400 b 428 474 431 426 429 450 l 456 496 b 540 372 508 521 540 483 l 540 -151 l 642 -151 z m 1075 -175 b 1278 121 1203 -175 1278 -35 b 1189 351 1278 236 1239 315 l 1082 428 b 1024 504 1049 450 1024 468 b 1079 563 1024 539 1046 563 b 1140 483 1113 563 1140 529 l 1264 483 b 1076 744 1264 628 1188 744 b 885 483 965 744 885 644 b 986 250 885 371 929 288 l 1090 176 b 1139 97 1125 153 1139 131 b 1069 32 1139 57 1104 32 b 992 139 1035 32 992 74 l 868 139 b 1075 -175 868 -28 933 -175 z "},"㎨":{"ha":0,"x_min":0,"x_max":0,"o":"m 1260 751 l 1260 875 b 1122 840 1214 853 1167 843 l 1193 903 b 1264 1024 1242 947 1264 978 b 1111 1160 1264 1100 1213 1160 b 960 1001 1007 1160 961 1075 l 1067 1001 b 1110 1061 1067 1039 1082 1061 b 1149 1026 1135 1061 1149 1047 b 1088 942 1149 996 1125 975 l 1088 943 l 961 831 l 961 751 z m 624 -276 l 743 -276 l 951 1114 l 832 1114 l 683 122 l 683 400 b 458 714 683 656 594 763 b 382 656 431 704 406 682 b 217 710 343 724 286 743 l 175 679 l 175 725 l 31 725 l 31 -151 l 175 -151 l 175 469 l 204 497 b 285 372 256 526 285 483 l 285 -151 l 431 -151 l 431 400 b 428 474 431 426 429 450 l 456 496 b 540 372 508 521 540 483 l 540 -151 l 642 -151 z m 1075 -175 b 1278 107 1203 -175 1278 -49 b 1189 338 1278 222 1239 301 l 1082 414 b 1024 490 1049 436 1024 454 b 1079 549 1024 525 1046 549 b 1140 469 1113 549 1140 515 l 1264 469 b 1076 717 1264 614 1188 717 b 885 469 965 717 885 631 b 986 236 885 357 929 274 l 1090 163 b 1139 83 1125 139 1139 117 b 1069 18 1139 43 1104 18 b 992 125 1035 18 992 60 l 868 125 b 1075 -175 868 -42 933 -175 z "},"㎰":{"ha":0,"x_min":0,"x_max":0,"o":"m 954 -175 b 1263 121 1150 -175 1263 -35 b 1128 351 1263 236 1206 315 l 967 428 b 876 504 917 450 876 468 b 963 563 876 539 914 563 b 1054 483 1013 563 1054 529 l 1243 483 b 957 744 1243 628 1125 744 b 668 483 789 744 668 644 b 819 250 668 371 738 288 l 982 176 b 1054 97 1031 153 1054 131 b 949 32 1054 57 1001 32 b 832 139 894 32 832 74 l 644 139 b 954 -175 644 -28 743 -175 z m 251 -490 l 251 -151 l 358 -151 b 626 279 525 -151 626 33 b 358 725 626 526 535 725 l 47 725 l 47 -490 z m 343 681 b 568 289 346 422 413 294 b 343 -108 413 282 346 140 b 117 288 339 140 271 281 b 343 681 271 293 339 422 z "},"㎱":{"ha":0,"x_min":0,"x_max":0,"o":"m 928 -175 b 1249 121 1132 -175 1249 -35 b 1110 351 1249 236 1189 315 l 943 428 b 846 504 889 450 846 468 b 938 563 846 539 885 563 b 1033 483 988 563 1033 529 l 1229 483 b 931 744 1229 628 1106 744 b 629 483 756 744 629 644 b 788 250 629 371 701 288 l 956 176 b 1032 97 1008 153 1032 131 b 921 32 1032 57 978 32 b 800 139 865 32 800 74 l 604 139 b 928 -175 604 -28 707 -175 z m 329 714 l 240 683 l 240 725 l 36 725 l 36 -151 l 240 -151 l 240 469 l 289 500 b 374 372 354 526 374 483 l 374 -151 l 579 -151 l 579 400 b 329 714 579 656 489 761 z "},"㎲":{"ha":0,"x_min":0,"x_max":0,"o":"m 56 -386 l 292 -386 b 258 -47 268 -269 263 -169 b 326 -81 271 -72 299 -81 b 421 3 371 -81 410 -58 l 426 3 b 578 -89 451 -61 497 -89 b 669 -64 618 -89 647 -79 b 928 -175 722 -131 807 -175 b 1249 121 1132 -175 1249 -35 b 1110 351 1249 236 1189 315 l 943 428 b 846 504 889 450 846 468 b 938 563 846 539 885 563 b 1033 483 988 563 1033 529 l 1229 483 b 931 744 1229 628 1106 744 b 629 483 756 744 629 644 b 788 250 629 371 701 288 l 956 176 b 1032 97 1008 153 1032 131 b 921 32 1032 57 978 32 b 800 139 865 32 800 74 l 604 139 l 604 124 b 586 178 594 133 586 150 l 586 725 l 376 725 l 376 167 b 324 122 374 139 342 122 b 279 192 303 122 279 136 l 279 725 l 56 725 z "},"㎳":{"ha":0,"x_min":0,"x_max":0,"o":"m 1035 -175 b 1257 121 1175 -175 1257 -35 b 1160 351 1257 236 1215 315 l 1043 428 b 979 504 1007 450 979 468 b 1042 563 979 539 1004 563 b 1107 483 1075 563 1107 529 l 1243 483 b 1036 744 1243 628 1157 744 b 826 483 915 744 826 644 b 939 250 826 371 878 288 l 1053 176 b 1107 97 1090 153 1107 131 b 1031 32 1107 57 1068 32 b 946 139 990 32 946 74 l 811 139 b 1035 -175 811 -28 882 -175 z m 190 679 l 190 725 l 35 725 l 35 -151 l 190 -151 l 190 469 l 246 497 b 335 372 303 526 335 483 l 335 -151 l 490 -151 l 490 400 b 488 471 490 425 489 449 l 542 496 b 632 372 600 521 632 483 l 632 -151 l 789 -151 l 789 400 b 546 714 789 656 693 763 b 442 651 514 703 476 678 b 260 710 401 722 338 744 z "},"㎴":{"ha":0,"x_min":0,"x_max":0,"o":"m 1274 1024 l 1047 1024 l 893 194 l 743 1024 l 518 1024 l 786 -151 l 1004 -151 z m 254 -490 l 254 -151 l 361 -151 b 629 279 528 -151 629 33 b 361 725 629 526 538 725 l 50 725 l 50 -490 z m 346 681 b 571 289 349 422 415 294 b 346 -108 415 282 349 140 b 119 288 342 140 274 281 b 346 681 274 293 342 422 z "},"㎵":{"ha":0,"x_min":0,"x_max":0,"o":"m 1274 1024 l 1047 1024 l 893 194 l 743 1024 l 518 1024 l 786 -151 l 1004 -151 z m 329 714 l 226 683 l 226 725 l 36 725 l 36 -151 l 226 -151 l 226 469 l 303 500 b 401 372 368 526 401 483 l 401 -151 l 593 -151 l 593 400 b 329 714 593 656 489 761 z "},"㎶":{"ha":0,"x_min":0,"x_max":0,"o":"m 56 -386 l 292 -386 b 258 -47 268 -269 263 -169 b 326 -81 271 -72 299 -81 b 421 3 371 -81 410 -58 l 426 3 b 578 -89 451 -61 497 -89 b 674 -61 621 -89 651 -78 l 650 117 b 632 111 643 111 639 111 b 586 178 617 111 586 125 l 586 624 l 772 -151 l 990 -151 l 1274 1024 l 1047 1024 l 879 194 l 715 1024 l 490 1024 l 561 725 l 376 725 l 376 167 b 324 122 374 139 342 122 b 279 192 303 122 279 136 l 279 725 l 56 725 z "},"㎷":{"ha":0,"x_min":0,"x_max":0,"o":"m 1275 1024 l 1121 1024 l 1017 443 b 978 153 1001 344 992 254 b 938 443 963 254 954 344 l 836 1024 l 681 1024 l 899 -151 l 1057 -151 z m 181 679 l 181 725 l 31 725 l 31 -151 l 181 -151 l 181 469 l 233 497 b 318 372 288 526 318 483 l 318 -151 l 468 -151 l 468 400 b 465 471 468 425 467 449 l 517 496 b 604 372 574 521 604 483 l 604 -151 l 754 -151 l 754 400 b 521 714 754 656 663 763 b 421 651 490 703 454 678 b 247 710 382 722 322 744 z "},"㎸":{"ha":0,"x_min":0,"x_max":0,"o":"m 247 1024 l 43 1024 l 43 -151 l 247 -151 l 247 117 l 300 192 l 483 -151 l 715 -151 l 428 367 l 596 600 l 785 -151 l 1006 -151 l 1300 1024 l 1090 1024 l 950 443 b 896 153 928 344 915 254 b 842 443 876 254 864 344 l 700 1024 l 490 1024 l 565 725 l 457 725 l 247 439 z "},"㎹":{"ha":0,"x_min":0,"x_max":0,"o":"m 1296 1024 l 1132 1024 l 1021 443 l 978 153 b 936 443 965 254 951 344 l 828 1024 l 499 1024 l 393 400 b 368 211 382 336 375 274 b 346 400 364 274 354 336 l 239 1024 l 42 1024 l 42 -151 l 194 -151 l 194 333 b 182 618 194 406 188 532 l 310 -124 l 431 -124 l 557 618 b 542 333 550 532 542 406 l 542 -151 l 694 -151 l 694 861 l 893 -151 l 1064 -151 z "},"㎀":{"ha":0,"x_min":0,"x_max":0,"o":"m 1113 -151 l 1306 -151 l 1024 1024 l 844 1024 l 560 -151 l 754 -151 l 806 68 l 1061 68 z m 1099 515 b 933 117 971 515 933 315 b 768 515 933 315 896 515 b 933 882 889 515 929 682 b 1099 515 936 682 976 515 z m 213 -490 l 213 -151 l 347 -151 b 615 279 514 -151 615 33 b 347 725 615 526 524 725 l 36 725 l 36 -490 z m 332 681 b 557 289 335 422 401 294 b 332 -129 397 281 332 132 b 106 288 332 132 264 281 b 332 681 260 293 328 422 z "},"㎁":{"ha":0,"x_min":0,"x_max":0,"o":"m 315 714 l 213 683 l 213 725 l 36 725 l 36 -151 l 213 -151 l 213 469 l 289 500 b 388 372 354 526 388 483 l 388 -151 l 754 -151 l 806 68 l 1061 68 l 1113 -151 l 1306 -151 l 1024 1024 l 844 1024 l 565 -128 l 565 400 b 315 714 565 656 475 761 z m 1099 515 b 933 117 971 515 933 315 b 768 515 933 315 896 515 b 933 882 889 515 929 682 b 1099 515 936 682 976 515 z "},"㎂":{"ha":0,"x_min":0,"x_max":0,"o":"m 56 -400 l 292 -400 b 258 -61 268 -283 263 -183 b 326 -94 271 -86 299 -94 b 421 -11 371 -94 410 -72 l 426 -11 b 571 -103 450 -74 494 -101 l 560 -151 l 754 -151 l 806 68 l 1061 68 l 1113 -151 l 1306 -151 l 1024 1024 l 844 1024 l 619 99 b 586 164 604 104 586 122 l 586 711 l 376 711 l 376 153 b 324 108 374 125 342 108 b 279 178 303 108 279 122 l 279 711 l 56 711 z m 1099 515 b 933 117 971 515 933 315 b 768 515 933 315 896 515 b 933 882 889 515 929 682 b 1099 515 936 682 976 515 z "},"㎃":{"ha":0,"x_min":0,"x_max":0,"o":"m 200 679 l 200 725 l 46 725 l 46 -151 l 200 -151 l 200 469 l 243 497 b 310 372 294 526 310 483 l 310 -151 l 465 -151 l 465 400 b 463 472 465 425 464 450 l 497 496 b 572 372 550 521 572 483 l 572 -151 l 864 -151 l 906 68 l 1110 68 l 1151 -151 l 1306 -151 l 1094 1024 l 922 1024 l 729 -36 l 729 400 b 508 714 729 656 642 763 b 424 657 481 704 451 682 b 269 710 390 724 339 743 z m 1154 515 b 1008 146 1056 515 1013 335 b 861 515 1004 335 958 515 b 1008 882 958 515 1004 682 b 1154 515 1013 682 1056 515 z "},"㎄":{"ha":0,"x_min":0,"x_max":0,"o":"m 213 1024 l 36 1024 l 36 -151 l 213 -151 l 213 114 l 260 190 l 418 -151 l 754 -151 l 806 68 l 1061 68 l 1113 -151 l 1306 -151 l 1024 1024 l 844 1024 l 579 -72 l 369 367 l 593 725 l 394 725 l 213 436 z m 1099 515 b 933 117 971 515 933 315 b 768 515 933 315 896 515 b 933 882 889 515 929 682 b 1099 515 936 682 976 515 z "},"㎺":{"ha":0,"x_min":0,"x_max":0,"o":"m 1289 1024 l 1129 1024 l 1074 413 b 1049 135 1064 319 1056 228 b 1026 411 1040 226 1033 319 l 968 1024 l 819 1024 l 764 411 b 740 135 754 319 747 226 b 715 413 732 228 722 319 l 656 1024 l 504 1024 l 626 -151 l 829 -151 l 888 483 l 894 558 b 901 483 896 533 899 508 l 958 -151 l 1158 -151 z m 188 -490 l 188 -151 l 307 -151 b 544 279 454 -151 544 33 b 307 725 544 526 464 725 l 32 725 l 32 -490 z m 293 681 b 493 289 296 422 354 294 b 293 -108 354 282 296 140 b 93 288 290 140 229 281 b 293 681 229 293 290 422 z "},"㎻":{"ha":0,"x_min":0,"x_max":0,"o":"m 1303 1024 l 1143 1024 l 1088 413 b 1063 135 1078 319 1069 228 b 1040 411 1054 226 1047 319 l 982 1024 l 833 1024 l 778 411 b 754 135 768 319 761 226 b 729 413 746 228 736 319 l 669 1024 l 518 1024 l 640 -151 l 843 -151 l 901 483 l 908 558 b 915 483 910 533 913 508 l 972 -151 l 1172 -151 z m 303 714 l 204 683 l 204 725 l 35 725 l 35 -151 l 204 -151 l 204 469 l 278 500 b 372 372 340 526 372 483 l 372 -151 l 543 -151 l 543 400 b 303 714 543 656 456 761 z "},"㎼":{"ha":0,"x_min":0,"x_max":0,"o":"m 1303 1024 l 1143 1024 l 1088 413 b 1063 135 1078 319 1069 228 b 1040 411 1054 226 1047 319 l 982 1024 l 833 1024 l 778 411 b 754 135 768 319 761 226 b 729 413 746 228 736 319 l 669 1024 l 518 1024 l 640 -151 l 843 -151 l 901 483 l 908 558 b 915 483 910 533 913 508 l 972 -151 l 1172 -151 z m 49 -386 l 258 -386 b 229 -47 238 -269 232 -169 b 289 -81 240 -72 264 -81 b 372 3 328 -81 363 -58 l 378 3 b 511 -89 400 -61 440 -89 b 596 -61 550 -89 576 -78 l 575 117 b 560 111 568 111 565 111 b 518 178 546 111 518 125 l 518 725 l 333 725 l 333 167 b 286 122 331 139 303 122 b 247 192 268 122 247 136 l 247 725 l 49 725 z "},"㎽":{"ha":0,"x_min":0,"x_max":0,"o":"m 1297 1024 l 1150 1024 l 1100 413 b 1076 135 1090 319 1082 228 l 1056 411 l 1003 1024 l 865 1024 l 814 411 b 792 135 806 319 799 226 l 769 413 l 714 1024 l 575 1024 l 688 -151 l 875 -151 l 928 483 l 935 560 b 942 483 936 535 939 510 l 993 -151 l 1178 -151 z m 160 679 l 160 725 l 31 725 l 31 -151 l 160 -151 l 160 469 l 185 497 b 258 372 233 526 258 483 l 258 -151 l 386 -151 l 386 400 b 383 472 386 425 385 449 l 410 496 b 485 372 457 521 485 483 l 485 -151 l 614 -151 l 614 400 b 422 714 614 656 544 763 b 344 654 396 703 369 681 b 197 710 311 722 260 743 z "},"㎾":{"ha":0,"x_min":0,"x_max":0,"o":"m 1303 1024 l 1143 1024 l 1088 413 b 1063 135 1078 319 1069 228 b 1040 411 1054 226 1047 319 l 982 1024 l 833 1024 l 778 411 b 754 135 768 319 761 226 b 729 413 746 228 736 319 l 669 1024 l 518 1024 l 549 725 l 394 725 l 213 436 l 213 1024 l 36 1024 l 36 -151 l 213 -151 l 213 114 l 260 190 l 418 -151 l 617 -151 l 369 367 l 556 664 l 640 -151 l 843 -151 l 901 483 l 908 558 b 915 483 910 533 913 508 l 972 -151 l 1172 -151 z "},"㎿":{"ha":0,"x_min":0,"x_max":0,"o":"m 1310 1024 l 1160 1024 l 1107 413 b 1083 135 1097 319 1090 228 b 1063 411 1075 226 1069 319 l 1007 1024 l 867 1024 l 815 411 b 793 135 806 319 799 226 b 769 413 785 228 776 319 l 714 1024 l 417 1024 l 322 400 b 300 211 314 336 307 274 b 286 400 296 274 292 336 l 185 1024 l 17 1024 l 17 -151 l 153 -151 l 153 333 b 140 618 153 406 146 532 l 249 -124 l 356 -124 l 464 618 b 456 333 460 532 456 406 l 456 -151 l 586 -151 l 586 881 l 686 -151 l 876 -151 l 932 483 l 938 557 l 944 483 l 999 -151 l 1186 -151 z "},"㎐":{"ha":0,"x_min":0,"x_max":0,"o":"m 688 -151 l 688 1024 l 479 1024 l 479 553 l 267 553 l 267 1024 l 58 1024 l 58 -151 l 267 -151 l 267 331 l 479 331 l 479 -151 z m 731 -151 l 1229 -151 l 1229 126 b 949 39 1154 68 1050 46 l 1215 546 l 1215 726 l 726 726 l 726 504 l 983 504 l 731 29 z "},"㎑":{"ha":0,"x_min":0,"x_max":0,"o":"m 932 -151 l 932 1024 l 781 1024 l 781 553 l 654 553 l 654 1024 l 503 1024 l 503 -151 l 654 -151 l 654 331 l 781 331 l 781 -151 z m 181 1024 l 26 1024 l 26 -151 l 181 -151 l 181 114 l 218 189 l 331 -151 l 501 -151 l 317 388 l 485 725 l 313 725 l 181 450 z m 963 -151 l 1283 -151 l 1283 126 b 1108 39 1231 68 1182 46 l 1274 546 l 1274 726 l 967 726 l 967 504 l 1106 504 l 963 29 z "},"㎒":{"ha":0,"x_min":0,"x_max":0,"o":"m 324 400 b 304 215 317 338 308 276 b 283 400 300 276 293 338 l 196 1024 l 33 1024 l 33 -151 l 160 -151 l 160 333 b 150 618 160 406 154 532 l 253 -124 l 354 -124 l 458 618 b 450 333 454 532 450 406 l 450 -151 l 575 -151 l 575 1024 l 413 1024 z m 967 -151 l 967 1024 l 831 1024 l 831 553 l 744 553 l 744 1024 l 608 1024 l 608 -151 l 744 -151 l 744 331 l 831 331 l 831 -151 z m 992 -151 l 1281 -151 l 1281 126 b 1122 39 1232 68 1189 46 l 1271 546 l 1271 726 l 994 726 l 994 504 l 1119 504 l 992 29 z "},"㎓":{"ha":0,"x_min":0,"x_max":0,"o":"m 499 481 l 254 481 l 254 272 l 357 272 l 357 247 b 261 53 357 118 343 53 b 172 275 186 53 172 132 l 172 596 b 261 818 172 739 186 818 b 342 638 339 818 342 753 l 342 596 l 488 596 l 488 651 b 261 1040 488 889 421 1040 b 26 610 103 1040 26 872 l 26 261 b 261 -169 26 -1 103 -169 b 499 233 429 -169 499 -15 z m 932 -151 l 932 1024 l 786 1024 l 786 553 l 665 553 l 665 1024 l 519 1024 l 519 -151 l 665 -151 l 665 331 l 786 331 l 786 -151 z m 963 -151 l 1276 -151 l 1276 126 b 1094 39 1225 68 1165 46 l 1267 546 l 1267 726 l 960 726 l 960 504 l 1119 504 l 963 29 z "},"㎔":{"ha":0,"x_min":0,"x_max":0,"o":"m 908 -151 l 908 1024 l 740 1024 l 740 553 l 625 553 l 625 1024 l 456 1024 l 456 -151 l 625 -151 l 625 331 l 740 331 l 740 -151 z m 288 801 l 431 801 l 431 1024 l -1 1024 l -1 801 l 142 801 l 142 -151 l 288 -151 z m 939 -151 l 1272 -151 l 1272 126 b 1101 39 1213 68 1183 46 l 1261 546 l 1261 726 l 936 726 l 936 504 l 1088 504 l 939 29 z "},"Ω":{"ha":0,"x_min":0,"x_max":0,"o":"m 118 -69 l 575 -69 l 575 110 b 385 475 450 210 385 321 b 646 771 385 649 501 771 b 908 475 792 771 908 649 b 718 110 908 321 844 210 l 718 -69 l 1175 -69 l 1175 131 l 994 131 l 994 136 b 1150 500 1078 204 1150 333 b 646 983 1150 788 946 983 b 143 500 344 983 143 788 b 299 136 143 333 215 204 l 299 131 l 118 131 z "},"㏀":{"ha":0,"x_min":0,"x_max":0,"o":"m 457 725 l 247 439 l 247 1024 l 43 1024 l 43 -151 l 247 -151 l 247 117 l 300 192 l 483 -151 l 947 -151 l 947 26 b 886 464 906 154 886 336 b 975 842 886 694 931 842 b 1067 464 1019 842 1067 694 b 1006 26 1067 336 1047 154 l 1006 -151 l 1303 -151 l 1303 49 l 1211 49 l 1211 54 b 1276 489 1246 124 1276 350 b 975 1056 1276 778 1165 1056 b 676 489 788 1056 676 778 b 739 54 676 350 707 124 l 739 49 l 650 49 l 650 -33 l 635 -7 l 428 367 l 696 725 z "},"㏁":{"ha":0,"x_min":0,"x_max":0,"o":"m 711 -151 l 974 -151 l 974 26 b 919 464 938 154 919 336 b 1000 842 919 694 960 842 b 1081 464 1038 842 1081 694 b 1026 26 1081 336 1064 154 l 1026 -151 l 1289 -151 l 1289 49 l 1208 49 l 1208 54 b 1267 489 1238 124 1267 350 b 1000 1056 1267 778 1167 1056 b 735 489 832 1056 735 778 b 790 54 735 350 760 124 l 790 49 l 711 49 z m 393 400 b 368 211 382 336 375 274 b 346 400 364 274 354 336 l 239 1024 l 42 1024 l 42 -151 l 194 -151 l 194 333 b 182 618 194 406 188 532 l 310 -124 l 431 -124 l 557 618 b 542 333 550 532 542 406 l 542 -151 l 694 -151 l 694 1024 l 499 1024 z "},"㎊":{"ha":0,"x_min":0,"x_max":0,"o":"m 1256 1024 l 711 1024 l 711 -151 l 919 -151 l 919 303 l 1231 303 l 1231 532 l 919 532 l 919 801 l 1256 801 z m 268 -490 l 268 -151 l 403 -151 b 671 279 569 -151 671 33 b 403 725 671 526 579 725 l 78 725 l 78 -490 z m 381 681 b 613 289 383 422 457 294 b 381 -129 453 281 381 132 b 147 288 381 132 307 281 b 381 681 303 293 376 422 z "},"㎋":{"ha":0,"x_min":0,"x_max":0,"o":"m 1256 801 l 1256 1024 l 711 1024 l 711 -151 l 919 -151 l 919 303 l 1231 303 l 1231 532 l 919 532 l 919 801 z m 371 714 l 268 683 l 268 725 l 78 725 l 78 -151 l 268 -151 l 268 469 l 344 500 b 443 372 410 526 443 483 l 443 -151 l 635 -151 l 635 400 b 371 714 635 656 531 761 z "},"㎌":{"ha":0,"x_min":0,"x_max":0,"o":"m 1256 801 l 1256 1024 l 711 1024 l 711 -151 l 919 -151 l 919 303 l 1231 303 l 1231 532 l 919 532 l 919 801 z m 56 -386 l 292 -386 b 258 -47 268 -269 263 -169 b 326 -81 271 -72 299 -81 b 421 3 371 -81 410 -58 l 426 3 b 578 -89 451 -61 497 -89 b 674 -61 621 -89 651 -78 l 650 117 b 632 111 643 111 639 111 b 586 178 617 111 586 125 l 586 725 l 376 725 l 376 167 b 324 122 374 139 342 122 b 279 192 303 122 279 136 l 279 725 l 56 725 z "},"㏖":{"ha":0,"x_min":0,"x_max":0,"o":"m 1117 118 b 1275 -169 1117 -54 1164 -169 l 1308 -169 l 1308 53 l 1281 53 b 1250 113 1263 53 1250 64 l 1250 1024 l 1117 1024 z m 885 744 b 674 365 749 744 674 568 l 674 208 b 885 -171 674 -8 749 -171 b 1097 208 1024 -171 1097 -8 l 1097 365 b 885 744 1097 568 1024 744 z m 160 679 l 160 725 l 33 725 l 33 -151 l 160 -151 l 160 469 l 197 497 b 272 372 244 526 272 483 l 272 -151 l 406 -151 l 406 400 b 403 471 406 425 404 449 l 439 496 b 515 372 489 521 515 483 l 515 -151 l 650 -151 l 650 400 b 442 714 650 656 567 763 b 363 654 415 703 388 681 b 208 710 328 722 274 743 z m 885 661 b 1044 289 889 417 932 294 b 885 -128 925 282 885 133 b 726 288 885 133 846 281 b 885 661 840 293 881 417 z "},"㏅":{"ha":0,"x_min":0,"x_max":0,"o":"m 1060 1024 l 1060 725 l 924 725 b 654 294 756 725 654 540 b 924 -151 654 47 747 -151 l 1239 -151 l 1239 1024 z m 431 224 l 431 182 b 331 44 431 113 406 44 b 229 224 256 44 229 124 l 229 351 b 331 531 229 451 256 531 b 431 393 406 531 431 463 l 431 365 l 631 365 l 631 407 b 331 744 631 579 531 744 b 31 365 139 744 31 596 l 31 210 b 331 -169 31 -21 139 -169 b 631 168 542 -169 631 -4 l 631 224 z m 942 -108 b 714 285 938 150 869 278 b 942 679 869 292 938 431 b 1168 286 944 431 1013 293 b 942 -108 1013 279 944 150 z "},"㎭":{"ha":0,"x_min":0,"x_max":0,"o":"m 1104 1024 l 1104 725 l 994 725 b 778 294 860 725 778 540 b 994 -151 778 47 851 -151 l 1249 -151 l 1249 1024 z m 178 239 b 304 489 189 385 240 489 l 313 489 l 313 443 l 458 443 l 458 457 b 532 539 458 504 485 539 b 613 443 581 539 613 513 l 613 424 l 501 400 b 299 86 351 368 299 261 b 479 -169 299 -81 379 -169 b 619 -101 538 -169 593 -139 l 619 -151 l 757 -151 l 757 443 b 532 739 757 615 658 739 b 324 561 425 739 350 665 l 324 725 l 293 725 b 178 567 232 725 193 649 l 178 725 l 36 725 l 36 -151 l 178 -151 z m 1010 -108 b 824 285 1007 150 951 278 b 1010 679 951 292 1007 431 b 1192 286 1013 431 1065 293 b 1010 -108 1065 279 1013 150 z m 522 363 b 660 121 525 232 590 126 b 522 -117 590 115 525 7 b 389 119 518 6 457 114 b 522 363 457 125 518 232 z "},"㎮":{"ha":0,"x_min":0,"x_max":0,"o":"m 811 -276 l 919 -276 l 1014 397 l 1014 392 b 1081 203 1014 300 1043 232 l 1151 143 b 1183 79 1174 124 1183 106 b 1136 26 1183 46 1161 26 b 1086 113 1114 26 1086 60 l 1003 113 b 1140 -142 1003 -22 1046 -142 b 1278 97 1228 -142 1278 -29 b 1218 285 1278 192 1250 256 l 1146 346 b 1107 408 1122 365 1107 379 b 1146 456 1107 436 1121 456 b 1185 392 1167 456 1185 429 l 1268 392 b 1142 603 1268 508 1217 603 b 1028 496 1090 603 1049 564 l 1113 1100 l 1003 1100 l 893 311 l 893 1024 l 783 1024 l 783 782 l 729 782 b 568 433 628 782 568 632 b 729 72 568 233 624 72 l 860 72 z m 118 388 b 214 590 128 506 167 590 l 219 590 l 219 553 l 329 553 l 329 564 b 383 631 329 603 350 631 b 444 553 419 631 444 610 l 444 538 l 361 518 b 210 264 250 492 210 406 b 344 57 210 129 271 57 b 450 113 388 57 431 82 l 450 72 l 551 72 l 551 553 b 383 793 551 693 479 793 b 229 653 306 793 250 735 l 229 782 l 207 782 b 118 642 158 782 128 713 l 118 782 l 15 782 l 15 72 l 118 72 z m 742 122 b 600 425 738 321 693 419 b 742 731 693 431 738 538 b 875 425 746 538 786 431 b 742 122 786 419 746 321 z m 376 489 b 479 292 379 382 429 296 b 376 100 429 288 379 200 b 276 290 374 200 328 286 b 376 489 328 294 374 382 z "}}}
